<svg id="Capa_1" enable-background="new 0 0 510 510" height="512" viewBox="0 0 510 510" width="512" xmlns="http://www.w3.org/2000/svg" xmlns:xlink="http://www.w3.org/1999/xlink"><radialGradient id="SVGID_1_" cx="173.027" cy="194.297" gradientUnits="userSpaceOnUse" r="286.086"><stop offset="0" stop-color="#ffd945"/><stop offset=".4169" stop-color="#ffd744"/><stop offset=".6278" stop-color="#ffcf3f"/><stop offset=".7926" stop-color="#ffc237"/><stop offset=".9326" stop-color="#ffaf2c"/><stop offset="1" stop-color="#ffa325"/></radialGradient><linearGradient id="SVGID_2_" gradientUnits="userSpaceOnUse" x1="191.573" x2="325.887" y1="268.128" y2="402.443"><stop offset="0" stop-color="#ff7044"/><stop offset="1" stop-color="#f82814"/></linearGradient><linearGradient id="SVGID_3_" gradientUnits="userSpaceOnUse" x1="283.532" x2="577.526" y1="351.107" y2="264.869"><stop offset="0" stop-color="#f82814" stop-opacity="0"/><stop offset="1" stop-color="#c0272d"/></linearGradient><linearGradient id="SVGID_4_" gradientUnits="userSpaceOnUse" x1="286.564" x2="86.648" y1="383.749" y2="53.169"><stop offset="0" stop-color="#ff7044" stop-opacity="0"/><stop offset="1" stop-color="#ffa325"/></linearGradient><linearGradient id="SVGID_5_" gradientUnits="userSpaceOnUse" x1="282.541" x2="120.144" y1="358.85" y2="128.303"><stop offset="0" stop-color="#ffd945" stop-opacity="0"/><stop offset="1" stop-color="#fbed21"/></linearGradient><linearGradient id="SVGID_6_" gradientUnits="userSpaceOnUse" x1="194.627" x2="393.186" y1="324.259" y2="403.222"><stop offset="0" stop-color="#f35227" stop-opacity="0"/><stop offset="1" stop-color="#f35227"/></linearGradient><g><path d="m371.264 57.597c-3.301 5.185-7.435 12.169-11.896 20.855-2.18 4.245-8.169 4.428-10.595.318-27.194-46.079-59.753-78.77-94.749-78.77-55.757 0-105.332 82.962-136.866 170.878-4.276 11.921-21.333 11.854-25.256-.188-.06-.183-.119-.367-.177-.552-1.674-5.273-9.266-5.017-10.705.324-13.034 48.397-35.417 167.347 26.815 258.576 30.508 48.617 84.557 80.962 146.189 80.962 49.113 0 93.396-20.558 124.813-53.497 14.19-17.099 64.987-65.104 64.987-169.442 0-134.722-59.914-171.169-64.837-227.614-.35-3.993-5.57-5.232-7.723-1.85z" fill="url(#SVGID_1_)"/><g><g><g><circle cx="255" cy="331.555" fill="url(#SVGID_2_)" r="166.597"/></g><path d="m340.617 188.622c15.02 25.022 23.664 54.308 23.664 85.617 0 92.009-74.588 166.597-166.597 166.597-31.308 0-60.595-8.643-85.617-23.664 29.121 48.512 82.232 80.98 142.933 80.98 92.009 0 166.597-74.588 166.597-166.597 0-60.7-32.468-113.811-80.98-142.933z" fill="url(#SVGID_3_)"/><circle cx="255" cy="331.555" fill="url(#SVGID_4_)" r="153.547"/></g><g><path d="m157.002 308.057v-36.669c0-25.565 16.784-34.86 38.734-34.86 21.691 0 38.734 9.296 38.734 34.86v36.669c0 25.565-17.043 34.861-38.734 34.861-21.95-.001-38.734-9.297-38.734-34.861zm51.645-36.669c0-8.521-4.906-12.395-12.911-12.395s-12.654 3.874-12.654 12.395v36.669c0 8.521 4.649 12.395 12.654 12.395s12.911-3.874 12.911-12.395zm105.874-31.762c0 1.55-.259 3.357-1.033 4.907l-90.897 186.183c-1.807 3.874-6.714 6.456-11.62 6.456-8.779 0-14.46-7.23-14.46-13.686 0-1.549.516-3.357 1.291-4.906l90.639-186.183c2.065-4.39 6.197-6.456 10.846-6.456 7.229-.002 15.234 5.421 15.234 13.685zm-38.993 151.58v-36.668c0-25.565 16.785-34.861 38.734-34.861 21.692 0 38.735 9.296 38.735 34.861v36.668c0 25.565-17.044 34.861-38.735 34.861-21.948 0-38.734-9.296-38.734-34.861zm51.647-36.668c0-8.521-4.906-12.395-12.912-12.395-8.005 0-12.652 3.874-12.652 12.395v36.668c0 8.522 4.648 12.395 12.652 12.395 8.006 0 12.912-3.873 12.912-12.395z" fill="#fff"/></g></g><path d="m383.228 355.413c0 70.752-57.356 128.108-128.108 128.108s-128.108-57.356-128.108-128.108 57.356-250.635 128.108-250.635 128.108 179.883 128.108 250.635z" fill="url(#SVGID_5_)"/><path d="m348.172 390.469c0 51.392-41.661 93.052-93.053 93.052-51.391 0-93.052-41.661-93.052-93.052s41.661-182.051 93.052-182.051c51.392 0 93.053 130.66 93.053 182.051z" fill="url(#SVGID_6_)"/></g></svg>