<svg id="Layer_1" enable-background="new 0 0 511.972 511.972" height="512" viewBox="0 0 511.972 511.972" width="512" xmlns="http://www.w3.org/2000/svg"><path d="m321.972 0c-104.767 0-190 85.233-190 190 0 36.143 10.147 69.958 27.737 98.754-99.716 78.376-110.733 89.389-114.448 93.103l-27.716 27.716c-23.394 23.395-23.394 61.459 0 84.854 11.697 11.696 27.062 17.545 42.426 17.545s30.729-5.849 42.426-17.545l27.716-27.716c3.694-3.694 14.738-14.741 92.649-114.733 28.895 17.763 62.875 28.022 99.21 28.022 28.548 0 56.002-6.181 81.599-18.371 9.973-4.749 14.207-16.684 9.458-26.656-4.75-9.973-16.685-14.21-26.656-9.457-20.183 9.611-41.85 14.484-64.401 14.484-82.71 0-150-67.29-150-150s67.29-150 150-150 150 67.29 150 150c0 27.091-7.293 53.631-21.092 76.75-5.661 9.484-2.561 21.763 6.924 27.424 9.486 5.661 21.763 2.561 27.424-6.924 17.497-29.315 26.745-62.943 26.745-97.25-.001-104.767-85.235-190-190.001-190zm-220.142 438.426-27.716 27.716c-7.798 7.799-20.486 7.799-28.284 0-7.798-7.798-7.798-20.485 0-28.283l27.716-27.716c4.956-4.956 26.04-23.249 110.48-89.625 2.285 2.414 4.63 4.772 7.037 7.064-66.157 84.902-84.321 105.932-89.233 110.844zm321.091-292.18c4.397 10.133-.253 21.911-10.386 26.309-2.592 1.125-5.294 1.657-7.951 1.657-7.728 0-15.085-4.504-18.357-12.044-11.116-25.616-36.337-42.168-64.255-42.168-11.046 0-20-8.954-20-20s8.954-20 20-20c43.862 0 83.487 26.003 100.949 66.246z"/></svg>