<?xml version="1.0" encoding="utf-8"?>
<!-- Generator: Adobe Illustrator 22.1.0, SVG Export Plug-In . SVG Version: 6.00 Build 0)  -->
<svg version="1.1" id="Layer_1" xmlns="http://www.w3.org/2000/svg" xmlns:xlink="http://www.w3.org/1999/xlink" x="0px" y="0px"
	 viewBox="0 0 576 457.1" style="enable-background:new 0 0 576 457.1;" xml:space="preserve">
<style type="text/css">
	.st0{display:none;fill:#00465E;}
	.st1{opacity:0.38;fill:#8AAFFF;}
	.st2{opacity:0.3;fill:#FFFFFF;}
	.st3{fill:#FFFFFF;}
	.st4{opacity:0.1;fill:#388DFF;}
	.st5{opacity:0.5;fill:#B8E6FF;}
	.st6{opacity:0.5;fill:#76A8E5;}
	.st7{opacity:0.5;fill:#569EFF;}
	.st8{opacity:0.2;fill:#FFFFFF;}
	.st9{fill:url(#SVGID_1_);}
	.st10{fill:url(#SVGID_2_);}
	.st11{fill:url(#SVGID_3_);}
	.st12{fill:url(#SVGID_4_);}
	.st13{fill:#E5ACAA;}
	.st14{fill:url(#SVGID_5_);}
	.st15{opacity:0.15;fill:#FFFFFF;}
	.st16{opacity:0.5;fill:#961900;}
	.st17{fill:url(#SVGID_6_);}
	.st18{fill:url(#SVGID_7_);}
	.st19{fill:url(#SVGID_8_);}
	.st20{fill:url(#SVGID_9_);}
	.st21{fill:url(#SVGID_10_);}
	.st22{opacity:0.5;fill:#B0CFFF;}
	.st23{opacity:0.5;fill:#CEF2FF;}
	.st24{opacity:0.2;}
	.st25{fill:url(#SVGID_11_);}
	.st26{fill:#FFF688;}
	.st27{fill:url(#SVGID_12_);}
	.st28{fill:url(#SVGID_13_);}
	.st29{fill:url(#SVGID_14_);}
	.st30{fill:url(#SVGID_15_);}
	.st31{fill:url(#SVGID_16_);}
	.st32{fill:url(#SVGID_17_);}
	.st33{fill:url(#SVGID_18_);}
	.st34{fill:url(#SVGID_19_);}
	.st35{fill:url(#SVGID_20_);}
	.st36{opacity:0.3;fill:#FFF688;}
	.st37{fill:url(#SVGID_21_);}
	.st38{fill:url(#SVGID_22_);}
	.st39{fill:url(#SVGID_23_);}
	.st40{opacity:0.5;fill:#8AAFFF;}
	.st41{fill:url(#SVGID_24_);}
	.st42{fill:url(#SVGID_25_);}
</style>
<rect x="0" y="0" class="st0" width="576" height="457.1"/>
<path class="st1" d="M347.8,181.8c5.4,4.6,10.2,0,10.2,0s23.9-21.6,42.7,3.1c28.2,38.4-35.3,77.6-35.3,77.6s-13.5,10.8-27.9,0
	c-14.4-10.8-56.9-43.8-31.9-79.1C309.9,176.4,329.3,161.6,347.8,181.8z"/>
<path class="st2" d="M364.5,181.4c-3.9,9.8,6.5,7.5,6.5,7.5s15.7-6.3,23.6,7.6c7.9,13.9,0,34.5,0,34.5s20.5-21.2,4.8-42.2
	C383.6,167.7,365.9,179.6,364.5,181.4z"/>
<path class="st3" d="M334.6,175c0,0.8-2.4,1.4-5.5,1.4c-3,0-5.5-0.6-5.5-1.4c0-0.8,2.4-1.4,5.5-1.4
	C332.1,173.6,334.6,174.2,334.6,175z"/>
<path class="st3" d="M392,181.1c3.3,2.9,4.9,6.6,3.4,8.3c-1.5,1.7-5.4,0.8-8.8-2.1c-3.3-2.9-4.9-6.6-3.4-8.3
	C384.7,177.3,388.7,178.2,392,181.1z"/>
<path class="st3" d="M400.6,193c0.5,1.6,0.1,3.1-0.9,3.4c-0.9,0.3-2.1-0.8-2.5-2.4c-0.5-1.6-0.1-3.1,0.9-3.4
	C399,190.4,400.1,191.5,400.6,193z"/>
<path class="st2" d="M343.4,183.5c-8.5-9.4-22.7-9.9-31.5-1.1c-6.2,7.3-7.6,13.4-4.3,18.4c2.8,3.8,11.7,5.5,13.6,0
	C323,195.3,329.1,185.6,343.4,183.5z"/>
<path class="st3" d="M332.9,179.5c0,1.5-3.1,2.6-6.8,2.6s-6.8-1.2-6.8-2.6c0-1.5,3.1-2.6,6.8-2.6S332.9,178.1,332.9,179.5z"/>
<path class="st4" d="M317.2,177.9c0,0-16.4,8.6-16.4,29.3c0,20.8,22.1,38.8,34.9,49.2c17,13.7,31.6-0.1,31.6-0.1l23.7-20.1
	c0,0-16.6,8.7-26,15.7c-9.4,7-16.1,8.6-31.9-3.8c-15.8-12.4-27.1-28-27.1-39.8C304.3,189.5,317.2,177.9,317.2,177.9z"/>
<path class="st5" d="M348,183.2c5.2,4.4,9.8,0,9.8,0s23-20.8,41,3c27.1,36.9-33.9,74.7-33.9,74.7s-13,10.4-26.8,0
	c-13.8-10.4-54.7-42.1-30.6-76C311.6,178,330.2,163.8,348,183.2z"/>
<ellipse transform="matrix(0.2047 -0.9788 0.9788 0.2047 194.9898 415.0341)" class="st6" cx="352.9" cy="87.5" rx="48.3" ry="48.3"/>
<path class="st7" d="M352.9,37c-27.9,0-50.5,22.6-50.5,50.5S325,138,352.9,138c27.9,0,50.5-22.6,50.5-50.5S380.8,37,352.9,37z
	 M352.9,135.8c-26.7,0-48.3-21.6-48.3-48.3c0-26.7,21.6-48.3,48.3-48.3c26.7,0,48.3,21.6,48.3,48.3
	C401.2,114.2,379.5,135.8,352.9,135.8z"/>
<path class="st7" d="M352.9,48.3c-21.6,0-39.2,17.6-39.2,39.2c0,21.7,17.6,39.2,39.2,39.2c21.7,0,39.2-17.6,39.2-39.2
	C392.1,65.9,374.5,48.3,352.9,48.3z M352.9,123.2c-19.7,0-35.7-16-35.7-35.7c0-19.7,16-35.7,35.7-35.7s35.7,16,35.7,35.7
	C388.6,107.2,372.6,123.2,352.9,123.2z"/>
<path class="st2" d="M312.4,90.7c-0.1-1.4-0.4-3.5-0.4-5c0.4-21.9,17.5-40.2,40.8-40.1c20.2,0.1,39,14.8,40.7,39.4
	c0.1,1.6-0.2,4.1-0.4,5.7c2.6-0.6,5.5-1.7,6.2-2.4c0-0.8,0.1-1.5,0.1-2.3c0-25.8-21-45.8-46.8-45.8s-46.7,20-46.7,45.8
	c0,0.8,0,1.6,0.1,2.4C308,90.2,310.6,90.2,312.4,90.7z"/>
<path class="st8" d="M386.3,92.7c0.3-1.9,0.5-3.9,0.5-5.9c0-18.8-15.2-34-34-34s-34,15.2-34,34c0,2.2,0.2,4.4,0.6,6.6
	C354.4,97.8,376.8,94.7,386.3,92.7z"/>
<ellipse transform="matrix(0.2251 -0.9743 0.9743 0.2251 188.1814 411.6633)" class="st5" cx="352.9" cy="87.5" rx="48.3" ry="48.3"/>
<g>
	<linearGradient id="SVGID_1_" gradientUnits="userSpaceOnUse" x1="486.3502" y1="37.0453" x2="486.3502" y2="138.0059">
		<stop  offset="0" style="stop-color:#FFFBBF"/>
		<stop  offset="1" style="stop-color:#D47800"/>
	</linearGradient>
	<circle class="st9" cx="486.4" cy="87.5" r="50.5"/>
	<linearGradient id="SVGID_2_" gradientUnits="userSpaceOnUse" x1="486.3503" y1="39.2643" x2="486.3503" y2="135.787">
		<stop  offset="0" style="stop-color:#F8FF94"/>
		<stop  offset="0.3246" style="stop-color:#E9C300"/>
		<stop  offset="0.6911" style="stop-color:#FFD215"/>
		<stop  offset="1" style="stop-color:#D4A000"/>
	</linearGradient>
	<circle class="st10" cx="486.4" cy="87.5" r="48.3"/>
	<linearGradient id="SVGID_3_" gradientUnits="userSpaceOnUse" x1="486.3502" y1="126.7265" x2="486.3502" y2="48.3249">
		<stop  offset="0" style="stop-color:#F8FF94"/>
		<stop  offset="0.4974" style="stop-color:#E9C300"/>
		<stop  offset="1" style="stop-color:#D48000"/>
	</linearGradient>
	<circle class="st11" cx="486.4" cy="87.5" r="39.2"/>
	<linearGradient id="SVGID_4_" gradientUnits="userSpaceOnUse" x1="486.3503" y1="51.8421" x2="486.3503" y2="123.2092">
		<stop  offset="0" style="stop-color:#F8FF94"/>
		<stop  offset="0.3194" style="stop-color:#E9CE00"/>
		<stop  offset="0.7016" style="stop-color:#DDA400"/>
		<stop  offset="1" style="stop-color:#D48D00"/>
	</linearGradient>
	<circle class="st12" cx="486.4" cy="87.5" r="35.7"/>
	<path class="st3" d="M451.2,94.9c0,0,6,28.1,34.9,28.1c28.9,0,35.3-28.1,35.3-28.1s-7.6,27.1-35.3,26.5
		C458.4,120.7,451.2,94.9,451.2,94.9z"/>
	<path class="st8" d="M520,92.3c0.3-1.9,0.5-3.9,0.5-5.9c0-18.8-15.2-34-34-34c-18.8,0-34,15.2-34,34c0,2.2,0.2,4.4,0.6,6.6
		C488,97.3,510.4,94.3,520,92.3z"/>
	<path class="st8" d="M446.1,91.5c-0.1-1.4-0.4-3.5-0.4-5c0.4-21.9,17.5-40.2,40.8-40.1c20.2,0.1,39,14.8,40.7,39.4
		c0.1,1.6-0.2,4.1-0.4,5.7c2.6-0.6,5.5-1.7,6.2-2.4c0-0.8,0.1-1.5,0.1-2.3c0-25.8-21-45.8-46.8-45.8s-46.7,20-46.7,45.8
		c0,0.8,0,1.6,0.1,2.4C441.8,91,444.3,91,446.1,91.5z"/>
	<path class="st3" d="M490,126.7c0,0,24.7,0.1,33.3-25.9C512.6,125.7,490,126.7,490,126.7z"/>
	<path class="st3" d="M442.1,68.2c0,0,10.9-25.9,33.7-27.8C454.9,43.8,442.1,68.2,442.1,68.2z"/>
</g>
<g>
	<path class="st13" d="M481.2,181.8c5.4,4.6,10.2,0,10.2,0s23.9-21.6,42.7,3.1c28.2,38.4-35.3,77.6-35.3,77.6s-13.5,10.8-27.9,0
		c-14.4-10.8-56.9-43.8-31.9-79.1C443.4,176.4,462.7,161.6,481.2,181.8z"/>
	<linearGradient id="SVGID_5_" gradientUnits="userSpaceOnUse" x1="486.695" y1="182.3928" x2="485.3616" y2="276.3929">
		<stop  offset="0" style="stop-color:#FF0E00"/>
		<stop  offset="1" style="stop-color:#930B00"/>
	</linearGradient>
	<path class="st14" d="M484.6,265.3c-4.3,0-8.5-1.5-12.4-4.4c-6.2-4.7-20.8-15.6-30.2-29.9c-10.9-16.5-11.3-32.1-1.2-46.4l0-0.1
		l0-0.1c2.6-4.4,10.8-10.9,20.1-10.9c6.6,0,12.9,3.2,18.7,9.5l0.1,0.1l0.1,0.1c2,1.7,4.1,2.5,6.4,2.5c3.7,0,6.3-2.3,6.6-2.6
		c0.1-0.1,9.2-8.2,20.1-8.2c7.4,0,13.9,3.7,19.5,11.1c5.9,8,7.9,16.7,6.2,25.8c-5.1,26.4-40.5,48.6-40.9,48.8l-0.1,0.1l-0.1,0.1
		C497.5,261,492,265.3,484.6,265.3z"/>
	<path class="st2" d="M497.9,181.4c-3.9,9.8,6.5,7.5,6.5,7.5s15.7-6.3,23.6,7.6c7.9,13.9,0,34.5,0,34.5s20.5-21.2,4.8-42.2
		C517,167.7,499.4,179.6,497.9,181.4z"/>
	<path class="st3" d="M468,175c0,0.8-2.4,1.4-5.5,1.4c-3,0-5.5-0.6-5.5-1.4c0-0.8,2.4-1.4,5.5-1.4C465.6,173.6,468,174.2,468,175z"
		/>
	<path class="st3" d="M525.4,181.1c3.3,2.9,4.9,6.6,3.4,8.3c-1.5,1.7-5.4,0.8-8.8-2.1c-3.3-2.9-4.9-6.6-3.4-8.3
		C518.2,177.3,522.1,178.2,525.4,181.1z"/>
	<path class="st3" d="M534,193c0.5,1.6,0.1,3.1-0.9,3.4c-0.9,0.3-2.1-0.8-2.5-2.4c-0.5-1.6-0.1-3.1,0.9-3.4
		C532.4,190.4,533.6,191.5,534,193z"/>
	<path class="st2" d="M476.8,183.5c-8.5-9.4-22.7-9.9-31.5-1.1c-6.2,7.3-7.6,13.4-4.3,18.4c2.8,3.8,11.7,5.5,13.6,0
		C456.5,195.3,462.5,185.6,476.8,183.5z"/>
	<path class="st3" d="M466.4,179.5c0,1.5-3.1,2.6-6.8,2.6c-3.8,0-6.8-1.2-6.8-2.6c0-1.5,3.1-2.6,6.8-2.6
		C463.3,176.9,466.4,178.1,466.4,179.5z"/>
	<path class="st15" d="M478.5,223.8c10.6,11.7,29.8,10.3,53.4,2.1c2.4-4.2,4.2-8.6,5.1-13.2c1.7-8.9-0.3-17.4-6-25.2
		c-5.4-7.2-11.9-10.8-19.1-10.8c-10.7,0-19.6,7.9-19.7,8c-0.3,0.3-2.8,2.5-6.4,2.5c-2.2,0-4.3-0.8-6.2-2.5l-0.1-0.1l-0.1-0.1
		c-5.7-6.2-11.8-9.3-18.3-9.3c-9,0-17,6.4-19.6,10.7l0,0.1l0,0.1c-6.9,9.7-8.8,19.9-5.8,30.7C447.8,212.8,461.4,212.9,478.5,223.8z"
		/>
	<path class="st16" d="M450.6,177.9c0,0-16.4,8.6-16.4,29.3c0,20.8,22.1,38.8,34.9,49.2c17,13.7,31.6-0.1,31.6-0.1l23.7-20.1
		c0,0-16.6,8.7-26,15.7c-9.4,7-16.1,8.6-31.9-3.8c-15.8-12.4-27.1-28-27.1-39.8C437.8,189.5,450.6,177.9,450.6,177.9z"/>
</g>
<g>
	
		<ellipse transform="matrix(0.2262 -0.9741 0.9741 0.2262 -16.9287 153.7404)" class="st6" cx="88.3" cy="87.5" rx="48.3" ry="48.3"/>
	<path class="st7" d="M88.3,37c-27.9,0-50.5,22.6-50.5,50.5S60.4,138,88.3,138s50.5-22.6,50.5-50.5S116.2,37,88.3,37z M88.3,135.8
		c-26.7,0-48.3-21.6-48.3-48.3c0-26.7,21.6-48.3,48.3-48.3c26.7,0,48.3,21.6,48.3,48.3C136.6,114.2,115,135.8,88.3,135.8z"/>
	<path class="st7" d="M88.3,48.3c-21.6,0-39.2,17.6-39.2,39.2c0,21.7,17.6,39.2,39.2,39.2c21.7,0,39.2-17.6,39.2-39.2
		C127.5,65.9,110,48.3,88.3,48.3z M88.3,123.2c-19.7,0-35.7-16-35.7-35.7c0-19.7,16-35.7,35.7-35.7c19.7,0,35.7,16,35.7,35.7
		C124,107.2,108,123.2,88.3,123.2z"/>
	<path class="st3" d="M52.9,94.7c0,0,6,28.1,34.9,28.1c28.9,0,35.3-28.1,35.3-28.1s-7.6,27.1-35.3,26.5
		C60.1,120.5,52.9,94.7,52.9,94.7z"/>
	<path class="st8" d="M121.8,93c0.3-1.9,0.5-3.9,0.5-5.9c0-18.8-15.2-34-34-34c-18.8,0-34,15.2-34,34c0,2.2,0.2,4.4,0.6,6.6
		C89.8,98,112.2,95,121.8,93z"/>
	<path class="st2" d="M48.1,92c-0.1-1.4-0.4-3.5-0.4-5c0.4-21.9,17.5-40.2,40.8-40.1c20.2,0.1,39,14.8,40.7,39.4
		c0.1,1.6-0.2,4.1-0.4,5.7c2.6-0.6,5.5-1.7,6.2-2.4c0-0.8,0.1-1.5,0.1-2.3c0-25.8-21-45.8-46.8-45.8c-25.8,0-46.7,20-46.7,45.8
		c0,0.8,0,1.6,0.1,2.4C43.7,91.5,46.3,91.4,48.1,92z"/>
	<path class="st3" d="M43.8,68.2c0,0,10.9-25.9,33.7-27.8C56.6,43.9,43.8,68.2,43.8,68.2z"/>
	
		<ellipse transform="matrix(0.2262 -0.9741 0.9741 0.2262 -16.9287 153.7404)" class="st5" cx="88.3" cy="87.5" rx="48.3" ry="48.3"/>
</g>
<ellipse transform="matrix(0.2251 -0.9743 0.9743 0.2251 85.3439 282.3594)" class="st5" cx="220.2" cy="87.5" rx="48.3" ry="48.3"/>
<g>
	<g>
		<ellipse transform="matrix(0.7071 -0.7071 0.7071 0.7071 2.57 181.2558)" class="st6" cx="220.1" cy="87.5" rx="48.3" ry="48.3"/>
		<path class="st7" d="M220,37c-27.9,0-50.5,22.6-50.5,50.5S192.1,138,220,138s50.5-22.6,50.5-50.5S247.8,37,220,37z M220,135.8
			c-26.7,0-48.3-21.6-48.3-48.3c0-26.7,21.6-48.3,48.3-48.3c26.7,0,48.3,21.6,48.3,48.3C268.2,114.2,246.6,135.8,220,135.8z"/>
		<path class="st7" d="M220,48.3c-21.6,0-39.2,17.6-39.2,39.2c0,21.7,17.6,39.2,39.2,39.2c21.7,0,39.2-17.6,39.2-39.2
			C259.2,65.9,241.6,48.3,220,48.3z M220,123.2c-19.7,0-35.7-16-35.7-35.7c0-19.7,16-35.7,35.7-35.7c19.7,0,35.7,16,35.7,35.7
			C255.7,107.2,239.7,123.2,220,123.2z"/>
		<path class="st8" d="M253.5,93c0.3-1.9,0.5-3.9,0.5-5.9c0-18.8-15.2-34-34-34s-34,15.2-34,34c0,2.2,0.2,4.4,0.6,6.6
			C221.6,98,244,95,253.5,93z"/>
		<path class="st2" d="M179.9,92c-0.1-1.4-0.4-3.5-0.4-5c0.4-21.9,17.5-40.2,40.8-40.1c20.2,0.1,39,14.8,40.7,39.4
			c0.1,1.6-0.2,4.1-0.4,5.7c2.6-0.6,5.5-1.7,6.2-2.4c0-0.8,0.1-1.5,0.1-2.3c0-25.8-21-45.8-46.8-45.8s-46.7,20-46.7,45.8
			c0,0.8,0,1.6,0.1,2.4C175.5,91.5,178,91.4,179.9,92z"/>
		<path class="st3" d="M175.6,68.2c0,0,10.9-25.9,33.7-27.8C188.3,43.9,175.6,68.2,175.6,68.2z"/>
	</g>
	<g>
		<linearGradient id="SVGID_6_" gradientUnits="userSpaceOnUse" x1="206.97" y1="105.1374" x2="269.3902" y2="105.1374">
			<stop  offset="0" style="stop-color:#AA6300"/>
			<stop  offset="1" style="stop-color:#D48000"/>
		</linearGradient>
		<path class="st17" d="M269.4,97.9c-19.8-2.6-41-1.3-62.4,2.9l10.3,13c0,0,32.9-1.2,33.4-1.7S269.4,97.9,269.4,97.9z"/>
		<linearGradient id="SVGID_7_" gradientUnits="userSpaceOnUse" x1="219.688" y1="93.9172" x2="219.688" y2="138.0059">
			<stop  offset="0" style="stop-color:#FFFBBF"/>
			<stop  offset="1" style="stop-color:#D47800"/>
		</linearGradient>
		<path class="st18" d="M253.3,100.6c-14,3.3-26.2,3.3-36.7,0c-17.3-5.6-32.7-8-46.7-5.9c3.5,24.4,24.1,43.4,49.5,43.4
			c24.3,0,45.1-17.3,49.9-40.2C264.3,98.4,258.6,99.3,253.3,100.6z"/>
		<linearGradient id="SVGID_8_" gradientUnits="userSpaceOnUse" x1="220.1861" y1="94.087" x2="220.1861" y2="135.787">
			<stop  offset="0" style="stop-color:#F8FF94"/>
			<stop  offset="0.3246" style="stop-color:#E9C300"/>
			<stop  offset="0.6911" style="stop-color:#FFD215"/>
			<stop  offset="1" style="stop-color:#D4A000"/>
		</linearGradient>
		<path class="st19" d="M252.3,100.6c-14,3.3-26.2,3.3-36.7,0c-15.6-5.1-29.5-7.4-42.5-6.2c3.3,23.4,23,41.4,47.3,41.4
			c23.1,0,41.9-16.1,46.7-37.7C262.2,98.6,257.5,99.4,252.3,100.6z"/>
		<path class="st3" d="M223,126.7c0,0,24.7,0.1,33.3-25.9C245.6,125.7,223,126.7,223,126.7z"/>
		<linearGradient id="SVGID_9_" gradientUnits="userSpaceOnUse" x1="218.2174" y1="95.1054" x2="218.2174" y2="123.2092">
			<stop  offset="0" style="stop-color:#F8FF94"/>
			<stop  offset="0.3194" style="stop-color:#E9CE00"/>
			<stop  offset="0.7016" style="stop-color:#DDA400"/>
			<stop  offset="1" style="stop-color:#D48D00"/>
		</linearGradient>
		<path class="st20" d="M219.6,101.6c-12.5-4.1-24.2-6.3-35-6.5c3.5,16.1,17.8,28.1,34.9,28.1c14.3,0,26.7-8.5,32.4-20.7
			C239.7,104.9,229,104.6,219.6,101.6z"/>
		<linearGradient id="SVGID_10_" gradientUnits="userSpaceOnUse" x1="218.7545" y1="126.7265" x2="218.7545" y2="94.0988">
			<stop  offset="0" style="stop-color:#F8FF94"/>
			<stop  offset="0.4974" style="stop-color:#E9C300"/>
			<stop  offset="1" style="stop-color:#D48000"/>
		</linearGradient>
		<path class="st21" d="M253.3,100.6c-14,3.3-26.2,3.3-36.7,0c-12.8-4.2-24.8-6.4-35.8-6.5c3.1,18.5,19.2,32.6,38.6,32.6
			c17.3,0,32-11.3,37.2-26.9C255.6,100.1,254.4,100.3,253.3,100.6z"/>
		<path class="st3" d="M184.2,94.9c0,0,6,28.8,34.9,28.1c28.3-0.7,32.5-22.6,32.9-22.2c-0.4-0.5-5.7,20.3-32.9,20.6
			C191.4,121.6,184.2,94.9,184.2,94.9z"/>
	</g>
</g>
<g>
	<path class="st22" d="M66.5,326.3c0,0,19.3-63.7,44.2,0c66.3,1.5,15.4,42.9,15.4,42.9s20.8,70.1-36.5,29
		c-57.8,38.5-39.8-28-39.8-28C1.2,326.6,66.5,326.3,66.5,326.3z"/>
	<path class="st5" d="M67.7,327.9c0,0,18.2-60.3,41.8,0c62.7,1.5,14.6,40.6,14.6,40.6s19.7,66.3-34.5,27.5
		c-54.7,36.5-37.7-26.5-37.7-26.5C6,328.1,67.7,327.9,67.7,327.9z"/>
	<path class="st23" d="M68.2,330.2c0,0,17.8-55.9,40.8,0c61.2,1.4,14.2,37.7,14.2,37.7s19.2,61.6-33.7,25.5
		c-53.4,33.8-36.8-24.6-36.8-24.6C7.9,330.4,68.2,330.2,68.2,330.2z"/>
	<g class="st24">
		<path class="st3" d="M94.3,307.4c-12.6-8.8-22.1,12-25.1,19.8C78.1,320,86.9,313,94.3,307.4z"/>
		<path class="st3" d="M125.9,331.9c-4.4-0.9-9.9-1.6-16.9-1.7c-0.8-1.9-1.6-3.7-2.3-5.3c-10,5.3-20.4,11.6-25.7,17.1
			c-6.5,6.7-18.9,19.5-28.9,29.9c-1.2,5.4-3,16.4-0.2,24.1c11-5.4,28.6-14.5,36.5-21.1C100.3,364.9,118,344.2,125.9,331.9z"/>
		<path class="st3" d="M137,336.6c-2,2.3-3.7,4.4-4.7,5.8c-4.5,6-14.6,27.9-21.9,39.8c-3.4,5.5-8.6,11.1-13.7,15.7
			c44,25.8,26.6-30,26.6-30S149.7,347.4,137,336.6z"/>
		<path class="st3" d="M65.6,330.2c-9,0.5-37.7,3.5-27,22.6C46,346.5,55.7,338.3,65.6,330.2z"/>
	</g>
	<path class="st3" d="M43.6,332.6c0,0,9.6-5,24.1-4.8c5.5-18.4,13.6-24,13.6-24s-7.7,6.3-13.2,25.3
		C56.1,328.8,43.6,332.6,43.6,332.6z"/>
	<path class="st2" d="M89.5,393.3c0,0-23.6,16.4-33.8,8.3c11.5,4.5,33.8-10.4,33.8-10.4V393.3z"/>
	<path class="st3" d="M102.6,316.4c1.4,3.7,0.5,7.6-2.1,8.6c-2.6,1-5.9-1.2-7.4-4.9c-1.4-3.7-0.5-7.6,2.1-8.6
		C97.9,310.5,101.2,312.7,102.6,316.4z"/>
	<path class="st3" d="M107.8,329.4c0,1.6-1.3,2.8-2.8,2.8c-1.6,0-2.8-1.3-2.8-2.8c0-1.6,1.3-2.8,2.8-2.8
		C106.5,326.5,107.8,327.8,107.8,329.4z"/>
</g>
<g>
	<linearGradient id="SVGID_11_" gradientUnits="userSpaceOnUse" x1="486.3503" y1="298" x2="486.3503" y2="411.1834">
		<stop  offset="0" style="stop-color:#F8FF94"/>
		<stop  offset="0.2251" style="stop-color:#E9C200"/>
		<stop  offset="0.6073" style="stop-color:#DD8E00"/>
		<stop  offset="1" style="stop-color:#AA6300"/>
	</linearGradient>
	<path class="st25" d="M464.6,326.3c0,0,19.3-63.7,44.2,0c66.3,1.5,15.4,42.9,15.4,42.9s20.8,70.1-36.5,29
		c-57.8,38.5-39.8-28-39.8-28C399.3,326.6,464.6,326.3,464.6,326.3z"/>
	<path class="st26" d="M465.7,327.9c0,0,18.2-60.3,41.8,0c62.7,1.5,14.6,40.6,14.6,40.6s19.7,66.3-34.5,27.5
		c-54.7,36.5-37.7-26.5-37.7-26.5C404,328.1,465.7,327.9,465.7,327.9z"/>
	<linearGradient id="SVGID_12_" gradientUnits="userSpaceOnUse" x1="486.3503" y1="305.2993" x2="486.3503" y2="404.6318">
		<stop  offset="0" style="stop-color:#F8FF94"/>
		<stop  offset="0.3194" style="stop-color:#FFE000"/>
		<stop  offset="0.7016" style="stop-color:#FFA400"/>
		<stop  offset="1" style="stop-color:#D4A900"/>
	</linearGradient>
	<path class="st27" d="M466.2,330.2c0,0,17.8-55.9,40.8,0c61.2,1.4,14.2,37.7,14.2,37.7s19.2,61.6-33.7,25.5
		c-53.4,33.8-36.8-24.6-36.8-24.6C406,330.4,466.2,330.2,466.2,330.2z"/>
	<g class="st24">
		<path class="st26" d="M492.3,307.4c-12.6-8.8-22.1,12-25.1,19.8C476.1,320,485,313,492.3,307.4z"/>
		<path class="st26" d="M523.9,331.9c-4.4-0.9-9.9-1.6-16.9-1.7c-0.8-1.9-1.6-3.7-2.3-5.3c-10,5.3-20.4,11.6-25.7,17.1
			c-6.5,6.7-18.9,19.5-28.9,29.9c-1.2,5.4-3,16.4-0.2,24.1c11-5.4,28.6-14.5,36.5-21.1C498.3,364.9,516.1,344.2,523.9,331.9z"/>
		<path class="st26" d="M535,336.6c-2,2.3-3.7,4.4-4.7,5.8c-4.5,6-14.6,27.9-21.9,39.8c-3.4,5.5-8.6,11.1-13.7,15.7
			c44,25.8,26.6-30,26.6-30S547.7,347.4,535,336.6z"/>
		<path class="st26" d="M463.6,330.2c-9,0.5-37.7,3.5-27,22.6C444.1,346.5,453.7,338.3,463.6,330.2z"/>
	</g>
	<path class="st3" d="M441.6,332.6c0,0,9.6-5,24.1-4.8c5.5-18.4,13.6-24,13.6-24s-7.7,6.3-13.2,25.3
		C454.2,328.8,441.6,332.6,441.6,332.6z"/>
	<path class="st2" d="M487.6,393.3c0,0-23.6,16.4-33.8,8.3c11.5,4.5,33.8-10.4,33.8-10.4V393.3z"/>
	<path class="st3" d="M500.7,316.4c1.4,3.7,0.5,7.6-2.1,8.6c-2.6,1-5.9-1.2-7.4-4.9c-1.4-3.7-0.5-7.6,2.1-8.6
		C495.9,310.5,499.2,312.7,500.7,316.4z"/>
	<path class="st3" d="M505.8,329.4c0,1.6-1.3,2.8-2.8,2.8c-1.6,0-2.8-1.3-2.8-2.8c0-1.6,1.3-2.8,2.8-2.8
		C504.5,326.5,505.8,327.8,505.8,329.4z"/>
</g>
<path class="st3" d="M317.5,94.7c0,0,6,28.1,34.9,28.1c28.9,0,35.3-28.1,35.3-28.1s-7.6,27.1-35.3,26.5
	C324.7,120.5,317.5,94.7,317.5,94.7z"/>
<path class="st3" d="M308.4,68.2c0,0,10.9-25.9,33.7-27.8C321.1,43.9,308.4,68.2,308.4,68.2z"/>
<linearGradient id="SVGID_13_" gradientUnits="userSpaceOnUse" x1="353.0747" y1="74.2881" x2="399.2689" y2="74.2881">
	<stop  offset="0" style="stop-color:#AA6300"/>
	<stop  offset="1" style="stop-color:#D48000"/>
</linearGradient>
<path class="st28" d="M399.3,67.6c-14.9-3.5-30.4-1-46.2,4.6l14,10.5l28.2-1.3L399.3,67.6z"/>
<linearGradient id="SVGID_14_" gradientUnits="userSpaceOnUse" x1="352.8957" y1="66.1979" x2="352.8957" y2="138.0059">
	<stop  offset="0" style="stop-color:#FFFBBF"/>
	<stop  offset="1" style="stop-color:#D47800"/>
</linearGradient>
<path class="st29" d="M360,69.6c-10.2-4.6-21.8-4.1-34-1.5c-8.6,2.8-14.8,2.3-19.7-0.3c-2.6,6-4,12.7-4,19.6
	c0,27.9,22.6,50.5,50.5,50.5s50.5-22.6,50.5-50.5c0-7.1-1.5-13.8-4.1-20C389,76.1,376,77.1,360,69.6z"/>
<linearGradient id="SVGID_15_" gradientUnits="userSpaceOnUse" x1="352.8957" y1="66.1979" x2="352.8957" y2="135.787">
	<stop  offset="0" style="stop-color:#F8FF94"/>
	<stop  offset="0.3246" style="stop-color:#E9C300"/>
	<stop  offset="0.6911" style="stop-color:#FFD215"/>
	<stop  offset="1" style="stop-color:#D4A000"/>
</linearGradient>
<path class="st30" d="M360,69.6c-10.2-4.6-21.8-4.1-34-1.5c-7.4,2.4-13.1,2.3-17.6,0.6c-2.4,5.8-3.8,12.1-3.8,18.7
	c0,26.7,21.6,48.3,48.3,48.3c26.7,0,48.3-21.6,48.3-48.3c0-6.6-1.3-12.8-3.7-18.6C387.4,76.2,375.1,76.6,360,69.6z"/>
<linearGradient id="SVGID_16_" gradientUnits="userSpaceOnUse" x1="352.8956" y1="126.7266" x2="352.8956" y2="66.1979">
	<stop  offset="0" style="stop-color:#F8FF94"/>
	<stop  offset="0.4974" style="stop-color:#E9C300"/>
	<stop  offset="1" style="stop-color:#D48000"/>
</linearGradient>
<path class="st31" d="M360,69.6c-10.2-4.6-21.8-4.1-34-1.5c-3,1-5.7,1.5-8.2,1.8c-2.7,5.3-4.2,11.3-4.2,17.6
	c0,21.6,17.6,39.2,39.2,39.2c21.7,0,39.2-17.6,39.2-39.2c0-5.1-1-9.9-2.7-14.4C381,75.9,371.2,74.9,360,69.6z"/>
<linearGradient id="SVGID_17_" gradientUnits="userSpaceOnUse" x1="352.8957" y1="66.1979" x2="352.8957" y2="123.2092">
	<stop  offset="0" style="stop-color:#F8FF94"/>
	<stop  offset="0.3194" style="stop-color:#E9CE00"/>
	<stop  offset="0.7016" style="stop-color:#DDA400"/>
	<stop  offset="1" style="stop-color:#D48D00"/>
</linearGradient>
<path class="st32" d="M361,69.6c-10.2-4.6-21.8-4.1-34-1.5c-1.7,0.6-3.4,1-4.9,1.3c-3.1,5.3-4.9,11.5-4.9,18.1
	c0,19.7,16,35.7,35.7,35.7c19.7,0,35.7-16,35.7-35.7c0-4.7-0.9-9.2-2.6-13.3C378.7,75.5,370.4,74,361,69.6z"/>
<path class="st3" d="M317.8,94.9c0,0,6,28.1,34.9,28.1c28.9,0,35.3-28.1,35.3-28.1s-7.6,27.1-35.3,26.5
	C325,120.7,317.8,94.9,317.8,94.9z"/>
<path class="st3" d="M356.5,126.7c0,0,24.7,0.1,33.3-25.9C379.1,125.7,356.5,126.7,356.5,126.7z"/>
<g>
	<path class="st22" d="M331.1,326.3c0,0,19.3-63.7,44.2,0c66.3,1.5,15.4,42.9,15.4,42.9s20.8,70.1-36.5,29
		c-57.8,38.5-39.8-28-39.8-28C265.8,326.6,331.1,326.3,331.1,326.3z"/>
	<path class="st5" d="M332.3,327.9c0,0,18.2-60.3,41.8,0c62.7,1.5,14.6,40.6,14.6,40.6s19.7,66.3-34.5,27.5
		c-54.7,36.5-37.7-26.5-37.7-26.5C270.5,328.1,332.3,327.9,332.3,327.9z"/>
	<path class="st23" d="M332.8,330.2c0,0,17.8-55.9,40.8,0c61.2,1.4,14.2,37.7,14.2,37.7s19.2,61.6-33.7,25.5
		c-53.4,33.8-36.8-24.6-36.8-24.6C272.5,330.4,332.8,330.2,332.8,330.2z"/>
	<path class="st3" d="M308.1,332.6c0,0,9.6-5,24.1-4.8c5.5-18.4,13.6-24,13.6-24s-7.7,6.3-13.2,25.3
		C320.7,328.8,308.1,332.6,308.1,332.6z"/>
	<path class="st2" d="M354.1,393.3c0,0-23.6,16.4-33.8,8.3c11.5,4.5,33.8-10.4,33.8-10.4V393.3z"/>
	<path class="st3" d="M367.2,316.4c1.4,3.7,0.5,7.6-2.1,8.6c-2.6,1-5.9-1.2-7.4-4.9c-1.4-3.7-0.5-7.6,2.1-8.6
		C362.5,310.5,365.8,312.7,367.2,316.4z"/>
	<path class="st3" d="M372.3,329.4c0,1.6-1.3,2.8-2.8,2.8c-1.6,0-2.8-1.3-2.8-2.8c0-1.6,1.3-2.8,2.8-2.8
		C371.1,326.5,372.3,327.8,372.3,329.4z"/>
	<g>
		<linearGradient id="SVGID_18_" gradientUnits="userSpaceOnUse" x1="316.2295" y1="351.2365" x2="401.2573" y2="351.2365">
			<stop  offset="0" style="stop-color:#FFB900"/>
			<stop  offset="1" style="stop-color:#FFE300"/>
		</linearGradient>
		<path class="st33" d="M401.3,336.6c-11.5,5.6-23.2,9.8-35.5,8.2c-20.2-2.1-36.9-0.5-49.5,5.5l25,15.5c0,0,37-10,38.5-10
			s16.9-9.6,16.9-9.6L401.3,336.6z"/>
		<linearGradient id="SVGID_19_" gradientUnits="userSpaceOnUse" x1="352.8234" y1="331.617" x2="352.8234" y2="411.3542">
			<stop  offset="0" style="stop-color:#F8FF94"/>
			<stop  offset="0.2251" style="stop-color:#E9C200"/>
			<stop  offset="0.6073" style="stop-color:#DD8E00"/>
			<stop  offset="1" style="stop-color:#AA6300"/>
		</linearGradient>
		<path class="st34" d="M402.3,331.6c-3.9,1.1-7.5,2.9-11,5.4c-18.5,13.1-38.2,14-58.3,10.6c-15.6-3-26.9-2.7-36.5-1.2
			c1.2,6,6.3,13.8,17.7,24c0,0-18,66.5,39.8,28c57.3,41.1,36.5-29,36.5-29S422.9,343,402.3,331.6z"/>
		<path class="st26" d="M399.2,332.7c-2.7,1.1-5.4,2.5-7.9,4.3c-18.5,13.1-38.2,14-58.3,10.6c-14.1-2.7-24.6-2.7-33.6-1.6
			c0.8,5.8,5.6,13.5,16.9,23.6c0,0-17,62.9,37.7,26.5c54.2,38.9,34.5-27.5,34.5-27.5S419.5,343.3,399.2,332.7z"/>
		<linearGradient id="SVGID_20_" gradientUnits="userSpaceOnUse" x1="352.6851" y1="333.8735" x2="352.6851" y2="404.8026">
			<stop  offset="0" style="stop-color:#F8FF94"/>
			<stop  offset="0.3194" style="stop-color:#FFE000"/>
			<stop  offset="0.7016" style="stop-color:#FFA400"/>
			<stop  offset="1" style="stop-color:#D4A900"/>
		</linearGradient>
		<path class="st35" d="M396.4,333.9c-1.8,0.9-3.5,1.9-5.2,3.1c-18.5,13.1-38.2,14-58.3,10.6c-13.5-2.6-23.7-2.7-32.4-1.8
			c0.3,5.5,4.8,12.9,16.6,23c0,0-16.6,58.4,36.8,24.6c52.9,36.1,33.7-25.5,33.7-25.5S419.5,343.3,396.4,333.9z"/>
		<path class="st36" d="M401.4,336.8c-2,2.3-3.7,4.4-4.7,5.8c-4.5,6-14.6,27.9-21.9,39.8c-3.4,5.5-8.6,11.1-13.7,15.7
			c44,25.8,26.6-30,26.6-30S414.1,347.5,401.4,336.8z"/>
		<path class="st2" d="M353.9,393.5c0,0-23.6,16.4-33.8,8.3c11.5,4.5,33.8-10.4,33.8-10.4V393.5z"/>
		<path class="st36" d="M339,348.6c-6.6,6.9-15.3,15.8-22.7,23.4c-1.2,5.4-3,16.4-0.2,24.1c11-5.4,28.6-14.5,36.5-21.1
			c9.4-7.8,22.9-21.9,31.8-33.8C370.1,349.3,354.4,350.3,339,348.6z"/>
		<path class="st36" d="M300.6,345.9c0.1,2.1,0.8,4.5,2.3,7.2c2.8-2.4,5.8-5,9.1-7.7C307.9,345.3,304.1,345.5,300.6,345.9z"/>
	</g>
	<g class="st24">
		<path class="st3" d="M358.9,307.4c-12.6-8.8-22.1,12-25.1,19.8C342.7,320,351.5,313,358.9,307.4z"/>
		<path class="st3" d="M390.5,331.9c-4.4-0.9-9.9-1.6-16.9-1.7c-0.8-1.9-1.6-3.7-2.3-5.3c-10,5.3-20.4,11.6-25.7,17.1
			c-6.5,6.7-18.9,19.5-28.9,29.9c-1.2,5.4-3,16.4-0.2,24.1c11-5.4,28.6-14.5,36.5-21.1C364.8,364.9,382.6,344.2,390.5,331.9z"/>
		<path class="st3" d="M401.6,336.6c-2,2.3-3.7,4.4-4.7,5.8c-4.5,6-14.6,27.9-21.9,39.8c-3.4,5.5-8.6,11.1-13.7,15.7
			c44,25.8,26.6-30,26.6-30S414.3,347.4,401.6,336.6z"/>
		<path class="st3" d="M330.2,330.2c-9,0.5-37.7,3.5-27,22.6C310.6,346.5,320.3,338.3,330.2,330.2z"/>
	</g>
</g>
<g>
	<path class="st22" d="M198.2,326.3c0,0,19.3-63.7,44.2,0c66.3,1.5,15.4,42.9,15.4,42.9s20.8,70.1-36.5,29
		c-57.8,38.5-39.8-28-39.8-28C132.9,326.6,198.2,326.3,198.2,326.3z"/>
	<path class="st5" d="M199.4,327.9c0,0,18.2-60.3,41.8,0c62.7,1.5,14.6,40.6,14.6,40.6s19.7,66.3-34.5,27.5
		c-54.7,36.5-37.7-26.5-37.7-26.5C137.6,328.1,199.4,327.9,199.4,327.9z"/>
	<path class="st23" d="M199.8,330.2c0,0,17.8-55.9,40.8,0c61.2,1.4,14.2,37.7,14.2,37.7s19.2,61.6-33.7,25.5
		c-53.4,33.8-36.8-24.6-36.8-24.6C139.6,330.4,199.8,330.2,199.8,330.2z"/>
	<path class="st3" d="M175.2,332.6c0,0,9.6-5,24.1-4.8c5.5-18.4,13.6-24,13.6-24s-7.7,6.3-13.2,25.3
		C187.8,328.8,175.2,332.6,175.2,332.6z"/>
	<path class="st2" d="M221.2,393.3c0,0-23.6,16.4-33.8,8.3c11.5,4.5,33.8-10.4,33.8-10.4V393.3z"/>
	<path class="st3" d="M234.3,316.4c1.4,3.7,0.5,7.6-2.1,8.6c-2.6,1-5.9-1.2-7.4-4.9c-1.4-3.7-0.5-7.6,2.1-8.6
		C229.5,310.5,232.9,312.7,234.3,316.4z"/>
	<path class="st3" d="M239.4,329.4c0,1.6-1.3,2.8-2.8,2.8s-2.8-1.3-2.8-2.8c0-1.6,1.3-2.8,2.8-2.8S239.4,327.8,239.4,329.4z"/>
	<linearGradient id="SVGID_21_" gradientUnits="userSpaceOnUse" x1="203.2746" y1="377.9026" x2="258.4052" y2="377.9026">
		<stop  offset="0" style="stop-color:#FFB900"/>
		<stop  offset="1" style="stop-color:#FFE300"/>
	</linearGradient>
	<path class="st37" d="M258.4,371.5c-16.4-2.3-35.2-0.7-55.1,2.7c0,0,28.3,11.3,28.8,11.1c0.5-0.2,25.4-5.1,25.4-5.1L258.4,371.5z"
		/>
	<g>
		<linearGradient id="SVGID_22_" gradientUnits="userSpaceOnUse" x1="219.1474" y1="365.725" x2="219.1474" y2="411.4665">
			<stop  offset="0" style="stop-color:#F8FF94"/>
			<stop  offset="0.2251" style="stop-color:#E9C200"/>
			<stop  offset="0.6073" style="stop-color:#DD8E00"/>
			<stop  offset="1" style="stop-color:#AA6300"/>
		</linearGradient>
		<path class="st38" d="M212.6,372.7c-12.3-4.6-24.9-6.7-35.9-7c1.5,1.5,3,3,4.8,4.5c-0.4,0.1-18.3,67.1,40.3,28.3
			c51.2,36.8,39.6-15.6,36.7-27C247.3,377.7,232.6,379.8,212.6,372.7z"/>
		<path class="st26" d="M212.6,372.7c-11.2-4.1-21.2-6.2-31.4-6.8c1.2,1.2,2.2,2.6,3.5,3.8c0,0-17.6,62.7,37.1,26.2
			c46.2,33.1,38.2-10,35-23.5C245.8,377.9,231.7,379.5,212.6,372.7z"/>
		<linearGradient id="SVGID_23_" gradientUnits="userSpaceOnUse" x1="220.061" y1="365.8822" x2="220.061" y2="404.777">
			<stop  offset="0" style="stop-color:#F8FF94"/>
			<stop  offset="0.3194" style="stop-color:#FFE000"/>
			<stop  offset="0.7016" style="stop-color:#FFA400"/>
			<stop  offset="1" style="stop-color:#D4A900"/>
		</linearGradient>
		<path class="st39" d="M212.6,372.7c-11-4.1-22.6-6.7-31.4-6.8c1,0.9,2.4,2.9,3.5,3.8c0,0-16.3,57.6,37.1,23.8
			c43.7,29.8,38.2-7.4,35-21.1C245.8,377.7,231.2,379.7,212.6,372.7z"/>
		<path class="st2" d="M221.8,393.5c0,0-23.1,16.2-33.2,8.1c11.5,4.5,33.3-10.1,33.3-10.1L221.8,393.5z"/>
		<path class="st36" d="M246.5,375.9c-1.2,2.3-2.5,4.4-3.6,6.2c-3.4,5.5-8.9,11.3-14,16c36.4,21.3,30.8-13.1,27.7-25.6
			C253.5,374.1,250.3,375,246.5,375.9z"/>
		<path class="st36" d="M211.8,372.4c-7.7-2.8-15.8-4.8-23-5.9c-1.6,1.7-3,3.3-4.5,4.9c-1.2,5.4-3.4,16.9-0.6,24.5
			c10.7-5.3,27.9-14.4,36-21C216.9,374.2,214.8,373.5,211.8,372.4z"/>
	</g>
	<g class="st24">
		<path class="st3" d="M226,307.4c-12.6-8.8-22.1,12-25.1,19.8C209.7,320,218.6,313,226,307.4z"/>
		<path class="st3" d="M257.5,331.9c-4.4-0.9-9.9-1.6-16.9-1.7c-0.8-1.9-1.6-3.7-2.3-5.3c-10,5.3-20.4,11.6-25.7,17.1
			c-6.5,6.7-18.9,19.5-28.9,29.9c-1.2,5.4-3,16.4-0.2,24.1c11-5.4,28.6-14.5,36.5-21.1C231.9,364.9,249.7,344.2,257.5,331.9z"/>
		<path class="st3" d="M268.7,336.6c-2,2.3-3.7,4.4-4.7,5.8c-4.5,6-14.6,27.9-21.9,39.8c-3.4,5.5-8.6,11.1-13.7,15.7
			c44,25.8,26.6-30,26.6-30S281.4,347.4,268.7,336.6z"/>
		<path class="st3" d="M197.2,330.2c-9,0.5-37.7,3.5-27,22.6C177.7,346.5,187.4,338.3,197.2,330.2z"/>
	</g>
</g>
<g>
	<path class="st40" d="M83.2,181.8c5.4,4.6,10.2,0,10.2,0s23.9-21.6,42.7,3.1c28.2,38.4-35.3,77.6-35.3,77.6s-13.5,10.8-27.9,0
		c-14.4-10.8-56.9-43.8-31.9-79.1C45.3,176.4,64.7,161.6,83.2,181.8z"/>
	<path class="st2" d="M99.9,181.4c-3.9,9.8,6.5,7.5,6.5,7.5s15.7-6.3,23.6,7.6c7.9,13.9,0,34.5,0,34.5s20.5-21.2,4.8-42.2
		C119,167.7,101.3,179.6,99.9,181.4z"/>
	<path class="st3" d="M70,175c0,0.8-2.4,1.4-5.5,1.4c-3,0-5.5-0.6-5.5-1.4c0-0.8,2.4-1.4,5.5-1.4C67.5,173.6,70,174.2,70,175z"/>
	<path class="st3" d="M127.4,181.1c3.3,2.9,4.9,6.6,3.4,8.3c-1.5,1.7-5.4,0.8-8.8-2.1c-3.3-2.9-4.9-6.6-3.4-8.3
		C120.1,177.3,124,178.2,127.4,181.1z"/>
	<path class="st3" d="M136,193c0.5,1.6,0.1,3.1-0.9,3.4c-0.9,0.3-2.1-0.8-2.5-2.4c-0.5-1.6-0.1-3.1,0.9-3.4
		C134.4,190.4,135.5,191.5,136,193z"/>
	<path class="st2" d="M78.8,183.5c-8.5-9.4-22.7-9.9-31.5-1.1c-6.2,7.3-7.6,13.4-4.3,18.4c2.8,3.8,11.7,5.5,13.6,0
		C58.4,195.3,64.5,185.6,78.8,183.5z"/>
	<path class="st3" d="M68.3,179.5c0,1.5-3.1,2.6-6.8,2.6s-6.8-1.2-6.8-2.6c0-1.5,3.1-2.6,6.8-2.6S68.3,178.1,68.3,179.5z"/>
	<path class="st15" d="M80.5,223.8c10.6,11.7,29.8,10.3,53.4,2.1c2.4-4.2,4.2-8.6,5.1-13.2c1.7-8.9-0.3-17.4-6-25.2
		c-5.4-7.2-11.9-10.8-19.1-10.8c-10.7,0-19.6,7.9-19.7,8c-0.3,0.3-2.8,2.5-6.4,2.5c-2.2,0-4.3-0.8-6.2-2.5l-0.1-0.1l-0.1-0.1
		c-5.7-6.2-11.8-9.3-18.3-9.3c-9,0-17,6.4-19.6,10.7l0,0.1l0,0.1c-6.9,9.7-8.8,19.9-5.8,30.7C49.8,212.8,63.4,212.9,80.5,223.8z"/>
	<path class="st4" d="M52.6,177.9c0,0-16.4,8.6-16.4,29.3c0,20.8,22.1,38.8,34.9,49.2c17,13.7,31.6-0.1,31.6-0.1l23.7-20.1
		c0,0-16.6,8.7-26,15.7c-9.4,7-16.1,8.6-31.9-3.8c-15.8-12.4-27.1-28-27.1-39.8C39.7,189.5,52.6,177.9,52.6,177.9z"/>
	<path class="st5" d="M82.9,183.2c5.2,4.4,9.8,0,9.8,0s23-20.8,41,3c27.1,36.9-33.9,74.7-33.9,74.7s-13,10.4-26.8,0
		c-13.8-10.4-54.7-42.1-30.6-76C46.5,178,65.1,163.8,82.9,183.2z"/>
</g>
<path class="st13" d="M374,202.1c-14.5,2.7-29.2,2.6-44,0c-10-3.1-20.9-3.8-31.6-1.9c-5.2,28.7,27.5,53.7,39.6,62.8
	c14.4,10.8,27.9,0,27.9,0s46.9-29.4,41.7-62.1C398.2,198.8,387.3,199.1,374,202.1z"/>
<linearGradient id="SVGID_24_" gradientUnits="userSpaceOnUse" x1="353.1895" y1="216.5404" x2="352.7816" y2="268.5529">
	<stop  offset="0" style="stop-color:#FF0E00"/>
	<stop  offset="1" style="stop-color:#930B00"/>
</linearGradient>
<path class="st41" d="M373,202.1c-14.5,2.7-29.2,2.6-44,0c-9-2.8-17.9-3.6-27.5-2.4c-2.1,10.1,0.2,20.8,7.5,31.8
	c9.4,14.2,24,25.2,30.2,29.9c3.9,2.9,8,4.4,12.4,4.4c7.4,0,12.9-4.3,13-4.4l0.1-0.1l0.1-0.1c0.4-0.2,35.4-22.4,40.5-48.8
	c0.8-4,0.4-8.1-0.3-11.8C395.8,198.7,385.8,199.3,373,202.1z"/>
<path class="st16" d="M333.4,248.6c-15.8-12.4-27.1-28-27.1-39.8c-0.3-3.4-0.1-6.7,0.4-9.6c-1.5,0.1-3,0.2-4.6,0.4
	c-0.5,2.4-0.9,5.2-0.9,8.1c0,20.8,22.1,38.8,34.9,49.2c17,13.7,31.6-0.1,31.6-0.1l23.7-20.1c0,0-16.6,8.7-26,15.7
	C355.9,259.4,349.2,261,333.4,248.6z"/>
<ellipse class="st24" cx="88.3" cy="150.1" rx="21.1" ry="3.5"/>
<ellipse class="st24" cx="220" cy="150.1" rx="21.1" ry="3.5"/>
<ellipse class="st24" cx="352.9" cy="150.1" rx="21.1" ry="3.5"/>
<ellipse class="st24" cx="486.4" cy="150.1" rx="21.1" ry="3.5"/>
<ellipse class="st24" cx="88.3" cy="278" rx="21.1" ry="3.5"/>
<ellipse class="st24" cx="220" cy="278" rx="21.1" ry="3.5"/>
<ellipse class="st24" cx="352.9" cy="278" rx="21.1" ry="3.5"/>
<ellipse class="st24" cx="486.4" cy="278" rx="21.1" ry="3.5"/>
<ellipse class="st24" cx="88.3" cy="421.6" rx="21.1" ry="3.5"/>
<ellipse class="st24" cx="220" cy="421.6" rx="21.1" ry="3.5"/>
<ellipse class="st24" cx="352.9" cy="421.6" rx="21.1" ry="3.5"/>
<ellipse class="st24" cx="486.4" cy="421.6" rx="21.1" ry="3.5"/>
<g>
	<g>
		<path class="st1" d="M214.8,181.8c5.4,4.6,10.2,0,10.2,0s23.9-21.6,42.7,3.1c28.2,38.4-35.3,77.6-35.3,77.6s-13.5,10.8-27.9,0
			c-14.4-10.8-56.9-43.8-31.9-79.1C177,176.4,196.3,161.6,214.8,181.8z"/>
		<path class="st2" d="M231.5,181.4c-3.9,9.8,6.5,7.5,6.5,7.5s15.7-6.3,23.6,7.6c7.9,13.9,0,34.5,0,34.5s20.5-21.2,4.8-42.2
			C250.6,167.7,233,179.6,231.5,181.4z"/>
		<path class="st3" d="M201.6,175c0,0.8-2.4,1.4-5.5,1.4s-5.5-0.6-5.5-1.4c0-0.8,2.4-1.4,5.5-1.4S201.6,174.2,201.6,175z"/>
		<path class="st3" d="M259.1,181.1c3.3,2.9,4.9,6.6,3.4,8.3c-1.5,1.7-5.4,0.8-8.8-2.1c-3.3-2.9-4.9-6.6-3.4-8.3
			C251.8,177.3,255.7,178.2,259.1,181.1z"/>
		<path class="st3" d="M267.6,193c0.5,1.6,0.1,3.1-0.9,3.4c-0.9,0.3-2.1-0.8-2.5-2.4c-0.5-1.6-0.1-3.1,0.9-3.4
			C266.1,190.4,267.2,191.5,267.6,193z"/>
		<path class="st2" d="M210.5,183.5c-8.5-9.4-22.7-9.9-31.5-1.1c-6.2,7.3-7.6,13.4-4.3,18.4c2.8,3.8,11.7,5.5,13.6,0
			C190.1,195.3,196.2,185.6,210.5,183.5z"/>
		<path class="st3" d="M200,179.5c0,1.5-3.1,2.6-6.8,2.6s-6.8-1.2-6.8-2.6c0-1.5,3.1-2.6,6.8-2.6S200,178.1,200,179.5z"/>
		<path class="st15" d="M212.1,223.8c10.6,11.7,29.8,10.3,53.4,2.1c2.4-4.2,4.2-8.6,5.1-13.2c1.7-8.9-0.3-17.4-6-25.2
			c-5.4-7.2-11.9-10.8-19.1-10.8c-10.7,0-19.6,7.9-19.7,8c-0.3,0.3-2.8,2.5-6.4,2.5c-2.2,0-4.3-0.8-6.2-2.5l-0.1-0.1l-0.1-0.1
			c-5.7-6.2-11.8-9.3-18.3-9.3c-9,0-17,6.4-19.6,10.7l0,0.1l0,0.1c-6.9,9.7-8.8,19.9-5.8,30.7C181.5,212.8,195,212.9,212.1,223.8z"
			/>
		<path class="st4" d="M184.2,177.9c0,0-16.4,8.6-16.4,29.3c0,20.8,22.1,38.8,34.9,49.2c17,13.7,31.6-0.1,31.6-0.1l23.7-20.1
			c0,0-16.6,8.7-26,15.7c-9.4,7-16.1,8.6-31.9-3.8c-15.8-12.4-27.1-28-27.1-39.8C171.4,189.5,184.2,177.9,184.2,177.9z"/>
	</g>
	<path class="st5" d="M215,183.2c5.2,4.4,9.8,0,9.8,0s23-20.8,41,3c27.1,36.9-33.9,74.7-33.9,74.7s-13,10.4-26.8,0
		c-13.8-10.4-54.7-42.1-30.6-76C178.7,178,197.2,163.8,215,183.2z"/>
	<g>
		<path class="st13" d="M221.1,243.1c-15.2-2.9-29.7-5.2-41.8-3.7c8.6,10,19.4,19,25.1,23.3c14.4,10.8,27.9,0,27.9,0
			s16.5-10.5,28.2-24.3C248.6,241.3,233.8,245,221.1,243.1z"/>
		<linearGradient id="SVGID_25_" gradientUnits="userSpaceOnUse" x1="181.5516" y1="252.1986" x2="256.8268" y2="252.1986">
			<stop  offset="0" style="stop-color:#FF0E00"/>
			<stop  offset="1" style="stop-color:#930B00"/>
		</linearGradient>
		<path class="st42" d="M217.1,242.1c-13-2.5-24.9-3.6-35.6-2.9c8.8,10.3,19.1,18.1,24.1,21.8c3.9,2.9,8,4.4,12.4,4.4
			c7.4,0,12.9-4.3,13-4.4l0.1-0.1l0.1-0.1c0.2-0.1,14-8.8,25.6-21.6C243.9,242.8,230.8,244.1,217.1,242.1z"/>
		<path class="st16" d="M248.7,241.4c-5.4,3.1-12.1,7.1-16.9,10.7c-9.4,7-16.1,8.6-31.9-3.8c-3.8-2.9-7.3-6.1-10.4-9.3
			c-2.1,0-4.2,0-6.2,0.1c6.5,7,13.8,12.9,19.3,17.5c17,13.7,31.6-0.1,31.6-0.1l18.8-16C251.5,240.8,250.1,241.1,248.7,241.4z"/>
	</g>
</g>
<path class="st15" d="M345.1,223.8c10.6,11.7,29.8,10.3,53.4,2.1c2.4-4.2,4.2-8.6,5.1-13.2c1.7-8.9-0.3-17.4-6-25.2
	c-5.4-7.2-11.9-10.8-19.1-10.8c-10.7,0-19.6,7.9-19.7,8c-0.3,0.3-2.8,2.5-6.4,2.5c-2.2,0-4.3-0.8-6.2-2.5l-0.1-0.1l-0.1-0.1
	c-5.7-6.2-11.8-9.3-18.3-9.3c-9,0-17,6.4-19.6,10.7l0,0.1l0,0.1c-6.9,9.7-8.8,19.9-5.8,30.7C314.4,212.8,328,212.9,345.1,223.8z"/>
</svg>
