<svg id="svg4593" height="512" viewBox="0 0 16.933333 16.933334" width="512" xmlns="http://www.w3.org/2000/svg" xmlns:svg="http://www.w3.org/2000/svg"><clipPath id="clipPath5337"><path id="rect5339" d="m34.774 274.321h35.435v25.702h-35.435z"/></clipPath><clipPath id="clipPath4542"><path id="rect4544" d="m-535.214-48.848h501.574v185.586h-501.574z"/></clipPath><clipPath id="clipPath11017"><path id="rect11019" d="m36.669 153.503h29.654v28.999h-29.654z" transform="rotate(-90)" vector-effect="none"/></clipPath><clipPath id="clipPath11444"><path id="rect11446" d="m-143.933 265.779h28.84v29.104h-28.84z" transform="rotate(-90)" vector-effect="none"/></clipPath><clipPath id="clipPath11781"><rect id="rect11783" height="32.411" rx=".634" transform="rotate(-90)" width="32.941" x="-145.124" y="181.377"/></clipPath><clipPath id="clipPath11499"><path id="rect11501" d="m-551.399-9.261h16.064v16.347h-16.064z" vector-effect="none"/></clipPath><g id="layer1" transform="translate(0 -280.067)"><g id="g20571" transform="translate(-.419)"><g id="g21530" transform="translate(0 -.181)"><path id="path6461" d="m30.054688 7.2988615v19.3085605c0 7.456986-9.472657 7.579286-9.472657 0v-2.470948c0-3.129809-4.169911-4.277496-5.955034-1.738907-4.292592 5.579045-6.939497 11.188521-6.939497 15.289933 0 13.427452 10.885064 24.3125 24.3125 24.3125 13.427434 0 24.312508-10.885048 24.3125-24.3125 0-11.674328-5.112644-23.776813-12.90621-31.474437-7.281587-7.2815868-13.351602-3.9236978-13.351602 1.0857985z" fill="#ef6356" transform="matrix(.265 0 0 .265 .419 280.248)" vector-effect="none"/><path id="path6469" d="m8.88524 290.61168v2.13202c0 .82339 1.045955.83689 1.045955 0v-.53635c0-.34559.460435-.47232.657545-.19201.473981.61603.766247 1.22081.766248 1.9518.000001 1.48264-1.201911 2.68455-2.6845463 2.68455-1.4826351 0-2.6845469-1.20191-2.6845461-2.68455 0-1.28906.5645297-2.62539 1.4250825-3.47535.8040208-.80403 1.4742619-.43325 1.4742619.11989z" fill="#ffc861" vector-effect="none"/><path id="rect6471" d="m6.4744748 282.243.2138068 1.25893c.094473.55628-.4542531 1.01851-1.0185048 1.01851s-1.1032712-.46066-1.0185049-1.01851l.191301-1.25893c.1798273-1.01852 1.453168-1.01852 1.6319019 0z" fill="#ef6356" vector-effect="none"/><g transform="matrix(.265 0 0 .265 .419 280.248)"><path id="path6489" d="m55.074219 33.597656c-1.180682.03046-2.078029 1.071931-1.933594 2.244141 0 0 .594516 6.258417-2.296875 11.455078-3.028637 5.443351-7.005859 7.935547-7.005859 7.935547-1.388895.844635-1.247549 2.913227.246094 3.554688 7.302522-4.194497 12.22852-12.073978 12.228515-21.09961 0-1.269759-.06381-2.53297-.18164-3.80664-.317978-.185257-.688714-.290917-1.056641-.283204z" fill="#d85750" font-variant-ligatures="normal" font-variant-position="normal" font-variant-caps="normal" font-variant-numeric="normal" font-variant-alternates="normal" font-feature-settings="normal" text-indent="0" text-align="start" text-decoration-line="none" text-decoration-style="solid" text-decoration-color="#000000" text-transform="none" text-orientation="mixed" white-space="normal" shape-padding="0" isolation="auto" mix-blend-mode="normal" solid-color="#000000" solid-opacity="1" vector-effect="none"/><path id="path6491" d="m39.792969 47.939453a2.0001999 2.0001999 0 0 0 -1.867188 2.466797s.644221 3.325983-1.210937 5.662109c-2.046499 2.577071-5.012628 3.52517-8.363282 2.220703a2.0007338 2.0007338 0 0 0 -2.716796 2.050782c1.59624 1.046838 3.501257 1.660156 5.552734 1.660156 5.603661 0 10.146488-4.542806 10.146484-10.146484-.000001-1.355601-.267479-2.595914-.75-3.783204a2.0001999 2.0001999 0 0 0 -.791015-.130859z" fill="#ffab61" font-variant-ligatures="normal" font-variant-position="normal" font-variant-caps="normal" font-variant-numeric="normal" font-variant-alternates="normal" font-feature-settings="normal" text-indent="0" text-align="start" text-decoration-line="none" text-decoration-style="solid" text-decoration-color="#000000" text-transform="none" text-orientation="mixed" white-space="normal" shape-padding="0" isolation="auto" mix-blend-mode="normal" solid-color="#000000" solid-opacity="1" vector-effect="none"/></g></g></g></g></svg>