<?xml version="1.0" encoding="utf-8"?>
<!-- Generator: Adobe Illustrator 22.1.0, SVG Export Plug-In . SVG Version: 6.00 Build 0)  -->
<svg version="1.1" id="Слой_1" xmlns="http://www.w3.org/2000/svg" xmlns:xlink="http://www.w3.org/1999/xlink" x="0px" y="0px"
	 viewBox="0 0 900 900" style="enable-background:new 0 0 900 900;" xml:space="preserve">
<style type="text/css">
	.st0{fill:url(#SVGID_1_);}
	.st1{fill:url(#SVGID_2_);}
	.st2{opacity:0.82;fill:url(#SVGID_3_);}
	.st3{fill:url(#SVGID_4_);}
	.st4{opacity:0.82;fill:url(#SVGID_5_);}
	.st5{fill:#1D2147;}
	.st6{fill:url(#SVGID_6_);}
	.st7{fill:#FE8883;}
	.st8{fill:#EC6A6B;}
	.st9{fill:#744CA2;}
	.st10{fill:#9B5ED7;}
	.st11{fill:url(#SVGID_7_);}
	.st12{fill:#DBD8FF;}
	.st13{fill:#FFFFFF;}
	.st14{fill:url(#SVGID_8_);}
	.st15{opacity:0.82;fill:url(#SVGID_9_);}
	.st16{opacity:0.5;fill:url(#SVGID_10_);}
	.st17{fill:#FE9083;}
	.st18{fill:url(#SVGID_11_);}
	.st19{opacity:0.8;fill:#FEB1A8;}
	.st20{opacity:0.5;fill:url(#SVGID_12_);}
	.st21{fill:url(#SVGID_13_);}
	.st22{fill:url(#SVGID_14_);}
	.st23{fill:url(#SVGID_15_);}
	.st24{fill:url(#SVGID_16_);}
	.st25{fill:url(#SVGID_17_);}
	.st26{fill:#FEB1A8;}
	.st27{fill:#FF909A;}
	.st28{fill:#FEB8B0;}
	.st29{opacity:0.5;fill:#FFFFFF;}
	.st30{opacity:0.5;fill:url(#SVGID_18_);}
	.st31{fill:#F67C82;}
	.st32{fill:#FB7D7C;}
	.st33{opacity:0.5;fill:url(#SVGID_19_);}
	.st34{opacity:0.2;fill:#B396C7;}
	.st35{opacity:0.3;fill:url(#SVGID_20_);}
	.st36{opacity:0.3;fill:url(#SVGID_21_);}
	.st37{fill:url(#SVGID_22_);}
	.st38{fill:url(#SVGID_23_);}
	.st39{fill:url(#SVGID_24_);}
	.st40{opacity:0.2;fill:#EC6A6B;}
	.st41{opacity:0.2;fill:#ECC1C9;}
	.st42{opacity:0.5;}
	.st43{opacity:0.5;fill:#FFAEB0;}
	.st44{fill:url(#SVGID_25_);}
	.st45{opacity:0.82;fill:url(#SVGID_26_);}
	.st46{fill:#047FC4;}
</style>
<g>
	<g>
		
			<linearGradient id="SVGID_1_" gradientUnits="userSpaceOnUse" x1="152.3521" y1="204.3282" x2="152.3521" y2="146.5526" gradientTransform="matrix(0.9922 0.1246 -0.1246 0.9922 56.9326 -31.2002)">
			<stop  offset="0" style="stop-color:#2E33A0"/>
			<stop  offset="1" style="stop-color:#0665A5"/>
		</linearGradient>
		<path class="st0" d="M227.8,196.2l-19.8-2.5c-11.2-4.1-23.5-9.5-33-17.9c-23.1-20.3-31.9-41-30.5-45.7c1.4-4.6,33,0.2,54.7,15.7
			C219.5,160.5,226.1,186.5,227.8,196.2z"/>
		
			<linearGradient id="SVGID_2_" gradientUnits="userSpaceOnUse" x1="283.8134" y1="207.8805" x2="283.8134" y2="167.7302" gradientTransform="matrix(0.9984 -5.610000e-02 5.610000e-02 0.9984 -17.468 40.3122)">
			<stop  offset="0" style="stop-color:#2E33A0"/>
			<stop  offset="1" style="stop-color:#0665A5"/>
		</linearGradient>
		<path class="st1" d="M264.9,232.6c0,0-2.5-15.1,1.6-24.4c4.2-9.3,19.6-18.6,21.5-16.9C290.1,193.2,264.9,232.6,264.9,232.6z"/>
		
			<linearGradient id="SVGID_3_" gradientUnits="userSpaceOnUse" x1="398.1645" y1="276.9" x2="398.1645" y2="183.128" gradientTransform="matrix(0.8681 -0.4965 0.4965 0.8681 -276.2797 159.7981)">
			<stop  offset="0" style="stop-color:#313131"/>
			<stop  offset="1" style="stop-color:#365E8B"/>
		</linearGradient>
		<path class="st2" d="M144.4,130.2c0,0,44.7,18.2,58.4,32.9c13.7,14.7,20.8,29.8,20.8,29.8S169.3,192,144.4,130.2z"/>
		
			<linearGradient id="SVGID_4_" gradientUnits="userSpaceOnUse" x1="240.8986" y1="252.6907" x2="240.8986" y2="150.259" gradientTransform="matrix(0.9922 0.1246 -0.1246 0.9922 56.9326 -31.2002)">
			<stop  offset="0" style="stop-color:#1852A0"/>
			<stop  offset="1" style="stop-color:#067ED3"/>
		</linearGradient>
		<path class="st3" d="M284.3,228c-8.5,10.3-17,17.3-22.4,21.2l-4.4-0.6l1.4-1.4c0,0-12-10.8-11.1-35.7c0.9-24.9,28.5-67,36-62.6
			C291.3,153.2,298.4,210.9,284.3,228z"/>
		
			<linearGradient id="SVGID_5_" gradientUnits="userSpaceOnUse" x1="456.8252" y1="341.5171" x2="456.8252" y2="268.5681" gradientTransform="matrix(0.8681 -0.4965 0.4965 0.8681 -276.2797 159.7981)">
			<stop  offset="0" style="stop-color:#313131"/>
			<stop  offset="1" style="stop-color:#365E8B"/>
		</linearGradient>
		<path class="st4" d="M261.5,245.7c0,0,4.8-67.1,20.5-95.7C282,149.9,311.8,216.2,261.5,245.7z"/>
	</g>
	<path class="st5" d="M772,610c-10.1,20-21.9,36.7-35,48.7c-3.9,3.5-7.9,6.7-12,9.3c-3.9,2.5-7.9,4.7-12,6.4
		c-60.1,24.8-121.6-31.7-190.3-25C465,655,423.6,687,386.8,713.9c-13,9.5-25.4,18.4-37.7,25.2c-3.5,1.9-7,3.7-10.4,5.3
		c-3.7,1.7-7.7,3.2-11.9,4.7c0,0,0,0,0,0l0,0c-53.2,18.3-143.1,17.6-183-21.7C101.9,686.2,51.2,552.8,166,381
		c127.5-190.9,475.8-217.3,568.9-154.2C831.2,292.1,827.3,500.3,772,610z"/>
	<linearGradient id="SVGID_6_" gradientUnits="userSpaceOnUse" x1="305.3328" y1="701.4744" x2="305.3328" y2="647.3438">
		<stop  offset="0" style="stop-color:#836CEB"/>
		<stop  offset="1" style="stop-color:#C3A4EB"/>
	</linearGradient>
	<path class="st6" d="M316.7,647.3c0,0-27.5,14.4-23.2,54.1C293.5,701.5,323.4,686,316.7,647.3z"/>
	<path class="st7" d="M295.8,619.1c0,0,28-15,33.6-42.8c5.6-27.8-28.2-83.1-28.2-83.1l-45.6-73.2c0,0-27.1,24.4-32.6,49.5
		c-5.5,25.1,25.4,92.5,25.4,92.5L295.8,619.1z"/>
	<path class="st8" d="M233.4,468.2c0,0,25.7,3.7,42.8,20.8l2.3-7.8L264,451.7l-12.2,17.6C251.8,469.3,243.8,466.9,233.4,468.2z"/>
	<path class="st9" d="M190.4,247.3c0,0-6.3,7.6-3.7,26.1c0,0,73.6,178.6,112.2,250.3c4.5,8.3,14.3,12.1,23.1,8.9l258.9-91l-2.3-6.6
		l-264,88.7L190.4,247.3z"/>
	<path class="st10" d="M586.7,432.3l-265.1,94c-6.9,2.5-14.6-0.8-17.6-7.5L189,261.2c-3.4-7.5,0.2-16.8,8.2-19.1
		c73.4-21.3,129.1-37,185.7-50.9l0.6-0.1c34.1-8.4,68.5-16.2,107.3-24.1c5.2-1.1,10.3,1.6,13.3,6l0.1,0.1c0.5,0.8,1,1.7,1.4,2.6
		c11.7,28.8,46.6,115.1,71.8,185.4l0.1,0.3c7,19.6,13.3,37.9,18.1,53.4C597.7,422,593.8,429.7,586.7,432.3z"/>
	<linearGradient id="SVGID_7_" gradientUnits="userSpaceOnUse" x1="395.1957" y1="508.5005" x2="395.1957" y2="174.1241">
		<stop  offset="0" style="stop-color:#7DFFCF"/>
		<stop  offset="1" style="stop-color:#6FCAF4"/>
	</linearGradient>
	<path class="st11" d="M198.4,257.5l109.2,251L592,416.2l-98.5-242.1C398.5,195.7,301.9,221.4,198.4,257.5z"/>
	<path class="st12" d="M386,394.5l79.6-24.7c9.2-2.8,19,1.6,23,10.3l0,0c4.7,10.2-0.4,22.3-11.1,26L399,433.3
		c-9.3,3.2-19.5-1.1-23.6-10.1l-1.1-2.5C369.5,410.2,375,397.9,386,394.5z"/>
	<path class="st13" d="M385.8,392.2l78.8-24.5c9.1-2.8,18.8,1.5,22.8,10.2l0,0c4.7,10.1-0.4,22.1-11,25.7l-77.7,26.9
		c-9.2,3.2-19.3-1.1-23.4-10l-1.1-2.5C369.5,407.7,375,395.5,385.8,392.2z"/>
	<linearGradient id="SVGID_8_" gradientUnits="userSpaceOnUse" x1="390.4144" y1="399.9719" x2="390.4144" y2="228.4391">
		<stop  offset="0" style="stop-color:#B31A8F"/>
		<stop  offset="1" style="stop-color:#FE117E"/>
	</linearGradient>
	<polygon class="st14" points="265.8,289.3 468.9,228.4 515.1,335 314.9,400 	"/>
	<linearGradient id="SVGID_9_" gradientUnits="userSpaceOnUse" x1="197.2076" y1="264.0767" x2="577.4467" y2="264.0767">
		<stop  offset="0" style="stop-color:#6A9BFF"/>
		<stop  offset="1" style="stop-color:#000000"/>
	</linearGradient>
	<path class="st15" d="M577.4,361.4L197.2,242.1l185.7-50.9l0.6-0.1c34.1-8.4,68.5-16.2,107.3-24.1c5.2-1.1,10.3,1.6,13.3,6l0.1,0.1
		l73.2,188.1L577.4,361.4z"/>
	<linearGradient id="SVGID_10_" gradientUnits="userSpaceOnUse" x1="508.1238" y1="470.0486" x2="508.1238" y2="307.7987">
		<stop  offset="0" style="stop-color:#CCEDFF"/>
		<stop  offset="1" style="stop-color:#755CBB"/>
	</linearGradient>
	<path class="st16" d="M500.2,470l4.9-8.9c0,0-17.6-113.2-39.3-153.4l75.8,53.6l8.8,24.2l-10.8,41.7l-7.4,31.6L500.2,470z"/>
	<path class="st17" d="M550.4,390.1c0,0,2.2,16,4.9,29.9c2.7,13.8,13.9,30.2,21.5,31.6c7.6,1.4,12.6-8.9,12.6-8.9l-22.8-52.6H550.4z
		"/>
	<linearGradient id="SVGID_11_" gradientUnits="userSpaceOnUse" x1="607.4422" y1="657.6263" x2="607.4422" y2="270.9122">
		<stop  offset="1.598750e-02" style="stop-color:#FFC2A9"/>
		<stop  offset="1" style="stop-color:#FF9595"/>
	</linearGradient>
	<path class="st18" d="M754.5,601c-30.4-21.5-75.9-62.6-76.7-67.2c-2.4-13.3,12.4-131.1,7-146.9l0-0.1c-0.2-0.5-0.4-0.9-0.6-1.2
		c-7.2-8.4-30.3-21.9-40.9-22.8c-10.5-0.8-21.9,2.1-21.9,2.1c-7.2-1.7-24.1-0.8-24.1-0.8s-8.7-1.6-16.3-2.3
		c-5.9-0.6-16.5,0.2-16.5,0.2s-19-21.5-21.9-24.5c-3-2.9-12.2-12.2-24.9-23.2c-12.6-10.9-33.7-40.5-39.2-43c-5.5-2.5-20.3,6-20.7,13
		c-0.3,4.8,3.4,19,18.1,37.9c14.8,19,40.5,33.3,45.5,38.4c2.8,2.7,13.1,12.5,24.2,25.1c-3.2,5-6.7,13.4-10,22.4
		c-6.2,17.2-11.2,36.8-10.4,39.7c1.3,4.6,13.9,18.6,25.3,36.3c11.4,17.7,19.4,39.2,31.6,54c12.2,14.8,48.1,13,48.1,13
		c3.5,3.7,8.7,9.2,15.2,15.9l4.3,4.4l3.9,4.1l6.2,6.4l15.5,16.1l8.1,8.4c0.2,0.2,0.4,0.4,0.5,0.6c0.1,0.2,0.3,0.3,0.4,0.4
		c0,0,0.1,0.1,0.1,0.1l0.3,0.3c26.6,27.5,49.4,49.6,49.4,49.6C768.2,634.4,754.5,601,754.5,601z M555.9,444c0.8-1.7,1.6-3.4,2.3-5
		c4.6-10.7,7-21.4,8.1-27c1.9,2.8,3.6,5.5,5.2,8.3c11.4,19.9,17.1,48.9,19,61c0.6,3.5,0.8,5.6,0.8,5.6
		C569.9,479.4,555.9,444,555.9,444z"/>
	<path class="st19" d="M458.1,283.5c0,0,2.5,15.3,21.1,35.3c18.6,20,43.8,33.3,52.1,34.6c8.2,1.3,15.1-5.8,14.8-9.1
		c-0.3-3.2-44.9-41.1-56.5-58.4C489.5,285.9,473.9,262.9,458.1,283.5z"/>
	<linearGradient id="SVGID_12_" gradientUnits="userSpaceOnUse" x1="525.0649" y1="496.0813" x2="685.9429" y2="496.0813">
		<stop  offset="0" style="stop-color:#FF7C7C"/>
		<stop  offset="0.984" style="stop-color:#FF9E8B"/>
	</linearGradient>
	<path class="st20" d="M683.3,606.6l-8.1-8.4l-15.5-16.1l-6.2-6.4l-3.9-4.1l-4.3-4.4c-6.4-6.7-11.7-12.2-15.2-15.9
		c0,0-35.8,1.7-48.1-13c10.3-24.9-2.9-48-14.2-65.7c-11.4-17.7-41.4-19.9-42.7-24.6c-0.8-3,4.3-22.5,10.4-39.7l0.2-0.2l22.4,30.9
		c-0.7,1.7-3.2,3.9-1.7,8.2c0,0,22.3,49.8,43.7,57.1c0,0,24.9-17.5-4.1-85.6c-1.9-16.6,4.5-23.6,15.9-23.4c10,0.2,13.1-2,24.5-6.4
		c11.4-4.4,24,0.7,30-1.5c6-2.2,17.5-1.8,17.5-1.8l0.6,1.2l0,0.1c5.4,15.8-9.4,133.6-7,146.9c0,0-23.8,10.1-25.9,23.7
		C650,569.5,677,599.7,683.3,606.6z"/>
	<linearGradient id="SVGID_13_" gradientUnits="userSpaceOnUse" x1="286.3288" y1="720.448" x2="286.3288" y2="362.7824">
		<stop  offset="1.598750e-02" style="stop-color:#FFC2A9"/>
		<stop  offset="1" style="stop-color:#FF9595"/>
	</linearGradient>
	<path class="st21" d="M384.8,714.1c-14.3,13.7-74,1.1-74,1.1s-22.5-32.3-44.4-69.7c-8.9-15.2-17.8-31.2-25-46.2
		c-25-51.9-53.4-176.3-53.4-176.3c3.7-17.9,34.5-57.7,36.4-60.2l0.1-0.1l15.2,35l-0.7,2.1l-0.1,0.2c-4.4,11.5-19.5,36.4-20.1,40.6
		c-0.6,4.5,6.8,53,18.2,75c11.3,22,19.9,25.9,19.9,25.9c10.7-16.7,16.4-55.6,20.5-69.3c4.2-13.7,34.5-56.5,41.7-57.7
		c7.1-1.2,16.1,5.7,17.8,8c1,1.3,2.1,3.9,1.8,9c0,0,0,0,0,0v0.2c0,0.2,0,0.5-0.1,0.7c-0.3,4.2-1.6,9.8-4.7,17.5
		c-4.3,10.7-14.3,22.4-22.1,31.1c0,0,0,0-0.1,0.1l-0.2,0.2c-5.1,5.7-9.3,10.1-10.2,12c-2.4,4.8-2.4,16.7-2.4,16.7
		s13.1,35.1,11.9,70.2c-1.2,35.1-18.4,41.1-18.4,41.1c2.5,4.2,5.3,8.4,8.3,12.6C332.1,676.9,384.8,714.1,384.8,714.1z"/>
	<linearGradient id="SVGID_14_" gradientUnits="userSpaceOnUse" x1="340.1351" y1="749.0627" x2="340.1351" y2="647.3363">
		<stop  offset="0" style="stop-color:#CBC1F7"/>
		<stop  offset="1" style="stop-color:#E8DCF7"/>
	</linearGradient>
	<path class="st22" d="M386.8,713.9c-13,9.5-25.4,18.4-37.7,25.2c-3.5,1.9-7,3.7-10.4,5.3c-3.7,1.7-7.7,3.2-11.9,4.7c0,0,0,0,0,0
		l0,0c-6.5-8.1-20.6-26.3-29.4-41c-0.8-1.2-1.4-2.4-2.1-3.5c-0.6-1.1-1.2-2.1-1.7-3.1c0,0,18-11.5,23.2-54.1
		C316.7,647.3,358.4,692.2,386.8,713.9z"/>
	<linearGradient id="SVGID_15_" gradientUnits="userSpaceOnUse" x1="728.3318" y1="668.0288" x2="728.3318" y2="554.1539">
		<stop  offset="0" style="stop-color:#CBC1F7"/>
		<stop  offset="1" style="stop-color:#E8DCF7"/>
	</linearGradient>
	<path class="st23" d="M772,610c-10.1,20-21.9,36.7-35,48.7c-3.9,3.5-7.9,6.7-12,9.3c-6.5-6.8-25.3-27-39.6-49.7c0,0-0.9-6-0.7-15
		c0.3-13.5,3.1-33.5,15.3-49.2C700,554.2,749.2,597.1,772,610z"/>
	<path class="st19" d="M277.4,472.2c0,0,1.9,8.1,21.9,4.1c20.1-4,39.9-38.4,39.4-44.8c-0.6-6.4-21.3-14-21.3-14
		S282.2,451.7,277.4,472.2z"/>
	<path class="st8" d="M592,501.1c0,0-34.3-39.6-36-57.1c0,0,14,35.4,35.4,42.8C591.3,486.8,593,495.2,592,501.1z"/>
	<path class="st17" d="M539.7,390.7c3.7,15,8,25.7,20.6,43.2l8.2-19.2c0,0-15.2-21.2-25.6-32.3C542.8,382.3,539.2,388.5,539.7,390.7
		z"/>
	<linearGradient id="SVGID_16_" gradientUnits="userSpaceOnUse" x1="597.1381" y1="371.0057" x2="626.9574" y2="371.0057">
		<stop  offset="0" style="stop-color:#FF7C7C"/>
		<stop  offset="0.984" style="stop-color:#FF9E8B"/>
	</linearGradient>
	<path class="st24" d="M597.1,364.1c0,0,22.2,10.5,29.8,13.8c0,0-14.5-9.8-22.3-13.8H597.1z"/>
	<linearGradient id="SVGID_17_" gradientUnits="userSpaceOnUse" x1="621.268" y1="371.4047" x2="651.8305" y2="371.4047">
		<stop  offset="0" style="stop-color:#FF7C7C"/>
		<stop  offset="0.984" style="stop-color:#FF9E8B"/>
	</linearGradient>
	<path class="st25" d="M621.3,365c0,0,21.5,6.3,30.6,12.9C651.8,377.9,637.7,364.1,621.3,365z"/>
	<path class="st8" d="M534.3,411.9c0,0,18.1,12.8,21.6,32.1l4.4-10.1c0,0-16.8-26.4-19.5-38.8L534.3,411.9z"/>
	<path class="st8" d="M564.4,409l-4.1,9.1c0,0,10-1.2,13.3,6C573.6,424.1,566.6,412,564.4,409z"/>
	<path class="st26" d="M569.7,361.5c0,0,16.7,19.6,23.3,21.8c6.6,2.2,34-1.4,34.8-2.8c0.8-1.4-28.5-15.9-30.7-16.3
		C594.9,363.7,573.7,361,569.7,361.5z"/>
	<path class="st26" d="M604.6,364.1c0,0,23.2,13.6,26.4,14.2c3.2,0.7,17.7-0.5,17.7-0.5s-21.8-12.2-28.3-13
		C613.9,364.1,604.6,364.1,604.6,364.1z"/>
	<path class="st17" d="M630.1,551.3c0,0,6.6-3,11.7,2.9c5.1,5.9,11.7,21.5,11.7,21.5S637.9,559.9,630.1,551.3z"/>
	<path class="st27" d="M460.1,286.9c0,0,4.5,13.4,20.8,21.2c16.2,7.8,19.4-7.9,17.4-12.4c-1.9-4.6-18.9-19.8-18.9-19.8L460.1,286.9z
		"/>
	<path class="st28" d="M487.9,307.1c-1.1,0.1-2.3-0.1-3.5-0.3h-0.1c-8.5-1.9-19.8-11-23.2-16.6c-0.9-1.4-1.2-2.5-1-3.3
		c2.5-9.2,18.2-15.5,20.5-13.8c0.4,0.3,1,0.9,1.8,1.8c4.3,5,14.1,18,15.4,19.5c0.2,0.2,0.4,0.6,0.5,1.2
		C498.9,298.8,497,306.5,487.9,307.1z"/>
	<path class="st29" d="M487.9,307.1c-1.1,0.1-2.3-0.1-3.5-0.3h-0.1l0,0c0,0,4-12.8,13.9-11.1C498.9,298.8,497,306.5,487.9,307.1z"/>
	<path class="st29" d="M482.4,274.9c-16.2-0.5-20.9,15.1-20.9,15.1l-0.4,0.2c-0.9-1.4-1.2-2.5-1-3.3c2.5-9.2,18.2-15.5,20.5-13.8
		C481,273.3,481.6,274,482.4,274.9z"/>
	<path class="st27" d="M306.6,427.2c0,0-6.8,7-7.3,12.8c-0.5,5.8,7.5,11.4,18,7.9c10.5-3.5,13.9-16.5,13.9-16.5L306.6,427.2z"/>
	<path class="st28" d="M334.3,423.1c-0.1,0.5-0.3,1.4-0.8,2.7c-1.9,5.7-7.4,17.7-16,20.1c-0.1,0-0.2,0-0.3,0.1
		c-9.5,2.5-16.7-2.5-16.9-6.9c-0.1-0.4,0-0.7,0-1.1c1.1-5.3,8.4-14.3,14.5-18.9c0,0,0,0,0.1,0c0.8-0.6,1.6-1.1,2.3-1.6
		C323.8,413.7,334.7,420.4,334.3,423.1z"/>
	<path class="st29" d="M317.3,446c-9.5,2.5-16.7-2.5-16.9-6.9c1.7-1.4,5.2-3.6,10.3-2.6C315.8,437.4,317,442.9,317.3,446z"/>
	<path class="st29" d="M334.3,423.1c-0.1,0.5-0.3,1.4-0.8,2.7c-6.7-9.1-17.5-7-18.5-6.8c0.8-0.6,1.6-1.1,2.3-1.6
		C323.8,413.7,334.7,420.4,334.3,423.1z"/>
	<linearGradient id="SVGID_18_" gradientUnits="userSpaceOnUse" x1="187.896" y1="504.1417" x2="311.4497" y2="504.1417">
		<stop  offset="1.598750e-02" style="stop-color:#FF9E8B"/>
		<stop  offset="1" style="stop-color:#FF7C7C"/>
	</linearGradient>
	<path class="st30" d="M298.8,509.9c0,0,13.1,35.1,11.9,70.2c-1.2,35.1-18.4,41.1-18.4,41.1c2.5,4.2,5.3,8.4,8.3,12.6
		c-15.8-3.4-29.5,7.3-34.3,11.7c-8.9-15.2-17.8-31.2-25-46.2c-25-51.9-53.4-176.3-53.4-176.3c3.7-17.9,34.5-57.7,36.4-60.2l0.1-0.1
		l0.1,0.3l15.1,34.7l-0.7,2.1l-0.1,0.2c-4.4,11.5-19.5,36.4-20.1,40.6c-0.2,1.3,0.3,6.1,1.3,12.9l0,0c2.6,17.1,8.7,46.3,16.8,62
		c11.3,22,19.9,25.9,19.9,25.9s-4.6,12.7-4.5,15.4c1.3,31.6,30.4,37.6,41.1,18.8c7.4-13,4.1-84.2,4.1-84.2
		c5.3-2.8,12.2-8.8,13.9-10.2c-5.1,5.7-9.3,10.1-10.2,12C298.8,498.1,298.8,509.9,298.8,509.9z"/>
	<path class="st31" d="M237.8,517.2c0,0,8.6,27.5,14.9,34.7l7.8-17.3C260.5,534.6,246.7,534.6,237.8,517.2z"/>
	<path class="st32" d="M292.3,621.2c0,0-17.1-5.3-19.4,0c-2.2,5.3,34.6,21.6,34.6,21.6S293.6,624.4,292.3,621.2z"/>
	<linearGradient id="SVGID_19_" gradientUnits="userSpaceOnUse" x1="316.3721" y1="533.9985" x2="316.3721" y2="449.8576">
		<stop  offset="0" style="stop-color:#CCEDFF"/>
		<stop  offset="1" style="stop-color:#755CBB"/>
	</linearGradient>
	<path class="st33" d="M315,533.8l-3.6-6.7c0,0,10.8-53.9,22.5-77.2l-32.7,43.4l-2.4,16.7l6.5,20.9
		C305.3,530.8,308.1,534.9,315,533.8z"/>
	<path class="st34" d="M705.1,645.5c0,0-2.9-45.6,20.4-69.8c0,0-21.3,30.9-17.2,73.7L705.1,645.5z"/>
	<linearGradient id="SVGID_20_" gradientUnits="userSpaceOnUse" x1="684.6415" y1="635.6885" x2="736.9785" y2="635.6885">
		<stop  offset="0" style="stop-color:#9D68C2"/>
		<stop  offset="1" style="stop-color:#CCEDFF"/>
	</linearGradient>
	<path class="st35" d="M737,658.7c-3.9,3.5-7.9,6.7-12,9.3c-6.5-6.8-25.3-27-39.6-49.7c0,0-0.9-6-0.7-15c0,0,16.5,29.7,44.6,49.7
		C732.2,655.1,734.7,657,737,658.7z"/>
	<path class="st34" d="M311.4,729.2c0,0,15.9-1,24.4-18.7c8.5-17.7,5.7-37.6,5.7-37.6s3.5,24.7-3.2,39.8
		C331.7,727.9,311.4,729.2,311.4,729.2z"/>
	<linearGradient id="SVGID_21_" gradientUnits="userSpaceOnUse" x1="293.4604" y1="725.2499" x2="349.0628" y2="725.2499">
		<stop  offset="0" style="stop-color:#9D68C2"/>
		<stop  offset="1" style="stop-color:#CCEDFF"/>
	</linearGradient>
	<path class="st36" d="M349.1,739.1c-3.5,1.9-7,3.7-10.4,5.3c-3.7,1.7-7.7,3.2-11.9,4.7c-6.6-8.4-21.4-27.8-29.5-41
		c-0.8-1.2-1.4-2.4-2.1-3.5c-0.6-1.1-1.2-2.1-1.7-3.1C293.5,701.5,322.8,730.3,349.1,739.1z"/>
	
		<linearGradient id="SVGID_22_" gradientUnits="userSpaceOnUse" x1="267.7217" y1="262.3564" x2="277.35" y2="262.3564" gradientTransform="matrix(0.2388 0.9711 -0.9711 0.2388 521.6864 341.319)">
		<stop  offset="0" style="stop-color:#836CEB"/>
		<stop  offset="1" style="stop-color:#C3A4EB"/>
	</linearGradient>
	<path class="st37" d="M334.3,665.6c0,0-5.7-7.1-5.7,7.3C328.6,672.9,342.5,675.5,334.3,665.6z"/>
	<linearGradient id="SVGID_23_" gradientUnits="userSpaceOnUse" x1="326.4681" y1="668.3889" x2="339.9054" y2="668.3889">
		<stop  offset="0" style="stop-color:#B31A8F"/>
		<stop  offset="1" style="stop-color:#92117E"/>
	</linearGradient>
	<path class="st38" d="M328.6,661.3c0,0-1.4,0.2-2.1,1.4c0,0,4.3,9.5,11.4,12.8c0,0,1.9-1.8,2-2.9L328.6,661.3z"/>
	<linearGradient id="SVGID_24_" gradientUnits="userSpaceOnUse" x1="328.3804" y1="666.932" x2="340.1268" y2="666.932">
		<stop  offset="0" style="stop-color:#B31A8F"/>
		<stop  offset="1" style="stop-color:#FE117E"/>
	</linearGradient>
	<path class="st39" d="M335.8,665.3c3.1,3.1,4.9,6.4,4.1,7.2c-0.9,0.9-4.1-0.9-7.2-4.1c-3.1-3.1-4.9-6.4-4.1-7.2
		C329.5,660.4,332.7,662.2,335.8,665.3z"/>
	<path class="st40" d="M239.6,397.8l-0.7,2.1l-0.1,0.2c-4.4,11.5-19.5,36.4-20.1,40.6c-0.2,1.3,0.3,6.1,1.3,12.9l-5.2-10.1
		c-7.9-5.1-16-16.8-16.5-17.5c5.7,5.2,18.3,8.4,18.3,8.4s13.9-20.9,14.6-31.6c0.6-10.8-7-39.8-7-39.8l0.2,0.1L239.6,397.8z"/>
	<path class="st8" d="M564.4,362l31.8,33.3c0,0-11.1-25.3-26.4-33.8C569.7,361.5,567.1,361.2,564.4,362z"/>
	<path class="st41" d="M619.2,419.5c0,0,9.6,74.7,22.6,102.9C641.8,522.4,636.5,449.4,619.2,419.5z"/>
	<path class="st41" d="M653.5,402.9l8.7,83.9C662.2,486.8,663.1,427.6,653.5,402.9z"/>
	<path class="st8" d="M328.5,456.2c8.2-13,9.8-21.2,10.1-23.9c-0.3,4.2-1.6,9.8-4.7,17.5c-4.3,10.7-14.3,22.4-22.1,31.1
		c0,0,0,0-0.1,0.1l-0.2,0.2c-5.1,5.7-9.3,10.1-10.2,12c-2.4,4.8-2.4,16.7-2.4,16.7l-1.2-18.5C297.6,491.4,318.3,472.3,328.5,456.2z"
		/>
	<path class="st17" d="M472.7,318.2c0,0,22,25.7,50.5,41.7c0,0,26.3,25.1,37.1,43.7c0,0-21.2-27.5-38-40.8
		C522.2,362.8,486.7,340.7,472.7,318.2z"/>
	<path class="st13" d="M372.1,309.3l-3.3,13.5l32.2,22.4c0,0,2.8-49.3,10.8-90.2c0,0-9.1,12.8-21.4,65.5L372.1,309.3z"/>
	<g class="st42">
		<path class="st43" d="M318,287.1c3.6-2.2,7.6-3.6,11.8-3.9c0.7-0.1,1.4-0.1,2,0.1c1.2,0.4,2,1.7,2.3,3c0.7,3.1-0.9,6.5-3.6,8.2
			s-6.3,1.8-9.2,0.5c-1.6-0.7-3.1-1.9-3.7-3.5s-0.1-3.8,1.4-4.6c0.5,0.2,0.6,1,0.1,1.4L318,287.1z"/>
		<path class="st43" d="M369.6,279.9c0.6-1.6,2.1-2.8,3.8-3.1c1.1,1.3,1.7,3.1,1.2,4.8c-0.5,1.6-2.4,2.9-4,2.2
			c-1.6-0.6-1.9-3.3-0.4-4L369.6,279.9z"/>
		<path class="st43" d="M344.9,285.5c-0.2-0.8,0-1.6,0.5-2.3c0.3,0.2,0.6,0.4,0.8,0.7c0.2,0.3,0.3,0.7,0,1c-0.3,0.4-0.9,0.4-1.4,0.3
			c0.1,0.1,0.2,0.2,0.2,0.3L344.9,285.5z"/>
		<path class="st43" d="M341.7,286c-0.2,0-0.5,0.2-0.6,0.3c0.5,0.3,1.2,0.2,1.8,0c0.3-0.1,0.7-0.3,0.7-0.7c0-0.2-0.2-0.4-0.3-0.7
			c-0.2-0.5,0-1.1-0.4-1.3c-0.2-0.1-0.6,0-0.7,0.3c-0.2,0.2-0.2,0.5-0.2,0.8c-0.1,0.6-0.1,1.2-0.2,1.8L341.7,286z"/>
		<path class="st43" d="M380.9,276.5c0.3-0.4,1-0.1,1,0.4c0,0.5-0.3,0.9-0.7,1.3c-0.6-0.4-0.8-1.2-0.6-1.8L380.9,276.5z"/>
		<path class="st43" d="M343.3,311.9c0.2-0.2,0.4-0.3,0.6-0.4c0.2-0.1,0.5-0.1,0.7,0.1c0.3,0.3,0,0.8,0.1,1.2
			c0.1,0.4,0.5,0.7,0.5,1.1c0,0.4-0.6,0.6-0.9,0.4c-0.4-0.1-0.6-0.5-0.8-0.9c-0.2-0.3-0.3-0.7-0.3-1c0-0.4,0.3-0.7,0.6-0.8
			L343.3,311.9z"/>
		<path class="st43" d="M387.1,293.3c-0.1,0.2,0.1,0.5,0.3,0.6c0.2,0.1,0.5,0,0.7-0.1c0.1-0.1,0.2-0.1,0.3-0.3
			c0.2-0.3,0.1-0.7-0.2-0.8c-0.3-0.1-0.7,0-0.8,0.3c-0.1,0.3,0,0.7,0.2,0.8L387.1,293.3z"/>
		<path class="st43" d="M351,289.8c-0.5,0-0.8-0.7-0.4-1.1c0.3,0,0.5,0.1,0.7,0.3c0.2,0.2,0.3,0.5,0.1,0.7c-0.1,0.2-0.5,0.3-0.6,0
			L351,289.8z"/>
		<path class="st43" d="M340,287.7c-0.3-0.5-0.4-1.2-0.2-1.7c0.4,0.2,0.9,0.4,1.3,0.6c0.2,0.1,0.4,0.2,0.6,0.4
			c0.3,0.4,0,0.9-0.4,1.1C340.9,288.2,340.4,288,340,287.7L340,287.7z"/>
		<path class="st43" d="M318.1,310.8c-0.1,0.3-0.1,0.7,0.2,1c0.2,0.2,0.6,0.3,1,0.2c0.2-0.1,0.4-0.3,0.3-0.6
			c-0.1-0.1-0.1-0.1-0.2-0.2c-0.4-0.2-0.8-0.4-1.2-0.6C318.1,310.7,318,310.8,318.1,310.8L318.1,310.8z"/>
		<path class="st43" d="M326.3,310.5c0.2,0.4-0.2,0.8-0.5,1.1c-0.3,0.3-0.7,0.7-0.6,1.1c0,0.1,0.1,0.2,0.2,0.3
			c0.3,0.1,0.5-0.2,0.7-0.4c0.2-0.2,0.4-0.2,0.7-0.3c0.5-0.3,0.9-0.8,0.8-1.4c-0.2-0.3-0.5-0.4-0.8-0.3c-0.3,0.1-0.6,0.3-0.6,0.6
			L326.3,310.5z"/>
		<path class="st43" d="M330.5,311.5c0.2,0.1,0.3,0.1,0.5,0.2c0,0.3-0.2,0.6-0.4,0.6c-0.3,0.1-0.6-0.1-0.6-0.4
			C329.9,311.7,330.2,311.4,330.5,311.5L330.5,311.5z"/>
		<path class="st43" d="M380.6,291c0.2,0.1,0.3,0.1,0.5,0.2c0,0.3-0.2,0.6-0.4,0.6c-0.3,0.1-0.6-0.1-0.6-0.4
			C380,291.1,380.3,290.9,380.6,291L380.6,291z"/>
		<path class="st43" d="M347.6,288.4c0.1,0.3-0.3,0.5-0.7,0.5c-0.3-0.1-0.6-0.3-0.9-0.4c-0.3-0.1-0.7-0.1-1,0.1
			c-0.2,0.1-0.3,0.3-0.3,0.5c0,0.1,0.1,0.2,0.2,0.4c0.4,0.5,0.8,1,1.4,1.3c0.6,0.3,1.3,0.2,1.8-0.3c0.3-0.3,0.4-0.8,0.3-1.2
			C348.3,288.8,348,288.5,347.6,288.4L347.6,288.4z"/>
		<path class="st43" d="M343.6,280.7c-0.2-0.4,0-0.8,0.4-1c0.4-0.2,0.8-0.1,1.1,0.1c0.1,0.1,0.3,0.3,0.2,0.4
			c-0.1,0.1-0.2,0.2-0.3,0.2c-0.5,0.1-1,0.3-1.4,0.4L343.6,280.7z"/>
		<path class="st43" d="M362.5,278.2c0,0.8,1,1.5,1.7,1.2c-0.1-0.6-0.2-1.3-0.6-1.8c-0.4-0.5-1.3-0.6-1.7-0.1c0,0.4,0,0.7,0,1.1
			L362.5,278.2z"/>
		<path class="st43" d="M300.7,295.4c-0.2,0-0.3,0.2-0.3,0.4c0,0.2,0.2,0.3,0.3,0.5c0.1,0.1,0.2,0.2,0.4,0.2
			c0.3,0.1,0.6-0.1,0.7-0.4c0.1-0.3,0.1-0.6-0.1-0.8c-0.1-0.1-0.2-0.2-0.4-0.2s-0.3,0.1-0.3,0.2L300.7,295.4z"/>
		<path class="st43" d="M354,286.3c0.1-0.2,0.1-0.3,0.2-0.5c0.3,0.1,0.5,0.1,0.7,0.4s0,0.6-0.2,0.6c-0.1,0-0.2-0.1-0.3-0.1
			c-0.3-0.2-0.5-0.4-0.8-0.6L354,286.3z"/>
		<path class="st43" d="M363.3,285.8c0.2-0.3,0.5-0.7,0.9-0.9c0.4-0.2,0.9-0.3,1.2,0c0.2,0.1,0.3,0.3,0.3,0.5
			c0.1,0.6-0.3,1.3-0.9,1.4C364.1,286.9,363.4,286.4,363.3,285.8L363.3,285.8z"/>
		<path class="st43" d="M366,282.2c0.3-0.1,0.5-0.2,0.8-0.3c0.1,0.2,0.2,0.4,0.3,0.6c-0.3,0.3-0.9,0.3-1.1-0.1L366,282.2z"/>
		<path class="st43" d="M387.3,282.7c1.7-0.2,3.4,0,5,0.5c0.3,0.1,0.5,0.2,0.7,0.4c0.4,0.4,0.4,1,0.3,1.5c-0.3,1.2-1.4,2.2-2.7,2.4
			s-2.6-0.4-3.4-1.4c-0.5-0.5-0.8-1.2-0.8-1.9c0-0.7,0.6-1.4,1.3-1.4c0.2,0.2,0,0.5-0.2,0.5L387.3,282.7z"/>
		<path class="st43" d="M338.4,300.7c0.3-0.7,1-1.3,1.7-1.5c0.1,0.3,0.2,0.7,0.2,1c0,0.4-0.2,0.7-0.6,0.8c-0.5,0.1-0.9-0.2-1.3-0.6
			c0,0.1,0,0.3,0,0.4L338.4,300.7z"/>
		<path class="st43" d="M344.1,301.5c0.2-0.1,0.4-0.3,0.6-0.3c0.2,0,0.4,0.1,0.6,0.2c0.5,0.3,1,0.6,1.6,0.8c-0.9,0.3-1.9,0.6-2.8,1
			c-0.1,0-0.1,0.1-0.2,0.1c-0.2,0.2-0.1,0.5-0.1,0.8c-0.1,0.4-0.6,0.5-1,0.5C339.9,304.4,343.1,302.3,344.1,301.5z"/>
		<path class="st43" d="M332.8,308.6c-0.2,0-0.5,0.2-0.6,0.3c0.5,0.3,1.2,0.2,1.8,0c0.3-0.1,0.7-0.3,0.7-0.7c0-0.2-0.2-0.4-0.3-0.7
			c-0.2-0.5,0-1.1-0.4-1.3c-0.2-0.1-0.6,0-0.7,0.3c-0.2,0.2-0.2,0.5-0.2,0.8c-0.1,0.6-0.1,1.2-0.2,1.8L332.8,308.6z"/>
		<path class="st43" d="M342.6,310.3c-0.1,0.2,0.1,0.5,0.3,0.6c0.2,0.1,0.5,0,0.7-0.1c0.1-0.1,0.2-0.1,0.3-0.3
			c0.2-0.3,0.1-0.7-0.2-0.8c-0.3-0.1-0.7,0-0.8,0.3c-0.1,0.3,0,0.7,0.2,0.8L342.6,310.3z"/>
		<path class="st43" d="M340.7,307.8c-0.4-0.3-0.2-1.1,0.3-1.2c0.2,0.2,0.4,0.4,0.4,0.7c0,0.3-0.1,0.6-0.3,0.6
			c-0.2,0.1-0.6-0.1-0.5-0.4L340.7,307.8z"/>
		<path class="st43" d="M333.2,299.5c0-0.6,0.4-1.2,0.9-1.5c0.2,0.4,0.5,0.9,0.7,1.3c0.1,0.2,0.2,0.4,0.2,0.7c0,0.5-0.5,0.8-1,0.7
			C333.5,300.5,333.2,300,333.2,299.5L333.2,299.5z"/>
		<path class="st43" d="M304.2,304.5c0.2,0.1,0.3,0.1,0.5,0.2c0,0.3-0.2,0.6-0.4,0.6c-0.3,0.1-0.6-0.1-0.6-0.4
			C303.6,304.7,303.8,304.4,304.2,304.5L304.2,304.5z"/>
		<path class="st43" d="M338.8,304.7c-0.1,0.3-0.6,0.2-0.8,0c-0.2-0.2-0.3-0.6-0.5-0.9c-0.2-0.3-0.5-0.5-0.8-0.5
			c-0.2,0-0.4,0-0.5,0.2c-0.1,0.1-0.1,0.2-0.1,0.4c0,0.6,0,1.3,0.4,1.9c0.3,0.6,1,1,1.6,0.9c0.4-0.1,0.8-0.4,1-0.8
			c0.2-0.4,0.1-0.9-0.2-1.3L338.8,304.7z"/>
		<path class="st43" d="M340.2,296.1c0.1-0.4,0.5-0.7,0.9-0.6s0.7,0.4,0.8,0.8c0.1,0.2,0,0.4-0.1,0.5c-0.1,0.1-0.2,0-0.4,0
			c-0.5-0.2-0.9-0.4-1.4-0.5L340.2,296.1z"/>
		<path class="st43" d="M328.4,315.2c0,0.8,1,1.5,1.7,1.2c-0.1-0.6-0.2-1.3-0.6-1.8c-0.4-0.5-1.3-0.6-1.7-0.1c0,0.4,0,0.7,0,1.1
			L328.4,315.2z"/>
		<path class="st43" d="M345.2,306.9c0.1-0.1,0.3-0.2,0.4-0.3c0.2,0.2,0.3,0.4,0.3,0.7c0,0.3-0.4,0.5-0.6,0.3
			c-0.1-0.1-0.1-0.2-0.1-0.3c-0.1-0.3-0.2-0.6-0.3-0.9L345.2,306.9z"/>
		<path class="st43" d="M336.4,290.2c0.2-0.3,0.5-0.7,0.9-0.9c0.4-0.2,0.9-0.3,1.2,0c0.2,0.1,0.3,0.3,0.3,0.5
			c0.1,0.6-0.3,1.3-0.9,1.4C337.3,291.3,336.6,290.8,336.4,290.2L336.4,290.2z"/>
		<path class="st43" d="M354.2,278c0.4,0.1,0.6,0.6,0.7,1c0.1,0.4,0.2,0.9,0.6,1.1c0.1,0,0.2,0.1,0.3,0c0.3-0.2,0.1-0.5,0.1-0.9
			c0-0.2,0.1-0.5,0.1-0.7c0.1-0.6-0.2-1.2-0.7-1.5c-0.3,0-0.6,0.2-0.7,0.5s-0.1,0.6,0.1,0.9L354.2,278z"/>
		<path class="st43" d="M363.8,282.7c0.4,0.1,0.6,0.6,0.7,1c0.1,0.4,0.2,0.9,0.6,1.1c0.1,0,0.2,0.1,0.3,0c0.3-0.2,0.1-0.5,0.1-0.9
			c0-0.2,0.1-0.5,0.1-0.7c0.1-0.6-0.2-1.2-0.7-1.5c-0.3,0-0.6,0.2-0.7,0.5c-0.1,0.3-0.1,0.6,0.1,0.9L363.8,282.7z"/>
		<path class="st43" d="M371.2,279.7c0.3-0.2,0.7-0.3,1-0.3c0.1,0,0.1,0,0.2,0c0.1,0,0.2,0.1,0.2,0.3c0.1,0.3-0.1,0.5-0.3,0.7
			c-0.2,0.1-0.5,0.1-0.8,0c-0.1-0.1-0.3-0.2-0.3-0.3C371.1,279.9,371.1,279.7,371.2,279.7c0.1,0,0.1,0.1,0.1,0.1L371.2,279.7z"/>
		<path class="st43" d="M322.3,293.9c0.3-0.7,1-1.3,1.7-1.5c0.1,0.3,0.2,0.7,0.2,1c0,0.4-0.2,0.7-0.6,0.8c-0.5,0.1-0.9-0.2-1.3-0.6
			c0,0.1,0,0.3,0,0.4L322.3,293.9z"/>
		<path class="st43" d="M331,305.2c0.2-0.1,0.4-0.3,0.6-0.3c0.2,0,0.4,0.1,0.6,0.2c0.5,0.3,1,0.6,1.6,0.8c-0.9,0.3-1.9,0.6-2.8,1
			c-0.1,0-0.2,0.1-0.2,0.1c-0.2,0.2-0.1,0.5-0.1,0.8c-0.1,0.4-0.6,0.5-1,0.5C326.8,308.1,330,306,331,305.2z"/>
		<path class="st43" d="M323.3,315.7c0.3-0.1,0.5-0.2,0.8-0.3c0.2,0.5,0.1,1.2-0.4,1.6c-0.5,0.3-1.3,0-1.3-0.6
			c0-0.4,0.2-0.9-0.2-0.9L323.3,315.7z"/>
		<path class="st43" d="M309,302.9c-0.4,0.7,0.2,1.7,1,1.7c0.8,0,1.4-1,1.1-1.7C310.7,302.2,309.5,302.1,309,302.9L309,302.9z"/>
		<path class="st43" d="M316.3,304.5c-0.6,0.1-1.5,0.3-1.5,1c0,0.6,0.7,0.9,1.3,1.1c0.3,0.1,0.6,0.1,0.8-0.1
			c0.5-0.5-0.6-1.2-0.3-1.8c-0.1-0.2-0.4,0-0.3,0.1L316.3,304.5z"/>
		<path class="st43" d="M316.7,301.8c-0.2,0-0.5,0.2-0.6,0.3c0.5,0.3,1.2,0.2,1.8,0c0.3-0.1,0.7-0.3,0.7-0.7c0-0.2-0.2-0.4-0.3-0.7
			c-0.2-0.5,0-1.1-0.4-1.3c-0.2-0.1-0.6,0-0.7,0.3c-0.2,0.2-0.2,0.5-0.2,0.8c-0.1,0.6-0.1,1.2-0.2,1.8L316.7,301.8z"/>
		<path class="st43" d="M318.9,311c0.3-0.4,1-0.1,1,0.4c0,0.5-0.3,0.9-0.7,1.3c-0.6-0.4-0.8-1.2-0.6-1.8L318.9,311z"/>
		<path class="st43" d="M324.7,301c-0.4-0.3-0.2-1.1,0.3-1.2c0.2,0.2,0.4,0.4,0.4,0.7c0,0.3-0.1,0.6-0.3,0.6
			c-0.2,0.1-0.6-0.1-0.5-0.4L324.7,301z"/>
		<path class="st43" d="M334.8,292.4c-0.4-0.3-0.2-1.1,0.3-1.2c0.2,0.2,0.4,0.4,0.4,0.7c0,0.3-0.1,0.6-0.3,0.6
			c-0.2,0.1-0.6-0.1-0.5-0.4L334.8,292.4z"/>
		<path class="st43" d="M331.5,317.8c0-0.6,0.4-1.2,0.9-1.5c0.2,0.4,0.5,0.9,0.7,1.3c0.1,0.2,0.2,0.4,0.2,0.7c0,0.5-0.5,0.8-1,0.7
			C331.8,318.8,331.5,318.3,331.5,317.8L331.5,317.8z"/>
		<path class="st43" d="M320.1,303.5c-0.2-0.6,0.1-1.3,0.6-1.6c0.4,0.3,0.6,0.6,0.7,1.1c0.1,0.6-0.1,1.3-0.6,1.4
			c-0.5,0.2-1.2-0.5-0.9-1L320.1,303.5z"/>
		<path class="st43" d="M318.4,309.5c-0.2,0.3-0.1,0.8,0.2,1.1c0.4-0.2,0.8-0.4,1.2-0.5c0-0.6-0.7-1.1-1.3-0.9L318.4,309.5z"/>
		<path class="st43" d="M325.1,310.4c-0.1,0.3-0.1,0.7,0.2,1c0.2,0.2,0.6,0.3,1,0.2c0.2-0.1,0.4-0.3,0.3-0.6
			c-0.1-0.1-0.1-0.1-0.2-0.2c-0.4-0.2-0.8-0.4-1.2-0.6C325.1,310.3,325.1,310.4,325.1,310.4L325.1,310.4z"/>
		<path class="st43" d="M333.3,310.1c0.2,0.4-0.2,0.8-0.5,1.1c-0.3,0.3-0.7,0.7-0.6,1.1c0,0.1,0.1,0.2,0.2,0.3
			c0.3,0.1,0.5-0.2,0.7-0.4c0.2-0.2,0.4-0.2,0.7-0.3c0.5-0.3,0.9-0.8,0.8-1.4c-0.2-0.3-0.5-0.4-0.8-0.3c-0.3,0.1-0.6,0.3-0.6,0.6
			L333.3,310.1z"/>
		<path class="st43" d="M337.5,311.1c0.2,0.1,0.3,0.1,0.5,0.2c0,0.3-0.2,0.6-0.4,0.6c-0.3,0.1-0.6-0.1-0.6-0.4
			C336.9,311.2,337.2,311,337.5,311.1L337.5,311.1z"/>
		<path class="st43" d="M322.7,297.9c-0.1,0.3-0.6,0.2-0.8,0c-0.2-0.2-0.3-0.6-0.5-0.9c-0.2-0.3-0.5-0.5-0.8-0.5
			c-0.2,0-0.4,0-0.5,0.2c-0.1,0.1-0.1,0.2-0.1,0.4c0,0.6,0,1.3,0.4,1.9c0.3,0.6,1,1,1.6,0.9c0.4-0.1,0.8-0.4,1-0.8
			c0.2-0.4,0.1-0.9-0.2-1.3L322.7,297.9z"/>
		<path class="st43" d="M356.8,281.5c-0.1,0.3-0.6,0.2-0.8,0c-0.2-0.2-0.3-0.6-0.5-0.9c-0.2-0.3-0.5-0.5-0.8-0.5
			c-0.2,0-0.4,0-0.5,0.2c-0.1,0.1-0.1,0.2-0.1,0.4c0,0.6,0,1.3,0.4,1.9c0.3,0.6,1,1,1.6,0.9c0.4-0.1,0.8-0.4,1-0.8
			c0.2-0.4,0.1-0.9-0.2-1.3L356.8,281.5z"/>
		<path class="st43" d="M355.6,277.4c-0.1,0.3-0.6,0.2-0.8,0c-0.2-0.2-0.3-0.6-0.5-0.9c-0.2-0.3-0.5-0.5-0.8-0.5
			c-0.2,0-0.4,0-0.5,0.2c-0.1,0.1-0.1,0.2-0.1,0.4c0,0.6,0,1.3,0.4,1.9c0.3,0.6,1,1,1.6,0.9c0.4-0.1,0.8-0.4,1-0.8
			c0.2-0.4,0.1-0.9-0.2-1.3L355.6,277.4z"/>
		<path class="st43" d="M349.9,280.6c-0.1,0.3-0.6,0.2-0.8,0c-0.2-0.2-0.3-0.6-0.5-0.9c-0.2-0.3-0.5-0.5-0.8-0.5
			c-0.2,0-0.4,0-0.5,0.2c-0.1,0.1-0.1,0.2-0.1,0.4c0,0.6,0,1.3,0.4,1.9c0.3,0.6,1,1,1.6,0.9c0.4-0.1,0.8-0.4,1-0.8
			c0.2-0.4,0.1-0.9-0.2-1.3L349.9,280.6z"/>
		<path class="st43" d="M394.2,297.2c-0.1,0.3-0.6,0.2-0.8,0c-0.2-0.2-0.3-0.6-0.5-0.9c-0.2-0.3-0.5-0.5-0.8-0.5
			c-0.2,0-0.4,0-0.5,0.2c-0.1,0.1-0.1,0.2-0.1,0.4c0,0.6,0,1.3,0.4,1.9c0.3,0.6,1,1,1.6,0.9c0.4-0.1,0.8-0.4,1-0.8
			c0.2-0.4,0.1-0.9-0.2-1.3L394.2,297.2z"/>
		<path class="st43" d="M338.5,314.4c0.1-0.4,0.5-0.7,0.9-0.6c0.4,0.1,0.7,0.4,0.8,0.8c0.1,0.2,0,0.4-0.1,0.5c-0.1,0.1-0.2,0-0.4,0
			c-0.5-0.2-0.9-0.4-1.4-0.5L338.5,314.4z"/>
		<path class="st43" d="M312.3,308.4c0,0.8,1,1.5,1.7,1.2c-0.1-0.6-0.2-1.3-0.6-1.8c-0.4-0.5-1.3-0.6-1.7-0.1c0,0.4,0,0.7,0,1.1
			L312.3,308.4z"/>
		<path class="st43" d="M332.3,315.8c-0.2,0-0.3,0.2-0.3,0.4c0,0.2,0.2,0.3,0.3,0.5c0.1,0.1,0.2,0.2,0.4,0.2
			c0.3,0.1,0.6-0.1,0.7-0.4c0.1-0.3,0.1-0.6-0.1-0.8c-0.1-0.1-0.2-0.2-0.4-0.2c-0.1,0-0.3,0.1-0.3,0.2L332.3,315.8z"/>
		<path class="st43" d="M329.1,300.1c0.1-0.1,0.3-0.2,0.4-0.3c0.2,0.2,0.3,0.4,0.3,0.7c0,0.3-0.4,0.5-0.6,0.3
			c-0.1-0.1-0.1-0.2-0.1-0.3c-0.1-0.3-0.2-0.6-0.3-0.9L329.1,300.1z"/>
		<path class="st43" d="M363.3,301.6c0.2-0.3,0.5-0.7,0.9-0.9c0.4-0.2,0.9-0.3,1.2,0c0.2,0.1,0.3,0.3,0.3,0.5
			c0.1,0.6-0.3,1.3-0.9,1.4C364.1,302.7,363.4,302.2,363.3,301.6L363.3,301.6z"/>
		<path class="st43" d="M330.7,287c-0.6,0.2-0.8,1.1-0.3,1.4c0.3,0,0.7-0.1,1-0.2c0-0.4-0.2-0.7-0.5-1L330.7,287z"/>
		<path class="st43" d="M381.3,300c0.2-0.2,0.4-0.3,0.6-0.4s0.5-0.1,0.7,0.1c0.3,0.3,0,0.8,0.1,1.2c0.1,0.4,0.5,0.7,0.5,1.1
			c0,0.4-0.6,0.6-0.9,0.4c-0.4-0.1-0.6-0.5-0.8-0.9c-0.2-0.3-0.3-0.7-0.3-1c0-0.4,0.3-0.7,0.6-0.8L381.3,300z"/>
		<path class="st43" d="M348.6,285.5c-0.5-1.6,0-3.5,1.1-4.8c1.7,0.4,3.3,1.5,3.8,3.1c0.6,1.6-0.2,3.7-1.9,4.2
			c-1.7,0.4-3.5-1.5-2.7-3L348.6,285.5z"/>
		<path class="st43" d="M329.4,283.3c0,0.2,0.3,0.4,0.6,0.3s0.4-0.3,0.5-0.5c0.1-0.1,0.1-0.3,0.1-0.4c0-0.3-0.4-0.6-0.7-0.5
			c-0.3,0.1-0.5,0.4-0.5,0.7c0.1,0.3,0.4,0.6,0.7,0.5L329.4,283.3z"/>
		<path class="st43" d="M338.7,284.5c0.4,0.2,0.4,0.8,0.3,1.2c-0.1,0.4-0.2,0.9,0.2,1.2c0.1,0.1,0.2,0.1,0.3,0.1
			c0.3-0.1,0.3-0.5,0.3-0.8c0.1-0.2,0.2-0.4,0.3-0.6c0.3-0.5,0.2-1.2-0.2-1.6c-0.3-0.1-0.6,0-0.9,0.2c-0.2,0.2-0.3,0.6-0.2,0.9
			L338.7,284.5z"/>
		<path class="st43" d="M350.7,291.2c0.2,0,0.3-0.1,0.5-0.1c0.2,0.2,0.2,0.5,0,0.8c-0.2,0.2-0.5,0.3-0.7,0.1
			C350.3,291.7,350.4,291.3,350.7,291.2L350.7,291.2z"/>
		<path class="st43" d="M341.3,289.6c-0.2,0.1-0.1,0.4,0,0.5c0.1,0.1,0.3,0.2,0.5,0.2c0.2,0,0.3,0,0.4,0c0.3-0.1,0.4-0.4,0.4-0.7
			c-0.1-0.3-0.3-0.5-0.6-0.6c-0.1,0-0.3,0-0.4,0c-0.1,0.1-0.2,0.2-0.1,0.4L341.3,289.6z"/>
		<path class="st43" d="M393.4,294.1c0.6-1.6,2.1-2.8,3.8-3.1c1.1,1.3,1.7,3.1,1.2,4.8c-0.5,1.6-2.4,2.9-4,2.2
			c-1.6-0.6-1.9-3.3-0.4-4L393.4,294.1z"/>
		<path class="st43" d="M330.2,297.7c0.3-0.4,1-0.1,1,0.4c0,0.5-0.3,0.9-0.7,1.3c-0.6-0.4-0.8-1.2-0.6-1.8L330.2,297.7z"/>
		<path class="st43" d="M336.8,312.6c-0.1,0.3-0.6,0.2-0.8,0c-0.2-0.2-0.3-0.6-0.5-0.9c-0.2-0.3-0.5-0.5-0.8-0.5
			c-0.2,0-0.4,0-0.5,0.2c-0.1,0.1-0.1,0.2-0.1,0.4c0,0.6,0,1.3,0.4,1.9c0.3,0.6,1,1,1.6,0.9c0.4-0.1,0.8-0.4,1-0.8
			c0.2-0.4,0.1-0.9-0.2-1.3L336.8,312.6z"/>
		<path class="st43" d="M333.8,279.8c0.2,0,0.3-0.1,0.5-0.1c0.2,0.2,0.2,0.5,0,0.8c-0.2,0.2-0.5,0.3-0.7,0.1
			C333.4,280.3,333.4,279.9,333.8,279.8L333.8,279.8z"/>
		<path class="st43" d="M337.7,288c1.5-1,3.3-1.6,5.1-1.9c0.3,0,0.6-0.1,0.9,0c0.5,0.2,0.9,0.7,1,1.3c0.3,1.3-0.3,2.8-1.5,3.6
			s-2.7,0.9-4,0.3c-0.7-0.3-1.4-0.8-1.7-1.5c-0.3-0.7-0.1-1.6,0.6-2c0.2,0.1,0.3,0.4,0.1,0.6L337.7,288z"/>
		<path class="st43" d="M354.5,291c0.6-1.6,2.1-2.8,3.8-3.1c1.1,1.3,1.7,3.1,1.2,4.8c-0.5,1.6-2.4,2.9-4,2.2c-1.6-0.6-1.9-3.3-0.4-4
			L354.5,291z"/>
		<path class="st43" d="M369.5,282.9c0.3-0.7,1-1.3,1.7-1.5c0.1,0.3,0.2,0.7,0.2,1c0,0.4-0.2,0.7-0.6,0.8c-0.5,0.1-0.9-0.2-1.3-0.6
			c0,0.1,0,0.3,0,0.4L369.5,282.9z"/>
		<path class="st43" d="M375.2,283.7c0.2-0.1,0.4-0.3,0.6-0.3c0.2,0,0.4,0.1,0.6,0.2c0.5,0.3,1,0.6,1.6,0.8c-0.9,0.3-1.9,0.6-2.8,1
			c-0.1,0-0.2,0.1-0.2,0.1c-0.2,0.2-0.1,0.5-0.1,0.8c-0.1,0.4-0.6,0.5-1,0.5C371,286.6,374.3,284.5,375.2,283.7z"/>
		<path class="st43" d="M340.3,283.4c0.3-0.1,0.5-0.2,0.8-0.3c0.2,0.5,0.1,1.2-0.4,1.6c-0.5,0.3-1.3,0-1.3-0.6
			c0-0.4,0.2-0.9-0.2-0.9L340.3,283.4z"/>
		<path class="st43" d="M364,290.8c-0.2,0-0.5,0.2-0.6,0.3c0.5,0.3,1.2,0.2,1.8,0c0.3-0.1,0.7-0.3,0.7-0.7c0-0.2-0.2-0.4-0.3-0.7
			c-0.2-0.5,0-1.1-0.4-1.3c-0.2-0.1-0.6,0-0.7,0.3c-0.2,0.2-0.2,0.5-0.2,0.8c-0.1,0.6-0.1,1.2-0.2,1.8L364,290.8z"/>
		<path class="st43" d="M366.1,300c0.3-0.4,1-0.1,1,0.4c0,0.5-0.3,0.9-0.7,1.3c-0.6-0.4-0.8-1.2-0.6-1.8L366.1,300z"/>
		<path class="st43" d="M373.8,292.5c-0.1,0.2,0.1,0.5,0.3,0.6c0.2,0.1,0.5,0,0.7-0.1c0.1-0.1,0.2-0.1,0.3-0.3
			c0.2-0.3,0.1-0.7-0.2-0.8c-0.3-0.1-0.7,0-0.8,0.3c-0.1,0.3,0,0.7,0.2,0.8L373.8,292.5z"/>
		<path class="st43" d="M371.9,290c-0.4-0.3-0.2-1.1,0.3-1.2c0.2,0.2,0.4,0.4,0.4,0.7c0,0.3-0.1,0.6-0.3,0.6
			c-0.2,0.1-0.6-0.1-0.5-0.4L371.9,290z"/>
		<path class="st43" d="M364.3,281.7c0-0.6,0.4-1.2,0.9-1.5c0.2,0.4,0.5,0.9,0.7,1.3c0.1,0.2,0.2,0.4,0.2,0.7c0,0.5-0.5,0.8-1,0.7
			C364.7,282.7,364.4,282.2,364.3,281.7L364.3,281.7z"/>
		<path class="st43" d="M372.3,299.4c-0.1,0.3-0.1,0.7,0.2,1c0.2,0.2,0.6,0.3,1,0.2c0.2-0.1,0.4-0.3,0.3-0.6
			c-0.1-0.1-0.1-0.1-0.2-0.2c-0.4-0.2-0.8-0.4-1.2-0.6C372.3,299.3,372.3,299.4,372.3,299.4L372.3,299.4z"/>
		<path class="st43" d="M376.8,304.5c0.4,0.1,0.6,0.6,0.7,1c0.1,0.4,0.2,0.9,0.6,1.1c0.1,0,0.2,0.1,0.3,0c0.3-0.2,0.1-0.5,0.1-0.9
			c0-0.2,0.1-0.5,0.1-0.7c0.1-0.6-0.2-1.2-0.7-1.5c-0.3,0-0.6,0.2-0.7,0.5c-0.1,0.3-0.1,0.6,0.1,0.9L376.8,304.5z"/>
		<path class="st43" d="M380,301.6c0.1-0.1,0.3-0.2,0.4-0.3c0.2,0.1,0.4,0.4,0.3,0.7c-0.1,0.3-0.4,0.4-0.7,0.3
			C379.8,302.1,379.8,301.7,380,301.6L380,301.6z"/>
		<path class="st43" d="M370,286.9c-0.1,0.3-0.6,0.2-0.8,0c-0.2-0.2-0.3-0.6-0.5-0.9c-0.2-0.3-0.5-0.5-0.8-0.5c-0.2,0-0.4,0-0.5,0.2
			c-0.1,0.1-0.1,0.2-0.1,0.4c0,0.6,0,1.3,0.4,1.9c0.3,0.6,1,1,1.6,0.9c0.4-0.1,0.8-0.4,1-0.8c0.2-0.4,0.1-0.9-0.2-1.3L370,286.9z"/>
		<path class="st43" d="M371.4,278.3c0.1-0.4,0.5-0.7,0.9-0.6c0.4,0.1,0.7,0.4,0.8,0.8c0.1,0.2,0,0.4-0.1,0.5c-0.1,0.1-0.2,0-0.4,0
			c-0.5-0.2-0.9-0.4-1.4-0.5L371.4,278.3z"/>
		<path class="st43" d="M359.6,297.4c0,0.8,1,1.5,1.7,1.2c-0.1-0.6-0.2-1.3-0.6-1.8s-1.3-0.6-1.7-0.1c0,0.4,0,0.7,0,1.1L359.6,297.4
			z"/>
		<path class="st43" d="M376.3,289.1c0.1-0.1,0.3-0.2,0.4-0.3c0.2,0.2,0.3,0.4,0.3,0.7c0,0.3-0.4,0.5-0.6,0.3
			c-0.1-0.1-0.1-0.2-0.1-0.3c-0.1-0.3-0.2-0.6-0.3-0.9L376.3,289.1z"/>
		<path class="st43" d="M330.5,291c0.2-0.3,0.5-0.7,0.9-0.9c0.4-0.2,0.9-0.3,1.2,0c0.2,0.1,0.3,0.3,0.3,0.5c0.1,0.6-0.3,1.3-0.9,1.4
			C331.4,292.1,330.7,291.6,330.5,291L330.5,291z"/>
		<path class="st43" d="M351.2,305.7c0.3-0.1,0.5-0.2,0.8-0.3c0.1,0.2,0.2,0.4,0.3,0.6c-0.3,0.3-0.9,0.3-1.1-0.1L351.2,305.7z"/>
		<path class="st43" d="M309.2,298c-0.1,0.2,0.1,0.5,0.3,0.6c0.2,0.1,0.5,0,0.7-0.1c0.1-0.1,0.2-0.1,0.3-0.3
			c0.2-0.3,0.1-0.7-0.2-0.8c-0.3-0.1-0.7,0-0.8,0.3c-0.1,0.3,0,0.7,0.2,0.8L309.2,298z"/>
		<path class="st43" d="M354.9,299.6c0.3-0.1,0.5-0.2,0.8-0.3c0.1,0.2,0.2,0.4,0.3,0.6c-0.3,0.3-0.9,0.3-1.1-0.1L354.9,299.6z"/>
		<path class="st43" d="M399,284.6c0-0.3,0.5-0.4,0.8-0.2c0.3,0.2,0.4,0.5,0.7,0.7c0.3,0.2,0.6,0.3,0.9,0.2c0.2,0,0.4-0.1,0.4-0.3
			c0-0.1,0-0.3,0-0.4c-0.2-0.6-0.4-1.2-0.9-1.7c-0.5-0.4-1.2-0.6-1.8-0.4c-0.4,0.2-0.7,0.6-0.7,1.1c0,0.4,0.2,0.9,0.6,1.1L399,284.6
			z"/>
		<path class="st43" d="M338.6,292.3c-0.1,0.2-0.2,0.4-0.4,0.6c-0.2,0.2-0.5,0.2-0.7,0.1c-0.3-0.2-0.3-0.7-0.5-1.1
			c-0.2-0.3-0.7-0.5-0.8-0.9c-0.1-0.4,0.4-0.7,0.8-0.7c0.4,0,0.7,0.3,1,0.6c0.3,0.2,0.5,0.5,0.6,0.9c0.1,0.3,0,0.8-0.4,0.9
			L338.6,292.3z"/>
		<path class="st43" d="M356,285.4c-1.4,0.4-2.9,0.5-4.4,0.2c-0.2,0-0.5-0.1-0.7-0.2c-0.4-0.3-0.5-0.8-0.5-1.2
			c0.1-1.1,0.9-2.1,2-2.4c1.1-0.3,2.3,0,3.2,0.7c0.5,0.4,0.9,0.9,0.9,1.6s-0.3,1.3-0.9,1.4c-0.2-0.1-0.1-0.4,0.1-0.5L356,285.4z"/>
		<path class="st43" d="M350,276.5c0-0.2-0.1-0.5,0-0.7c0.1-0.2,0.3-0.3,0.5-0.4c0.5-0.3,1-0.6,1.5-1c-0.2,1-0.4,1.9-0.5,2.9
			c0,0.1,0,0.2,0,0.2c0.1,0.3,0.4,0.3,0.6,0.5c0.3,0.3,0.1,0.8-0.1,1.1C350.4,281.6,350.2,277.7,350,276.5z"/>
		<path class="st43" d="M356,285c0.1-0.1,0.3-0.2,0.4-0.3c0.2,0.1,0.4,0.4,0.3,0.7c-0.1,0.3-0.4,0.4-0.6,0.3
			C355.8,285.6,355.7,285.3,356,285L356,285z"/>
		<path class="st43" d="M354.6,277.2c-0.3-0.2-0.3-0.8-0.1-1.1c0.3-0.3,0.7-0.4,1.1-0.3c0.2,0,0.4,0.2,0.4,0.3
			c0,0.1-0.1,0.2-0.2,0.3c-0.4,0.3-0.8,0.6-1.2,0.9L354.6,277.2z"/>
		<path class="st43" d="M356.7,282.1c-0.5-0.6-0.7-1.5-0.4-2.3c0.4,0.1,0.7,0.1,1,0.3c0.3,0.2,0.5,0.6,0.4,0.9
			c-0.1,0.5-0.7,0.7-1.1,0.8c0.1,0.1,0.2,0.1,0.3,0.2L356.7,282.1z"/>
		<path class="st43" d="M359.6,284.3c-0.1,0.2-0.1,0.5,0,0.7c0.6-0.3,0.8-1,0.9-1.6c0.1-0.3,0.1-0.8-0.2-0.9
			c-0.2-0.1-0.5-0.1-0.7-0.1c-0.5-0.1-1-0.6-1.4-0.3c-0.2,0.2-0.3,0.5-0.1,0.7c0.1,0.2,0.3,0.4,0.6,0.6c0.5,0.4,1,0.7,1.4,1.1
			L359.6,284.3z"/>
		<path class="st43" d="M351.8,279.5c-0.5-0.3-0.8-0.9-0.9-1.5c0.5,0,1,0,1.5,0c0.2,0,0.5,0,0.7,0.1c0.4,0.2,0.4,0.9,0.1,1.2
			c-0.3,0.3-0.9,0.3-1.3,0.1L351.8,279.5z"/>
		<path class="st43" d="M359.2,277.1c0.2,0.3-0.1,0.6-0.4,0.7c-0.3,0.1-0.6,0-1,0c-0.3,0-0.7,0.2-0.8,0.5c-0.1,0.2-0.2,0.4-0.1,0.5
			c0.1,0.1,0.2,0.2,0.3,0.3c0.5,0.3,1.2,0.6,1.8,0.6c0.6,0,1.3-0.3,1.5-0.9c0.2-0.4,0.1-0.9-0.2-1.3c-0.3-0.3-0.8-0.5-1.2-0.4
			L359.2,277.1z"/>
		<path class="st43" d="M346.8,294.1c-0.2-0.4-0.4-0.8-0.4-1.2c0-0.4,0.2-0.9,0.6-1c0.2-0.1,0.4-0.1,0.6,0c0.6,0.2,1,0.9,0.8,1.5
			S347.4,294.3,346.8,294.1L346.8,294.1z"/>
		<path class="st43" d="M341.6,286.1c-0.5-0.6-0.7-1.5-0.4-2.3c0.4,0.1,0.7,0.1,1,0.3c0.3,0.2,0.5,0.6,0.4,0.9
			c-0.1,0.5-0.7,0.7-1.1,0.8c0.1,0.1,0.2,0.1,0.3,0.2L341.6,286.1z"/>
		<path class="st43" d="M361.1,284.6c0.4,0,0.6,0.5,0.7,1c0.1,0.4,0.2,0.9,0.6,1.1c0.1,0,0.2,0,0.3,0c0.2-0.2,0-0.6,0-0.9
			c0-0.2,0-0.5,0.1-0.7c0-0.6-0.3-1.2-0.8-1.4c-0.3,0-0.6,0.2-0.7,0.5s0,0.6,0.2,0.9L361.1,284.6z"/>
		<path class="st43" d="M333.1,302.6c0.2,0,0.3,0,0.5,0c0.1,0.2,0.1,0.6-0.1,0.7c-0.2,0.2-0.6,0.1-0.7-0.1
			C332.6,303,332.7,302.6,333.1,302.6L333.1,302.6z"/>
		<path class="st43" d="M350.3,283.3c0-0.2,0-0.3,0-0.5c0.3,0,0.6-0.1,0.8,0.1c0.2,0.1,0.3,0.6,0,0.6c-0.1,0-0.2,0-0.3,0
			c-0.3-0.1-0.6-0.1-0.9-0.2L350.3,283.3z"/>
		<path class="st43" d="M417,264.4c-0.4-1.7,0.2-3.5,1.4-4.7c1.6,0.5,3.2,1.7,3.6,3.3c0.5,1.6-0.4,3.7-2.1,4
			c-1.7,0.3-3.4-1.7-2.5-3.2L417,264.4z"/>
		<path class="st43" d="M434.3,271.5c0-0.5,0.8-0.6,1.1-0.2c0.3,0.4,0.2,1,0.1,1.5c-0.7,0-1.3-0.5-1.5-1.2L434.3,271.5z"/>
		<path class="st43" d="M439,266c0,0.2,0.3,0.4,0.5,0.3c0.2,0,0.4-0.2,0.5-0.4c0.1-0.1,0.1-0.3,0.1-0.4c0-0.3-0.3-0.6-0.6-0.6
			c-0.3,0-0.6,0.4-0.5,0.7c0,0.3,0.3,0.6,0.7,0.6L439,266z"/>
		<path class="st43" d="M403.2,279.5c-0.4,0.3-1.1-0.2-1-0.7c0.2-0.1,0.5-0.2,0.8-0.2c0.3,0,0.5,0.3,0.5,0.5c0,0.3-0.3,0.5-0.5,0.4
			L403.2,279.5z"/>
		<path class="st43" d="M432.3,267.6c0.2,0,0.3-0.1,0.5-0.1c0.2,0.2,0.2,0.6,0,0.8c-0.2,0.2-0.5,0.2-0.7,0
			C431.9,268.1,432,267.7,432.3,267.6L432.3,267.6z"/>
		<path class="st43" d="M410.1,266.8c0.4,0.7,1.6,0.7,2.1,0c-0.4-0.5-0.9-1-1.5-1.2c-0.6-0.2-1.4,0.2-1.5,0.8
			c0.2,0.3,0.4,0.6,0.6,0.9L410.1,266.8z"/>
		<path class="st43" d="M403.9,275c0-0.2-0.1-0.3-0.1-0.5c0.3-0.1,0.5-0.2,0.8-0.1c0.2,0.1,0.4,0.5,0.1,0.6c-0.1,0-0.2,0-0.3,0
			c-0.3,0-0.6,0-1-0.1L403.9,275z"/>
		<path class="st43" d="M415,272.8c0-0.4,0-0.9,0.2-1.3c0.2-0.4,0.6-0.7,1-0.7c0.2,0,0.4,0.1,0.6,0.3c0.5,0.4,0.5,1.3,0,1.7
			C416.3,273.3,415.4,273.2,415,272.8L415,272.8z"/>
		<path class="st43" d="M415.2,268.3c0.2-0.2,0.3-0.5,0.5-0.7c0.2,0.1,0.4,0.2,0.6,0.4c-0.1,0.4-0.6,0.7-1,0.6L415.2,268.3z"/>
		<path class="st43" d="M433.3,257c1.3-1.1,2.8-1.9,4.4-2.3c0.3-0.1,0.5-0.1,0.8-0.1c0.5,0.1,0.9,0.6,1.1,1c0.5,1.2,0,2.6-0.9,3.5
			c-1,0.8-2.4,1.1-3.6,0.7c-0.7-0.2-1.3-0.6-1.7-1.2c-0.3-0.6-0.3-1.5,0.3-1.9c0.2,0.1,0.3,0.4,0.1,0.5L433.3,257z"/>
		<path class="st43" d="M399.4,267.9c0.4-0.2,0.8,0.2,1.1,0.5c0.3,0.3,0.6,0.7,1.1,0.6c0.1,0,0.2-0.1,0.3-0.2
			c0.1-0.3-0.2-0.5-0.4-0.7c-0.2-0.2-0.2-0.4-0.3-0.7c-0.2-0.5-0.8-0.9-1.4-0.8c-0.3,0.2-0.4,0.5-0.4,0.8c0.1,0.3,0.3,0.6,0.6,0.6
			L399.4,267.9z"/>
		<path class="st43" d="M413.7,269.9c0.4-0.2,0.8,0.2,1.1,0.5c0.3,0.3,0.6,0.7,1.1,0.6c0.1,0,0.2-0.1,0.3-0.2
			c0.1-0.3-0.2-0.5-0.4-0.7c-0.2-0.2-0.2-0.4-0.3-0.7c-0.2-0.5-0.8-0.9-1.4-0.8c-0.3,0.2-0.4,0.5-0.4,0.8c0.1,0.3,0.3,0.6,0.6,0.6
			L413.7,269.9z"/>
		<path class="st43" d="M418.2,263.3c0.2-0.3,0.4-0.6,0.7-0.8c0,0,0.1-0.1,0.1-0.1c0.1,0,0.2,0,0.3,0.1c0.2,0.2,0.2,0.5,0.1,0.7
			c-0.1,0.2-0.4,0.4-0.6,0.4c-0.1,0-0.3,0-0.4-0.1C418.2,263.6,418.2,263.4,418.2,263.3c0.1-0.1,0.2,0,0.1,0L418.2,263.3z"/>
		<path class="st43" d="M407.2,272.7c0.1,0.3-0.4,0.5-0.7,0.4c-0.3-0.1-0.6-0.3-0.9-0.5c-0.3-0.1-0.7-0.1-1,0.1
			c-0.2,0.1-0.3,0.3-0.3,0.4c0,0.1,0.1,0.3,0.1,0.4c0.3,0.5,0.8,1.1,1.3,1.4c0.6,0.3,1.3,0.3,1.8-0.1c0.3-0.3,0.5-0.8,0.4-1.2
			C407.9,273.1,407.6,272.7,407.2,272.7L407.2,272.7z"/>
		<path class="st43" d="M400.3,266.7c0.1,0.3-0.4,0.5-0.7,0.4c-0.3-0.1-0.6-0.3-0.9-0.5c-0.3-0.1-0.7-0.1-1,0.1
			c-0.2,0.1-0.3,0.3-0.3,0.4c0,0.1,0.1,0.3,0.1,0.4c0.3,0.5,0.8,1.1,1.3,1.4c0.6,0.3,1.3,0.3,1.8-0.1c0.3-0.3,0.5-0.8,0.4-1.2
			C401,267.1,400.7,266.7,400.3,266.7L400.3,266.7z"/>
		<path class="st43" d="M397.3,272.4c0.1,0.3-0.4,0.5-0.7,0.4c-0.3-0.1-0.6-0.3-0.9-0.5c-0.3-0.1-0.7-0.1-1,0.1
			c-0.2,0.1-0.3,0.3-0.3,0.4c0,0.1,0.1,0.3,0.1,0.4c0.3,0.5,0.8,1.1,1.3,1.4c0.6,0.3,1.3,0.3,1.8-0.1c0.3-0.3,0.5-0.8,0.4-1.2
			C398,272.8,397.6,272.4,397.3,272.4L397.3,272.4z"/>
		<path class="st43" d="M447.1,265.4c0.1,0.3-0.4,0.5-0.7,0.4c-0.3-0.1-0.6-0.3-0.9-0.5c-0.3-0.1-0.7-0.1-1,0.1
			c-0.2,0.1-0.3,0.3-0.3,0.4c0,0.1,0.1,0.3,0.1,0.4c0.3,0.5,0.8,1.1,1.3,1.4c0.6,0.3,1.3,0.3,1.8-0.1c0.3-0.3,0.5-0.8,0.4-1.2
			C447.8,265.8,447.4,265.4,447.1,265.4L447.1,265.4z"/>
		<path class="st43" d="M423.6,286c0-0.4,0-0.9,0.2-1.3c0.2-0.4,0.6-0.7,1-0.7c0.2,0,0.4,0.1,0.6,0.3c0.5,0.4,0.5,1.3,0,1.7
			C424.9,286.5,424.1,286.4,423.6,286L423.6,286z"/>
		<path class="st43" d="M437.8,274.8c0.1-0.2,0.1-0.5,0.3-0.7c0.1-0.2,0.4-0.3,0.6-0.3c0.4,0.1,0.5,0.6,0.7,0.9
			c0.3,0.3,0.8,0.3,1,0.7c0.2,0.4-0.1,0.8-0.5,0.9c-0.4,0.1-0.8-0.1-1.1-0.3c-0.3-0.2-0.6-0.4-0.8-0.7c-0.2-0.3-0.2-0.8,0.1-1
			L437.8,274.8z"/>
		<path class="st43" d="M398.9,277.3c-1.3-1.1-2-2.9-1.7-4.6c1.6-0.6,3.5-0.6,4.9,0.5c1.4,1,1.9,3.2,0.7,4.5c-1.1,1.3-3.8,0.7-3.9-1
			L398.9,277.3z"/>
		<path class="st43" d="M403.8,280.9c0.1-0.1,0.2-0.3,0.3-0.4c0.3,0.1,0.5,0.3,0.4,0.6c0,0.3-0.3,0.5-0.6,0.4
			C403.7,281.5,403.5,281.1,403.8,280.9L403.8,280.9z"/>
		<path class="st43" d="M444.7,263.2c-0.4-1.7,0.2-3.5,1.4-4.7c1.6,0.5,3.2,1.7,3.6,3.3c0.5,1.6-0.4,3.7-2.1,4s-3.4-1.7-2.5-3.2
			L444.7,263.2z"/>
		<path class="st43" d="M410.4,282c-0.4-1.7,0.2-3.5,1.4-4.7c1.6,0.5,3.2,1.7,3.6,3.3c0.5,1.6-0.4,3.7-2.1,4
			c-1.7,0.3-3.4-1.7-2.5-3.2L410.4,282z"/>
		<path class="st43" d="M418.6,266.9c-0.1-0.8,0.1-1.6,0.6-2.2c0.3,0.2,0.6,0.4,0.7,0.8c0.2,0.3,0.2,0.7,0,1
			c-0.3,0.4-0.9,0.3-1.4,0.2c0.1,0.1,0.1,0.2,0.2,0.3L418.6,266.9z"/>
		<path class="st43" d="M423.8,264.5c0.1-0.2,0.1-0.4,0.3-0.6c0.2-0.1,0.4-0.1,0.6-0.1c0.6,0,1.2-0.1,1.8-0.2
			c-0.6,0.8-1.2,1.6-1.8,2.3c0,0.1-0.1,0.1-0.1,0.2c-0.1,0.3,0.2,0.5,0.3,0.7c0.1,0.4-0.2,0.7-0.6,0.9
			C421.8,269.2,423.5,265.7,423.8,264.5z"/>
		<path class="st43" d="M418.3,276.6c-0.2,0.2-0.3,0.4-0.3,0.6c0.6,0,1.1-0.5,1.5-1c0.2-0.3,0.4-0.7,0.2-0.9
			c-0.1-0.2-0.4-0.3-0.6-0.4c-0.4-0.3-0.6-0.9-1.1-0.9c-0.3,0-0.4,0.3-0.5,0.6c0,0.3,0.1,0.5,0.2,0.8c0.3,0.5,0.5,1.1,0.8,1.6
			L418.3,276.6z"/>
		<path class="st43" d="M425.1,283.1c0-0.5,0.8-0.6,1.1-0.2c0.3,0.4,0.2,1,0.1,1.5c-0.7,0-1.3-0.5-1.5-1.2L425.1,283.1z"/>
		<path class="st43" d="M427.4,272.7c0,0.2,0.3,0.4,0.5,0.3c0.2,0,0.4-0.2,0.5-0.4c0.1-0.1,0.1-0.3,0.1-0.4c0-0.3-0.3-0.6-0.6-0.6
			c-0.3,0-0.6,0.4-0.5,0.7c0,0.3,0.3,0.6,0.7,0.6L427.4,272.7z"/>
		<path class="st43" d="M424.4,271.6c-0.5-0.1-0.7-0.8-0.4-1.1c0.3,0,0.5,0.1,0.7,0.3c0.2,0.2,0.2,0.5,0.1,0.7
			c-0.2,0.2-0.5,0.2-0.6,0L424.4,271.6z"/>
		<path class="st43" d="M413.5,268.8c-0.3-0.5-0.3-1.2-0.1-1.7c0.4,0.2,0.9,0.5,1.3,0.7c0.2,0.1,0.4,0.2,0.5,0.4
			c0.2,0.4,0,0.9-0.5,1.1C414.4,269.4,413.9,269.2,413.5,268.8L413.5,268.8z"/>
		<path class="st43" d="M429.9,279.2c0.1,0.3,0.3,0.6,0.7,0.7c0.3,0.1,0.7-0.1,0.9-0.4c0.1-0.2,0.2-0.5-0.1-0.6c-0.1,0-0.2,0-0.3,0
			c-0.4,0-0.9,0.1-1.3,0.1C429.9,279.1,429.9,279.2,429.9,279.2L429.9,279.2z"/>
		<path class="st43" d="M436.6,281c0.4-0.2,0.8,0.2,1.1,0.5c0.3,0.3,0.6,0.7,1.1,0.6c0.1,0,0.2-0.1,0.3-0.2c0.1-0.3-0.2-0.5-0.4-0.7
			c-0.2-0.2-0.2-0.4-0.3-0.7c-0.2-0.5-0.8-0.9-1.4-0.8c-0.3,0.2-0.4,0.5-0.4,0.8c0.1,0.3,0.3,0.6,0.6,0.6L436.6,281z"/>
		<path class="st43" d="M437.6,276.8c0.1-0.2,0.1-0.3,0.2-0.5c0.3,0,0.6,0.2,0.6,0.4c0.1,0.3-0.1,0.6-0.4,0.6
			C437.7,277.4,437.5,277.1,437.6,276.8L437.6,276.8z"/>
		<path class="st43" d="M421.1,270c0.1,0.3-0.4,0.5-0.7,0.4c-0.3-0.1-0.6-0.3-0.9-0.5c-0.3-0.1-0.7-0.1-1,0.1
			c-0.2,0.1-0.3,0.3-0.3,0.4c0,0.1,0.1,0.3,0.1,0.4c0.3,0.5,0.8,1.1,1.3,1.4c0.6,0.3,1.3,0.3,1.8-0.1c0.3-0.3,0.5-0.8,0.4-1.2
			C421.8,270.4,421.5,270.1,421.1,270L421.1,270z"/>
		<path class="st43" d="M417.6,262.1c-0.2-0.4,0.1-0.8,0.4-1c0.4-0.2,0.8,0,1.1,0.2c0.1,0.1,0.3,0.3,0.2,0.5
			c-0.1,0.1-0.2,0.1-0.3,0.2c-0.5,0.1-1,0.2-1.5,0.3L417.6,262.1z"/>
		<path class="st43" d="M418.2,284.5c0.4,0.7,1.6,0.7,2.1,0c-0.4-0.5-0.9-1-1.5-1.2c-0.6-0.2-1.4,0.2-1.5,0.8
			c0.2,0.3,0.4,0.6,0.6,0.9L418.2,284.5z"/>
		<path class="st43" d="M427.7,268.3c0.1-0.2,0.1-0.3,0.2-0.5c0.3,0.1,0.5,0.2,0.7,0.4c0.1,0.2,0,0.6-0.3,0.6
			c-0.1,0-0.2-0.1-0.3-0.1c-0.2-0.2-0.5-0.4-0.7-0.6L427.7,268.3z"/>
		<path class="st43" d="M415.5,288.9c0.2-0.2,0.3-0.5,0.5-0.7c0.2,0.1,0.4,0.2,0.6,0.4c-0.1,0.4-0.6,0.7-1,0.6L415.5,288.9z"/>
		<path class="st43" d="M452.5,278.2c-0.1-0.3,0.2-0.6,0.5-0.6c0.3,0,0.6,0.2,1,0.2c0.3,0,0.7-0.1,0.9-0.3c0.1-0.1,0.2-0.3,0.2-0.5
			c0-0.1-0.1-0.2-0.2-0.3c-0.5-0.4-1-0.8-1.7-0.9c-0.6-0.1-1.4,0.1-1.7,0.7c-0.2,0.4-0.2,0.9,0,1.3c0.2,0.4,0.7,0.6,1.1,0.6
			L452.5,278.2z"/>
		<path class="st43" d="M408.6,276.5c-1,1.1-2.2,2-3.6,2.6c-0.2,0.1-0.5,0.2-0.7,0.2c-0.5,0-0.8-0.4-1.1-0.8c-0.6-1-0.4-2.3,0.4-3.2
			c0.7-0.9,1.9-1.3,3-1.1c0.6,0.1,1.2,0.3,1.6,0.8c0.4,0.5,0.4,1.3,0,1.7c-0.2,0-0.3-0.3-0.2-0.4L408.6,276.5z"/>
		<path class="st43" d="M395.1,269c-0.2-0.2-0.3-0.3-0.3-0.6c0-0.2,0.1-0.4,0.2-0.6c0.3-0.5,0.5-1.1,0.7-1.6
			c0.4,0.9,0.8,1.8,1.1,2.7c0,0.1,0.1,0.1,0.1,0.2c0.2,0.2,0.5,0,0.8,0.1c0.4,0.1,0.5,0.6,0.5,1C398.2,273,396,269.9,395.1,269z"/>
		<path class="st43" d="M408.5,276.1c0.1-0.2,0.1-0.3,0.2-0.5c0.3,0,0.6,0.1,0.7,0.4c0.1,0.3-0.1,0.6-0.4,0.6
			C408.6,276.7,408.4,276.5,408.5,276.1L408.5,276.1z"/>
		<path class="st43" d="M399.3,267c-0.4,0-0.7-0.5-0.7-0.9c0-0.4,0.4-0.7,0.7-0.9c0.2-0.1,0.4-0.1,0.5,0.1c0.1,0.1,0,0.2,0,0.4
			c-0.2,0.5-0.3,0.9-0.5,1.4L399.3,267z"/>
		<path class="st43" d="M407.5,273.3c-0.8-0.3-1.4-0.9-1.6-1.6c0.3-0.1,0.7-0.3,1-0.3c0.4,0,0.7,0.2,0.9,0.5
			c0.2,0.5-0.2,0.9-0.5,1.3c0.1,0,0.3,0,0.4,0L407.5,273.3z"/>
		<path class="st43" d="M411.1,273.5c0.1,0.2,0.2,0.4,0.4,0.6c0.3-0.5,0.1-1.2-0.1-1.8c-0.1-0.3-0.4-0.7-0.7-0.7
			c-0.2,0-0.4,0.2-0.6,0.3c-0.4,0.2-1.1,0-1.3,0.5c-0.1,0.3,0.1,0.6,0.3,0.7c0.2,0.1,0.5,0.2,0.8,0.2c0.6,0,1.2,0.1,1.8,0.1
			L411.1,273.5z"/>
		<path class="st43" d="M398.3,270.4c-0.6,0-1.2-0.3-1.6-0.8c0.4-0.3,0.8-0.5,1.3-0.8c0.2-0.1,0.4-0.2,0.6-0.3
			c0.5,0,0.8,0.5,0.7,0.9C399.2,270,398.8,270.3,398.3,270.4L398.3,270.4z"/>
		<path class="st43" d="M406.8,267.8c0.3,0.1,0.3,0.6,0,0.8c-0.2,0.2-0.6,0.3-0.8,0.5c-0.3,0.2-0.4,0.5-0.4,0.9
			c0,0.2,0.1,0.4,0.2,0.5c0.1,0.1,0.3,0.1,0.4,0.1c0.6,0,1.3-0.1,1.8-0.5c0.5-0.4,0.9-1,0.8-1.6c-0.1-0.4-0.4-0.8-0.9-0.9
			c-0.4-0.1-0.9,0-1.2,0.3L406.8,267.8z"/>
		<path class="st43" d="M412.5,273c0.4-0.2,0.8,0.1,1.1,0.4s0.7,0.6,1.1,0.5c0.1,0,0.2-0.1,0.3-0.2c0.1-0.3-0.3-0.5-0.5-0.7
			c-0.2-0.2-0.2-0.4-0.3-0.6c-0.3-0.5-0.9-0.8-1.5-0.7c-0.2,0.2-0.4,0.5-0.3,0.8c0.1,0.3,0.3,0.5,0.6,0.6L412.5,273z"/>
		<path class="st43" d="M399.1,274.4c-0.1-0.1-0.2-0.3-0.3-0.4c0.2-0.2,0.4-0.4,0.7-0.4c0.3,0,0.5,0.3,0.4,0.5
			c-0.1,0.1-0.2,0.1-0.3,0.2c-0.3,0.1-0.6,0.2-0.9,0.3L399.1,274.4z"/>
	</g>
	<g class="st42">
		<path class="st29" d="M733.8,587.9c0.6-1.5,0.3-3.4-0.7-4.7c-1.6,0.3-3.2,1.1-3.9,2.6s-0.1,3.6,1.4,4.1c1.5,0.6,3.5-1.2,2.8-2.7
			L733.8,587.9z"/>
		<path class="st29" d="M748,607.6c0.6-0.4,1-1.2,1.1-1.9c-0.3,0-0.7-0.1-1,0c-0.3,0.1-0.6,0.4-0.7,0.7c0,0.5,0.4,0.8,0.8,1.1
			c-0.1,0-0.3,0.1-0.4,0.1L748,607.6z"/>
		<path class="st29" d="M749.9,609.9c0.1,0.2,0.2,0.4,0.2,0.6c-0.6-0.1-1-0.6-1.3-1.2c-0.2-0.3-0.3-0.7-0.1-0.9
			c0.2-0.2,0.4-0.2,0.6-0.3c0.4-0.2,0.7-0.8,1.1-0.7c0.3,0.1,0.4,0.4,0.3,0.6c0,0.3-0.2,0.5-0.3,0.7c-0.3,0.5-0.7,0.9-1,1.4
			L749.9,609.9z"/>
		<path class="st29" d="M727.9,578.2c0.1-0.5-0.7-0.7-1-0.3c-0.3,0.3-0.3,0.9-0.3,1.4c0.7,0.1,1.3-0.3,1.6-0.9L727.9,578.2z"/>
		<path class="st29" d="M732.3,627.5c0-0.2,0-0.5-0.1-0.7c-0.1-0.2-0.3-0.4-0.6-0.3c-0.4,0.1-0.5,0.5-0.8,0.8
			c-0.3,0.2-0.8,0.2-1,0.5c-0.2,0.3,0,0.8,0.4,0.9c0.4,0.1,0.8,0,1.1-0.1c0.3-0.1,0.7-0.3,0.9-0.5c0.2-0.3,0.3-0.7,0-0.9
			L732.3,627.5z"/>
		<path class="st29" d="M712.8,586.3c-0.1,0.2-0.3,0.3-0.6,0.2c-0.2-0.1-0.4-0.3-0.4-0.5c0-0.1-0.1-0.3-0.1-0.4
			c0-0.3,0.4-0.5,0.7-0.4c0.3,0.1,0.5,0.4,0.4,0.7c-0.1,0.3-0.4,0.5-0.7,0.5L712.8,586.3z"/>
		<path class="st29" d="M740.9,606.8c0.4,0.3,1,0,1-0.5c-0.2-0.1-0.4-0.3-0.7-0.2c-0.2,0-0.5,0.2-0.5,0.4c0,0.2,0.2,0.5,0.4,0.4
			L740.9,606.8z"/>
		<path class="st29" d="M750.1,612.3c0.6-0.2,1-0.6,1.2-1.1c-0.5-0.1-0.9-0.3-1.4-0.4c-0.2-0.1-0.4-0.1-0.7-0.1
			c-0.4,0.1-0.6,0.7-0.4,1C749.1,612.1,749.6,612.3,750.1,612.3L750.1,612.3z"/>
		<path class="st29" d="M718.9,588.8c-0.1-0.1-0.3-0.1-0.4-0.2c-0.2,0.2-0.2,0.5-0.1,0.7c0.1,0.2,0.5,0.3,0.7,0.1
			C719.2,589.3,719.2,588.9,718.9,588.8L718.9,588.8z"/>
		<path class="st29" d="M744.1,608c-0.3,0.2-0.1,0.6,0.2,0.8c0.3,0.2,0.6,0.2,0.9,0.3c0.3,0.1,0.5,0.4,0.6,0.7
			c0.1,0.2,0.1,0.4-0.1,0.5c-0.1,0.1-0.2,0.1-0.3,0.2c-0.6,0.1-1.2,0.2-1.8,0c-0.6-0.2-1.1-0.7-1.1-1.3c0-0.4,0.2-0.9,0.6-1.1
			c0.4-0.2,0.8-0.2,1.2,0L744.1,608z"/>
		<path class="st29" d="M751.9,605c0.4-0.1,0.5-0.6,0.4-1c-0.1-0.4-0.5-0.6-0.9-0.6c-0.2,0-0.4,0-0.4,0.2c0,0.1,0,0.2,0.1,0.3
			c0.3,0.4,0.5,0.8,0.8,1.2L751.9,605z"/>
		<path class="st29" d="M740,591.1c-0.5,0.6-1.6,0.5-2-0.3c0.5-0.4,1-0.8,1.6-0.9c0.6-0.1,1.3,0.4,1.3,1c-0.2,0.3-0.5,0.5-0.7,0.8
			L740,591.1z"/>
		<path class="st29" d="M740.9,602.4c0.1-0.2,0.1-0.3,0.2-0.5c-0.2-0.1-0.5-0.2-0.7-0.2c-0.2,0.1-0.4,0.4-0.2,0.6
			c0.1,0.1,0.2,0.1,0.3,0.1c0.3,0,0.6,0.1,0.9,0.1L740.9,602.4z"/>
		<path class="st29" d="M734.6,596.1c0-0.4,0.1-0.8,0-1.2c-0.1-0.4-0.4-0.8-0.8-0.8c-0.2,0-0.4,0.1-0.6,0.2
			c-0.5,0.4-0.6,1.1-0.2,1.6C733.3,596.4,734.1,596.5,734.6,596.1L734.6,596.1z"/>
		<path class="st29" d="M735,591.8c-0.1-0.2-0.2-0.5-0.4-0.7c-0.2,0-0.4,0.1-0.6,0.3c0,0.4,0.5,0.7,0.9,0.7L735,591.8z"/>
		<path class="st29" d="M719.4,578.6c-1.1-1.2-2.4-2.2-3.9-2.8c-0.2-0.1-0.5-0.2-0.7-0.2c-0.5,0-0.9,0.4-1.2,0.8
			c-0.6,1.1-0.4,2.5,0.4,3.4c0.8,0.9,2.1,1.4,3.3,1.2c0.7-0.1,1.3-0.3,1.8-0.9c0.4-0.5,0.5-1.4,0-1.8c-0.2,0-0.3,0.3-0.2,0.5
			L719.4,578.6z"/>
		<path class="st29" d="M733.8,626.8c-0.1,0.2-0.3,0.3-0.6,0.2c-0.2-0.1-0.4-0.3-0.4-0.5c0-0.1-0.1-0.3-0.1-0.4
			c0-0.3,0.4-0.5,0.7-0.4s0.5,0.4,0.4,0.7c-0.1,0.3-0.4,0.5-0.7,0.5L733.8,626.8z"/>
		<path class="st29" d="M736.8,626.2c0.5,0,0.8-0.7,0.5-1c-0.2,0-0.5,0.1-0.7,0.2c-0.2,0.2-0.3,0.4-0.2,0.7c0.1,0.2,0.5,0.3,0.6,0.1
			L736.8,626.2z"/>
		<path class="st29" d="M744.5,618.2c0.2-0.3,0.1-0.8-0.3-1c-0.3-0.2-0.8-0.2-1.1,0c-0.1,0.1-0.3,0.3-0.2,0.4c0,0.1,0.2,0.2,0.3,0.2
			c0.4,0.2,0.9,0.3,1.3,0.5L744.5,618.2z"/>
		<path class="st29" d="M734.1,622.7c0-0.2-0.1-0.3-0.1-0.5c-0.3,0-0.5,0.1-0.7,0.3c-0.2,0.2-0.1,0.6,0.2,0.6c0.1,0,0.2-0.1,0.3-0.1
			c0.3-0.2,0.5-0.3,0.8-0.5L734.1,622.7z"/>
		<path class="st29" d="M751,616.3c0-0.4,0.1-0.8,0-1.2c-0.1-0.4-0.4-0.8-0.9-0.8c-0.2,0-0.4,0.1-0.6,0.2c-0.5,0.4-0.6,1.1-0.2,1.6
			C749.7,616.6,750.5,616.7,751,616.3L751,616.3z"/>
		<path class="st29" d="M746.1,596.3c-0.4-0.2-0.8,0-1.1,0.3c-0.3,0.3-0.7,0.6-1.1,0.4c-0.1,0-0.2-0.1-0.2-0.2
			c-0.1-0.3,0.3-0.4,0.5-0.6c0.2-0.2,0.2-0.4,0.4-0.6c0.3-0.5,0.9-0.7,1.5-0.6c0.2,0.2,0.3,0.5,0.2,0.8s-0.4,0.5-0.7,0.5
			L746.1,596.3z"/>
		<path class="st29" d="M736.2,593.6c-0.4-0.2-0.8,0-1.1,0.3c-0.3,0.3-0.7,0.6-1.1,0.4c-0.1,0-0.2-0.1-0.2-0.2
			c-0.1-0.3,0.3-0.4,0.5-0.6c0.2-0.2,0.2-0.4,0.4-0.6c0.3-0.5,0.9-0.7,1.5-0.6c0.2,0.2,0.3,0.5,0.2,0.8c-0.1,0.3-0.4,0.5-0.7,0.5
			L736.2,593.6z"/>
		<path class="st29" d="M732.8,586.7c-0.1-0.3-0.3-0.6-0.5-0.9c0,0-0.1-0.1-0.1-0.1c-0.1,0-0.2,0-0.3,0.1c-0.2,0.2-0.3,0.5-0.2,0.7
			c0.1,0.2,0.3,0.4,0.5,0.5c0.1,0,0.3,0,0.4,0C732.8,586.9,732.8,586.8,732.8,586.7c-0.1-0.1-0.1,0-0.1,0L732.8,586.7z"/>
		<path class="st29" d="M750.8,619c0.5,0,0.8-0.7,0.5-1c-0.2,0-0.5,0.1-0.7,0.2c-0.2,0.2-0.3,0.4-0.2,0.7c0.1,0.2,0.5,0.3,0.6,0.1
			L750.8,619z"/>
		<path class="st29" d="M737,639.3c0.4-0.5,0.5-1.1,0.3-1.6c-0.4,0.2-0.9,0.3-1.3,0.5c-0.2,0.1-0.4,0.2-0.6,0.3
			c-0.3,0.3-0.1,0.9,0.3,1.1C736.1,639.8,736.6,639.6,737,639.3L737,639.3z"/>
		<path class="st29" d="M737,630.6c-0.1-0.1-0.3-0.1-0.4-0.2c-0.2,0.2-0.2,0.5-0.1,0.7c0.1,0.2,0.5,0.3,0.7,0.1
			S737.3,630.7,737,630.6L737,630.6z"/>
		<path class="st29" d="M742,597.1c-0.1,0.3,0.3,0.5,0.6,0.5c0.3,0,0.6-0.2,0.9-0.3c0.3-0.1,0.7,0,0.9,0.2c0.2,0.1,0.3,0.3,0.3,0.5
			c0,0.1-0.1,0.2-0.2,0.3c-0.4,0.5-0.9,0.9-1.4,1.1c-0.6,0.2-1.3,0.1-1.7-0.4c-0.3-0.3-0.3-0.8-0.2-1.2
			C741.2,597.4,741.6,597.1,742,597.1L742,597.1z"/>
		<path class="st29" d="M745.4,595c-0.1,0.3,0.3,0.5,0.6,0.5c0.3,0,0.6-0.2,0.9-0.3c0.3-0.1,0.7,0,0.9,0.2c0.2,0.1,0.3,0.3,0.3,0.5
			c0,0.1-0.1,0.2-0.2,0.3c-0.4,0.5-0.9,0.9-1.4,1.1c-0.6,0.2-1.3,0.1-1.7-0.4c-0.3-0.3-0.3-0.8-0.2-1.2
			C744.7,595.3,745.1,595,745.4,595L745.4,595z"/>
		<path class="st29" d="M747.5,600.9c-0.1,0.3,0.3,0.5,0.6,0.5c0.3,0,0.6-0.2,0.9-0.3c0.3-0.1,0.7,0,0.9,0.2
			c0.2,0.1,0.3,0.3,0.3,0.5c0,0.1-0.1,0.2-0.2,0.3c-0.4,0.5-0.9,0.9-1.4,1.1c-0.6,0.2-1.3,0.1-1.7-0.4c-0.3-0.3-0.3-0.8-0.2-1.2
			C746.8,601.1,747.2,600.8,747.5,600.9L747.5,600.9z"/>
		<path class="st29" d="M705.2,584.6c-0.1,0.3,0.3,0.5,0.6,0.5c0.3,0,0.6-0.2,0.9-0.3c0.3-0.1,0.7,0,0.9,0.2
			c0.2,0.1,0.3,0.3,0.3,0.5c0,0.1-0.1,0.2-0.2,0.3c-0.4,0.5-0.9,0.9-1.4,1.1c-0.6,0.2-1.3,0.1-1.7-0.4c-0.3-0.3-0.3-0.8-0.2-1.2
			C704.5,584.9,704.9,584.6,705.2,584.6L705.2,584.6z"/>
		<path class="st29" d="M734.1,632.4c0.2-0.3,0.1-0.8-0.3-1c-0.3-0.2-0.8-0.2-1.1,0c-0.1,0.1-0.3,0.3-0.2,0.4c0,0.1,0.2,0.2,0.3,0.2
			c0.4,0.2,0.9,0.3,1.3,0.5L734.1,632.4z"/>
		<path class="st29" d="M737.7,637.3c0.1,0.1,0.1,0.4,0,0.5s-0.3,0.1-0.5,0.1c-0.1,0-0.3,0-0.4-0.1c-0.3-0.1-0.4-0.5-0.3-0.7
			c0.1-0.3,0.3-0.5,0.6-0.5c0.1,0,0.3,0,0.4,0.1c0.1,0.1,0.2,0.3,0.1,0.4L737.7,637.3z"/>
		<path class="st29" d="M724.5,607.4c0-0.4,0.1-0.8,0-1.2c-0.1-0.4-0.4-0.8-0.8-0.8c-0.2,0-0.4,0.1-0.6,0.2
			c-0.5,0.4-0.6,1.1-0.2,1.6C723.2,607.7,724,607.8,724.5,607.4L724.5,607.4z"/>
		<path class="st29" d="M757.2,617.7c0.3,0.5-0.1,1.3-0.7,1.2c-0.2-0.2-0.5-0.5-0.6-0.8c0.3-0.2,0.6-0.4,1-0.4L757.2,617.7z"/>
		<path class="st29" d="M712.7,594.8c0-0.2,0-0.5-0.1-0.7c-0.1-0.2-0.3-0.4-0.6-0.3c-0.4,0.1-0.5,0.5-0.8,0.8
			c-0.3,0.2-0.8,0.2-1,0.5c-0.2,0.3,0,0.8,0.4,0.9c0.4,0.1,0.8,0,1.1-0.1c0.3-0.1,0.7-0.3,0.9-0.5c0.2-0.3,0.3-0.7,0-0.9
			L712.7,594.8z"/>
		<path class="st29" d="M733.3,608.5c1.4-0.9,2.3-2.5,2.2-4.2c-1.5-0.8-3.3-1-4.7-0.2c-1.4,0.8-2.2,2.8-1.3,4.2
			c0.9,1.4,3.5,1.2,3.9-0.4L733.3,608.5z"/>
		<path class="st29" d="M760.5,615.9c-0.2,0.1-0.5,0-0.6-0.1c-0.1-0.2-0.1-0.4-0.1-0.7c0-0.1,0.1-0.3,0.2-0.3c0.2-0.2,0.6-0.2,0.8,0
			s0.1,0.6-0.1,0.8c-0.2,0.2-0.6,0.2-0.8,0L760.5,615.9z"/>
		<path class="st29" d="M753.1,610.8c-0.4-0.1-0.7,0.3-1,0.7s-0.5,0.8-0.9,0.8c-0.1,0-0.2,0-0.3-0.1c-0.2-0.2,0.1-0.5,0.3-0.8
			c0.1-0.2,0.1-0.5,0.2-0.7c0.1-0.5,0.6-1,1.2-1c0.3,0.1,0.5,0.4,0.5,0.7c0,0.3-0.2,0.6-0.4,0.7L753.1,610.8z"/>
		<path class="st29" d="M740.2,608c-0.1-0.1-0.2-0.3-0.3-0.4c-0.3,0-0.5,0.3-0.5,0.5c0,0.3,0.2,0.5,0.5,0.5
			C740.1,608.6,740.3,608.2,740.2,608L740.2,608z"/>
		<path class="st29" d="M747.9,612.8c0,0.2-0.1,0.3-0.3,0.4c-0.2,0-0.3-0.1-0.5-0.2c-0.1-0.1-0.2-0.2-0.3-0.3
			c-0.1-0.3,0-0.6,0.2-0.8c0.2-0.2,0.6-0.2,0.8-0.1c0.1,0.1,0.2,0.2,0.3,0.3c0,0.1,0,0.3-0.2,0.3L747.9,612.8z"/>
		<path class="st29" d="M707.8,582.9c0.6-1.5,0.3-3.4-0.7-4.7c-1.6,0.3-3.2,1.1-3.9,2.6c-0.7,1.5-0.1,3.6,1.4,4.1
			c1.5,0.6,3.5-1.2,2.8-2.7L707.8,582.9z"/>
		<path class="st29" d="M759.5,610.6c-0.1-0.1-0.2-0.3-0.3-0.4c-0.3,0-0.5,0.3-0.5,0.5c0,0.3,0.2,0.5,0.5,0.5
			C759.5,611.2,759.7,610.9,759.5,610.6L759.5,610.6z"/>
		<path class="st29" d="M756.4,629.8c-0.5-1.7-1.3-3.3-2.4-4.6c-0.2-0.2-0.4-0.4-0.6-0.5c-0.5-0.2-1.1,0-1.5,0.3
			c-1.1,0.7-1.6,2.2-1.3,3.5c0.3,1.3,1.4,2.3,2.6,2.8c0.7,0.2,1.5,0.3,2.1,0c0.7-0.3,1.1-1.1,0.9-1.8c-0.2-0.1-0.5,0.1-0.4,0.4
			L756.4,629.8z"/>
		<path class="st29" d="M768,610.9c0.6-1.5,0.3-3.4-0.7-4.7c-1.6,0.3-3.2,1.1-3.9,2.6c-0.7,1.5-0.1,3.6,1.4,4.1
			c1.5,0.6,3.5-1.2,2.8-2.7L768,610.9z"/>
		<path class="st29" d="M732,590.1c0.3-0.7,0.1-1.6-0.3-2.2c-0.3,0.2-0.6,0.3-0.8,0.6s-0.3,0.7-0.1,1c0.2,0.4,0.8,0.4,1.3,0.4
			c-0.1,0.1-0.2,0.2-0.3,0.3L732,590.1z"/>
		<path class="st29" d="M727.4,587c0-0.2-0.1-0.4-0.2-0.6c-0.1-0.1-0.4-0.2-0.6-0.2c-0.6-0.1-1.1-0.3-1.6-0.5
			c0.5,0.8,0.9,1.6,1.4,2.5c0,0.1,0.1,0.1,0.1,0.2c0,0.3-0.3,0.4-0.4,0.6c-0.2,0.3,0.1,0.7,0.4,1C728.6,591.8,727.5,588.2,727.4,587
			z"/>
		<path class="st29" d="M752.5,609c-0.1-0.2-0.2-0.5-0.4-0.7c-0.5,0.3-0.8,0.8-0.7,1.4c0.1,0.5,0.9,0.8,1.3,0.4
			c0.2-0.3,0.5-0.8,0.7-0.5L752.5,609z"/>
		<path class="st29" d="M730.9,599.3c0.1,0.2,0.2,0.4,0.2,0.6c-0.6-0.1-1-0.6-1.3-1.2c-0.2-0.3-0.3-0.7-0.1-0.9
			c0.2-0.2,0.4-0.2,0.6-0.3c0.4-0.2,0.7-0.8,1.1-0.7c0.3,0.1,0.4,0.4,0.3,0.6c0,0.3-0.2,0.5-0.3,0.7c-0.3,0.5-0.7,0.9-1,1.4
			L730.9,599.3z"/>
		<path class="st29" d="M723.5,604.5c0.1-0.5-0.7-0.7-1-0.3c-0.3,0.3-0.3,0.9-0.3,1.4c0.7,0.1,1.3-0.3,1.6-0.9L723.5,604.5z"/>
		<path class="st29" d="M722.8,594.2c-0.1,0.2-0.3,0.3-0.6,0.2c-0.2-0.1-0.4-0.3-0.4-0.5c0-0.1-0.1-0.3-0.1-0.4
			c0-0.3,0.4-0.5,0.7-0.4c0.3,0.1,0.5,0.4,0.4,0.7c-0.1,0.3-0.4,0.5-0.7,0.5L722.8,594.2z"/>
		<path class="st29" d="M725.8,593.6c0.5,0,0.8-0.7,0.5-1c-0.2,0-0.5,0.1-0.7,0.2c-0.2,0.2-0.3,0.4-0.2,0.7c0.1,0.2,0.5,0.3,0.6,0.1
			L725.8,593.6z"/>
		<path class="st29" d="M736.5,592.5c0.4-0.5,0.5-1.1,0.3-1.6c-0.4,0.2-0.9,0.3-1.3,0.5c-0.2,0.1-0.4,0.2-0.6,0.3
			c-0.3,0.3-0.1,0.9,0.3,1.1C735.6,593,736.1,592.9,736.5,592.5L736.5,592.5z"/>
		<path class="st29" d="M719.5,600.1c-0.1,0.3-0.4,0.6-0.7,0.6c-0.3,0-0.7-0.2-0.8-0.5c-0.1-0.2-0.1-0.5,0.1-0.6c0.1,0,0.2,0,0.3,0
			c0.4,0.1,0.8,0.2,1.2,0.3C719.5,600,719.5,600.1,719.5,600.1L719.5,600.1z"/>
		<path class="st29" d="M713,600.9c-0.4-0.2-0.8,0-1.1,0.3c-0.3,0.3-0.7,0.6-1.1,0.4c-0.1,0-0.2-0.1-0.2-0.2
			c-0.1-0.3,0.3-0.4,0.5-0.6c0.2-0.2,0.2-0.4,0.4-0.6c0.3-0.5,0.9-0.7,1.5-0.6c0.2,0.2,0.3,0.5,0.2,0.8c-0.1,0.3-0.4,0.5-0.7,0.5
			L713,600.9z"/>
		<path class="st29" d="M712.6,596.7c0-0.2-0.1-0.3-0.1-0.5c-0.3-0.1-0.6,0.1-0.7,0.3s0,0.6,0.3,0.6
			C712.4,597.3,712.7,597,712.6,596.7L712.6,596.7z"/>
		<path class="st29" d="M729.1,592.6c-0.1,0.3,0.3,0.5,0.6,0.5c0.3,0,0.6-0.2,0.9-0.3c0.3-0.1,0.7,0,0.9,0.2
			c0.2,0.1,0.3,0.3,0.3,0.5c0,0.1-0.1,0.2-0.2,0.3c-0.4,0.5-0.9,0.9-1.4,1.1c-0.6,0.2-1.3,0.1-1.7-0.4c-0.3-0.3-0.3-0.8-0.2-1.2
			C728.4,592.9,728.8,592.6,729.1,592.6L729.1,592.6z"/>
		<path class="st29" d="M733.6,585.6c0.2-0.3,0.1-0.8-0.3-1c-0.3-0.2-0.8-0.2-1.1,0c-0.1,0.1-0.3,0.3-0.2,0.4c0,0.1,0.2,0.2,0.3,0.2
			c0.4,0.2,0.9,0.3,1.3,0.5L733.6,585.6z"/>
		<path class="st29" d="M729.9,606.8c-0.5,0.6-1.6,0.5-2-0.3c0.5-0.4,1-0.8,1.6-0.9c0.6-0.1,1.3,0.4,1.3,1c-0.2,0.3-0.5,0.5-0.7,0.8
			L729.9,606.8z"/>
		<path class="st29" d="M723.2,590.1c0-0.2-0.1-0.3-0.1-0.5c-0.3,0-0.5,0.1-0.7,0.3c-0.2,0.2-0.1,0.6,0.2,0.6c0.1,0,0.2-0.1,0.3-0.1
			c0.3-0.2,0.5-0.3,0.8-0.5L723.2,590.1z"/>
		<path class="st29" d="M730.6,618c-0.1-0.2-0.2-0.5-0.4-0.7c-0.2,0-0.4,0.1-0.6,0.3c0,0.4,0.5,0.7,0.9,0.7L730.6,618z"/>
		<path class="st29" d="M731.8,611.3c-0.1-0.2-0.2-0.5-0.4-0.7c-0.2,0-0.4,0.1-0.6,0.3c0,0.4,0.5,0.7,0.9,0.7L731.8,611.3z"/>
		<path class="st29" d="M709.8,572.5c0.2-0.3-0.1-0.6-0.4-0.7c-0.3-0.1-0.6,0.1-0.9,0c-0.3,0-0.6-0.2-0.8-0.4
			c-0.1-0.2-0.2-0.4-0.1-0.5c0.1-0.1,0.2-0.2,0.3-0.3c0.5-0.3,1.1-0.6,1.7-0.6c0.6,0,1.3,0.3,1.5,0.9c0.2,0.4,0.1,0.9-0.2,1.2
			c-0.3,0.3-0.7,0.5-1.1,0.4L709.8,572.5z"/>
		<path class="st29" d="M748.2,616.5c-0.1,0.2-0.1,0.5-0.1,0.7c0,0.2,0.2,0.5,0.4,0.5c0.4,0.1,0.7-0.4,1-0.5
			c0.4-0.1,0.8,0.1,1.1-0.2c0.3-0.2,0.2-0.8-0.1-1c-0.3-0.2-0.7-0.2-1.1-0.2c-0.3,0-0.7,0.1-1,0.2c-0.3,0.2-0.5,0.6-0.3,0.9
			L748.2,616.5z"/>
		<path class="st29" d="M740.1,600.5c0.8,1.2,1.8,2.2,3,2.9c0.2,0.1,0.4,0.2,0.6,0.3c0.4,0.1,0.9-0.2,1.1-0.6c0.7-0.8,0.7-2.1,0.1-3
			c-0.6-0.9-1.6-1.5-2.7-1.5c-0.6,0-1.2,0.1-1.7,0.5c-0.4,0.4-0.6,1.1-0.2,1.6c0.2,0,0.3-0.2,0.2-0.4L740.1,600.5z"/>
		<path class="st29" d="M750,597.9c0.2-0.1,0.4-0.3,0.4-0.5c0.1-0.2,0-0.4-0.1-0.6c-0.2-0.5-0.3-1.1-0.4-1.6c-0.5,0.8-1,1.6-1.5,2.4
			c0,0.1-0.1,0.1-0.1,0.2c-0.2,0.2-0.5,0-0.8,0c-0.4,0-0.6,0.5-0.6,0.8C746.5,601.3,749.1,598.6,750,597.9z"/>
		<path class="st29" d="M740.3,600.2c0-0.2-0.1-0.3-0.1-0.5c-0.3-0.1-0.6,0-0.7,0.3c-0.1,0.2,0,0.6,0.2,0.7
			C740,600.7,740.3,600.5,740.3,600.2L740.3,600.2z"/>
		<path class="st29" d="M746.3,595.5c0.4,0,0.7-0.3,0.7-0.7c0-0.4-0.2-0.8-0.6-0.9c-0.2-0.1-0.4-0.1-0.5,0c-0.1,0.1-0.1,0.2,0,0.3
			c0.1,0.5,0.2,0.9,0.2,1.4L746.3,595.5z"/>
		<path class="st29" d="M741.6,597.6c0.7-0.1,1.4-0.7,1.8-1.3c-0.3-0.2-0.6-0.4-0.9-0.4c-0.3,0-0.7,0.1-0.9,0.4
			c-0.2,0.4,0,0.9,0.3,1.3c-0.1,0-0.3-0.1-0.4-0.1L741.6,597.6z"/>
		<path class="st29" d="M738.2,597.4c-0.1,0.2-0.3,0.4-0.4,0.5c-0.2-0.6,0.1-1.2,0.4-1.7c0.2-0.3,0.4-0.6,0.8-0.5
			c0.2,0,0.4,0.3,0.6,0.4c0.4,0.2,1.1,0.2,1.2,0.6c0.1,0.3-0.1,0.5-0.4,0.6c-0.2,0.1-0.5,0.1-0.8,0.1c-0.6-0.1-1.1-0.1-1.7-0.2
			L738.2,597.4z"/>
		<path class="st29" d="M746.8,598.9c0.6,0.1,1.2-0.1,1.6-0.5c-0.4-0.3-0.7-0.6-1.1-0.9c-0.2-0.1-0.4-0.3-0.6-0.3
			c-0.4-0.1-0.8,0.4-0.8,0.8C746,598.3,746.3,598.7,746.8,598.9L746.8,598.9z"/>
		<path class="st29" d="M743,592.5c-0.3,0.1-0.3,0.5-0.1,0.8c0.2,0.2,0.5,0.4,0.7,0.6c0.2,0.2,0.3,0.6,0.3,0.9
			c0,0.2-0.1,0.4-0.3,0.5c-0.1,0-0.2,0-0.4,0c-0.6-0.1-1.2-0.3-1.7-0.7c-0.5-0.4-0.7-1.1-0.5-1.7c0.2-0.4,0.5-0.7,1-0.8
			c0.4-0.1,0.9,0.1,1.1,0.5L743,592.5z"/>
		<path class="st29" d="M741.1,612.6c0.4-0.2,0.8-0.3,1-0.6c0.3-0.3,0.4-0.8,0.2-1.1c-0.1-0.2-0.3-0.3-0.4-0.4
			c-0.6-0.3-1.3,0-1.5,0.6C740.2,611.6,740.6,612.3,741.1,612.6L741.1,612.6z"/>
		<path class="st29" d="M749.9,610.2c0.7-0.1,1.4-0.7,1.8-1.3c-0.3-0.2-0.6-0.4-0.9-0.4c-0.3,0-0.7,0.1-0.9,0.4
			c-0.2,0.4,0,0.9,0.3,1.3c-0.1,0-0.3-0.1-0.4-0.1L749.9,610.2z"/>
		<path class="st29" d="M736.9,596.6c-0.3-0.2-0.8,0-1.1,0.2c-0.3,0.2-0.7,0.5-1.1,0.4c-0.1,0-0.2-0.1-0.2-0.2
			c-0.1-0.3,0.3-0.4,0.5-0.6c0.2-0.1,0.3-0.4,0.4-0.6c0.3-0.4,1-0.6,1.5-0.5c0.2,0.2,0.3,0.5,0.2,0.8c-0.1,0.3-0.4,0.5-0.7,0.5
			L736.9,596.6z"/>
		<path class="st29" d="M745.5,602.5c0.1-0.1,0.2-0.2,0.3-0.4c-0.2-0.2-0.3-0.4-0.6-0.5c-0.3,0-0.5,0.2-0.4,0.5
			c0,0.1,0.1,0.1,0.2,0.2c0.3,0.1,0.5,0.3,0.8,0.4L745.5,602.5z"/>
	</g>
	<g class="st42">
		<path class="st29" d="M343.2,703.1c0.6-1.5,0.3-3.4-0.7-4.7c-1.6,0.3-3.2,1.1-3.9,2.6c-0.7,1.5-0.1,3.6,1.4,4.1
			c1.5,0.6,3.5-1.2,2.8-2.7L343.2,703.1z"/>
		<path class="st29" d="M357.4,722.8c0.6-0.4,1-1.2,1.1-1.9c-0.3,0-0.7-0.1-1,0c-0.3,0.1-0.6,0.4-0.7,0.7c0,0.5,0.4,0.8,0.8,1.1
			c-0.1,0-0.3,0.1-0.4,0.1L357.4,722.8z"/>
		<path class="st29" d="M359.3,725.2c0.1,0.2,0.2,0.4,0.2,0.6c-0.6-0.1-1-0.6-1.3-1.2c-0.2-0.3-0.3-0.7-0.1-0.9
			c0.2-0.2,0.4-0.2,0.6-0.3c0.4-0.2,0.7-0.8,1.1-0.7c0.3,0.1,0.4,0.4,0.3,0.6c0,0.3-0.2,0.5-0.3,0.7c-0.3,0.5-0.7,0.9-1,1.4
			L359.3,725.2z"/>
		<path class="st29" d="M337.3,693.5c0.1-0.5-0.7-0.7-1-0.3c-0.3,0.3-0.3,0.9-0.3,1.4c0.7,0.1,1.3-0.3,1.6-0.9L337.3,693.5z"/>
		<path class="st29" d="M341.7,742.8c0-0.2,0-0.5-0.1-0.7c-0.1-0.2-0.3-0.4-0.6-0.3c-0.4,0.1-0.5,0.5-0.8,0.8
			c-0.3,0.2-0.8,0.2-1,0.5c-0.2,0.3,0,0.8,0.4,0.9c0.4,0.1,0.8,0,1.1-0.1c0.3-0.1,0.7-0.3,0.9-0.5c0.2-0.3,0.3-0.7,0-0.9
			L341.7,742.8z"/>
		<path class="st29" d="M322.2,701.5c-0.1,0.2-0.3,0.3-0.6,0.2s-0.4-0.3-0.4-0.5c0-0.1-0.1-0.3-0.1-0.4c0-0.3,0.4-0.5,0.7-0.4
			c0.3,0.1,0.5,0.4,0.4,0.7c-0.1,0.3-0.4,0.5-0.7,0.5L322.2,701.5z"/>
		<path class="st29" d="M350.3,722c0.4,0.3,1,0,1-0.5c-0.2-0.1-0.4-0.3-0.7-0.2c-0.2,0-0.5,0.2-0.5,0.4c0,0.2,0.2,0.5,0.4,0.4
			L350.3,722z"/>
		<path class="st29" d="M359.5,727.5c0.6-0.2,1-0.6,1.2-1.1c-0.5-0.1-0.9-0.3-1.4-0.4c-0.2-0.1-0.4-0.1-0.7-0.1
			c-0.4,0.1-0.6,0.7-0.4,1C358.5,727.3,359,727.5,359.5,727.5L359.5,727.5z"/>
		<path class="st29" d="M328.3,704c-0.1-0.1-0.3-0.1-0.4-0.2c-0.2,0.2-0.2,0.5-0.1,0.7c0.1,0.2,0.5,0.3,0.7,0.1
			C328.6,704.5,328.6,704.1,328.3,704L328.3,704z"/>
		<path class="st29" d="M353.5,723.2c-0.3,0.2-0.1,0.6,0.2,0.8c0.3,0.2,0.6,0.2,0.9,0.3c0.3,0.1,0.5,0.4,0.6,0.7
			c0.1,0.2,0.1,0.4-0.1,0.5c-0.1,0.1-0.2,0.1-0.3,0.2c-0.6,0.1-1.2,0.2-1.8,0c-0.6-0.2-1.1-0.7-1.1-1.3c0-0.4,0.2-0.9,0.6-1.1
			c0.4-0.2,0.8-0.2,1.2,0L353.5,723.2z"/>
		<path class="st29" d="M361.3,720.2c0.4-0.1,0.5-0.6,0.4-1c-0.1-0.4-0.5-0.6-0.9-0.6c-0.2,0-0.4,0-0.4,0.2c0,0.1,0,0.2,0.1,0.3
			c0.3,0.4,0.5,0.8,0.8,1.2L361.3,720.2z"/>
		<path class="st29" d="M349.4,706.4c-0.5,0.6-1.6,0.5-2-0.3c0.5-0.4,1-0.8,1.6-0.9c0.6-0.1,1.3,0.4,1.3,1c-0.2,0.3-0.5,0.5-0.7,0.8
			L349.4,706.4z"/>
		<path class="st29" d="M350.3,717.6c0.1-0.2,0.1-0.3,0.2-0.5c-0.2-0.1-0.5-0.2-0.7-0.2c-0.2,0.1-0.4,0.4-0.2,0.6
			c0.1,0.1,0.2,0.1,0.3,0.1c0.3,0,0.6,0.1,0.9,0.1L350.3,717.6z"/>
		<path class="st29" d="M344,711.3c0-0.4,0.1-0.8,0-1.2c-0.1-0.4-0.4-0.8-0.9-0.8c-0.2,0-0.4,0.1-0.6,0.2c-0.5,0.4-0.6,1.1-0.2,1.6
			C342.7,711.6,343.5,711.7,344,711.3L344,711.3z"/>
		<path class="st29" d="M344.3,707c-0.1-0.2-0.2-0.5-0.4-0.7c-0.2,0-0.4,0.1-0.6,0.3c0,0.4,0.5,0.7,0.9,0.7L344.3,707z"/>
		<path class="st29" d="M328.8,693.8c-1.1-1.2-2.4-2.2-3.9-2.8c-0.2-0.1-0.5-0.2-0.7-0.2c-0.5,0-0.9,0.4-1.2,0.8
			c-0.6,1.1-0.4,2.5,0.4,3.4c0.8,0.9,2.1,1.4,3.3,1.2c0.7-0.1,1.3-0.3,1.8-0.9s0.5-1.4,0-1.8c-0.2,0-0.3,0.3-0.2,0.5L328.8,693.8z"
			/>
		<path class="st29" d="M343.2,742c-0.1,0.2-0.3,0.3-0.6,0.2s-0.4-0.3-0.4-0.5c0-0.1-0.1-0.3-0.1-0.4c0-0.3,0.4-0.5,0.7-0.4
			c0.3,0.1,0.5,0.4,0.4,0.7s-0.4,0.5-0.7,0.5L343.2,742z"/>
		<path class="st29" d="M355.5,711.5c-0.4-0.2-0.8,0-1.1,0.3c-0.3,0.3-0.7,0.6-1.1,0.4c-0.1,0-0.2-0.1-0.2-0.2
			c-0.1-0.3,0.3-0.4,0.5-0.6c0.2-0.2,0.2-0.4,0.4-0.6c0.3-0.5,0.9-0.7,1.5-0.6c0.2,0.2,0.3,0.5,0.2,0.8c-0.1,0.3-0.4,0.5-0.7,0.5
			L355.5,711.5z"/>
		<path class="st29" d="M345.6,708.8c-0.4-0.2-0.8,0-1.1,0.3c-0.3,0.3-0.7,0.6-1.1,0.4c-0.1,0-0.2-0.1-0.2-0.2
			c-0.1-0.3,0.3-0.4,0.5-0.6c0.2-0.2,0.2-0.4,0.4-0.6c0.3-0.5,0.9-0.7,1.5-0.6c0.2,0.2,0.3,0.5,0.2,0.8c-0.1,0.3-0.4,0.5-0.7,0.5
			L345.6,708.8z"/>
		<path class="st29" d="M342.2,701.9c-0.1-0.3-0.3-0.6-0.5-0.9c0,0-0.1-0.1-0.1-0.1c-0.1,0-0.2,0-0.3,0.1c-0.2,0.2-0.3,0.5-0.2,0.7
			c0.1,0.2,0.3,0.4,0.5,0.5c0.1,0,0.3,0,0.4,0C342.1,702.1,342.2,702,342.2,701.9c-0.1-0.1-0.1,0-0.1,0L342.2,701.9z"/>
		<path class="st29" d="M401,772.6c0.1,0.2,0.2,0.4,0.2,0.6c-0.6-0.1-1-0.6-1.3-1.2c-0.2-0.3-0.3-0.7-0.1-0.9
			c0.2-0.2,0.4-0.2,0.6-0.3c0.4-0.2,0.7-0.8,1.1-0.7c0.3,0.1,0.4,0.4,0.3,0.6c0,0.3-0.2,0.5-0.3,0.7c-0.3,0.5-0.7,0.9-1,1.4
			L401,772.6z"/>
		<path class="st29" d="M351.3,712.3c-0.1,0.3,0.3,0.5,0.6,0.5c0.3,0,0.6-0.2,0.9-0.3c0.3-0.1,0.7,0,0.9,0.2
			c0.2,0.1,0.3,0.3,0.3,0.5c0,0.1-0.1,0.2-0.2,0.3c-0.4,0.5-0.9,0.9-1.4,1.1c-0.6,0.2-1.3,0.1-1.7-0.4c-0.3-0.3-0.3-0.8-0.2-1.2
			C350.6,712.6,351,712.3,351.3,712.3L351.3,712.3z"/>
		<path class="st29" d="M354.8,710.2c-0.1,0.3,0.3,0.5,0.6,0.5c0.3,0,0.6-0.2,0.9-0.3c0.3-0.1,0.7,0,0.9,0.2
			c0.2,0.1,0.3,0.3,0.3,0.5c0,0.1-0.1,0.2-0.2,0.3c-0.4,0.5-0.9,0.9-1.4,1.1c-0.6,0.2-1.3,0.1-1.7-0.4c-0.3-0.3-0.3-0.8-0.2-1.2
			C354.1,710.5,354.4,710.2,354.8,710.2L354.8,710.2z"/>
		<path class="st29" d="M356.9,716.1c-0.1,0.3,0.3,0.5,0.6,0.5c0.3,0,0.6-0.2,0.9-0.3c0.3-0.1,0.7,0,0.9,0.2
			c0.2,0.1,0.3,0.3,0.3,0.5c0,0.1-0.1,0.2-0.2,0.3c-0.4,0.5-0.9,0.9-1.4,1.1c-0.6,0.2-1.3,0.1-1.7-0.4c-0.3-0.3-0.3-0.8-0.2-1.2
			C356.2,716.4,356.5,716.1,356.9,716.1L356.9,716.1z"/>
		<path class="st29" d="M314.6,699.8c-0.1,0.3,0.3,0.5,0.6,0.5c0.3,0,0.6-0.2,0.9-0.3c0.3-0.1,0.7,0,0.9,0.2
			c0.2,0.1,0.3,0.3,0.3,0.5c0,0.1-0.1,0.2-0.2,0.3c-0.4,0.5-0.9,0.9-1.4,1.1c-0.6,0.2-1.3,0.1-1.7-0.4c-0.3-0.3-0.3-0.8-0.2-1.2
			C313.9,700.1,314.3,699.8,314.6,699.8L314.6,699.8z"/>
		<path class="st29" d="M343.5,747.6c0.2-0.3,0.1-0.8-0.3-1c-0.3-0.2-0.8-0.2-1.1,0c-0.1,0.1-0.3,0.3-0.2,0.4c0,0.1,0.2,0.2,0.3,0.2
			c0.4,0.2,0.9,0.3,1.3,0.5L343.5,747.6z"/>
		<path class="st29" d="M333.9,722.6c0-0.4,0.1-0.8,0-1.2c-0.1-0.4-0.4-0.8-0.9-0.8c-0.2,0-0.4,0.1-0.6,0.2
			c-0.5,0.4-0.6,1.1-0.2,1.6C332.6,722.9,333.4,723,333.9,722.6L333.9,722.6z"/>
		<path class="st29" d="M322,710c0-0.2,0-0.5-0.1-0.7c-0.1-0.2-0.3-0.4-0.6-0.3c-0.4,0.1-0.5,0.5-0.8,0.8c-0.3,0.2-0.8,0.2-1,0.5
			c-0.2,0.3,0,0.8,0.4,0.9c0.4,0.1,0.8,0,1.1-0.1c0.3-0.1,0.7-0.3,0.9-0.5c0.2-0.3,0.3-0.7,0-0.9L322,710z"/>
		<path class="st29" d="M354.7,720.5c1.4-0.9,2.3-2.5,2.2-4.2c-1.5-0.8-3.3-1-4.7-0.2c-1.4,0.8-2.2,2.8-1.3,4.2
			c0.9,1.4,3.5,1.2,3.9-0.4L354.7,720.5z"/>
		<path class="st29" d="M362.4,726c-0.4-0.1-0.7,0.3-1,0.7s-0.5,0.8-0.9,0.8c-0.1,0-0.2,0-0.3-0.1c-0.2-0.2,0.1-0.5,0.3-0.8
			c0.1-0.2,0.1-0.5,0.2-0.7c0.1-0.5,0.6-1,1.2-1c0.3,0.1,0.5,0.4,0.5,0.7c0,0.3-0.2,0.6-0.4,0.7L362.4,726z"/>
		<path class="st29" d="M349.5,723.2c-0.1-0.1-0.2-0.3-0.3-0.4c-0.3,0-0.5,0.3-0.5,0.5c0,0.3,0.2,0.5,0.5,0.5
			C349.5,723.8,349.7,723.5,349.5,723.2L349.5,723.2z"/>
		<path class="st29" d="M357.2,728c0,0.2-0.1,0.3-0.3,0.4c-0.2,0-0.3-0.1-0.5-0.2c-0.1-0.1-0.2-0.2-0.3-0.3c-0.1-0.3,0-0.6,0.2-0.8
			c0.2-0.2,0.6-0.2,0.8-0.1c0.1,0.1,0.2,0.2,0.3,0.3c0,0.1,0,0.3-0.2,0.3L357.2,728z"/>
		<path class="st29" d="M317.1,698.1c0.6-1.5,0.3-3.4-0.7-4.7c-1.6,0.3-3.2,1.1-3.9,2.6c-0.7,1.5-0.1,3.6,1.4,4.1
			c1.5,0.6,3.5-1.2,2.8-2.7L317.1,698.1z"/>
		<path class="st29" d="M360.9,729.2c-0.5-1.7-1.3-3.3-2.4-4.6c-0.2-0.2-0.4-0.4-0.6-0.5c-0.5-0.2-1.1,0-1.5,0.3
			c-1.1,0.7-1.6,2.2-1.3,3.5c0.3,1.3,1.4,2.3,2.6,2.8c0.7,0.2,1.5,0.3,2.1,0c0.7-0.3,1.1-1.1,0.9-1.8c-0.2-0.1-0.5,0.1-0.4,0.4
			L360.9,729.2z"/>
		<path class="st29" d="M347,720.7c0.6-1.5,0.3-3.4-0.7-4.7c-1.6,0.3-3.2,1.1-3.9,2.6c-0.7,1.5-0.1,3.6,1.4,4.1
			c1.5,0.6,3.5-1.2,2.8-2.7L347,720.7z"/>
		<path class="st29" d="M341.4,705.3c0.3-0.7,0.1-1.6-0.3-2.2c-0.3,0.2-0.6,0.3-0.8,0.6c-0.2,0.3-0.3,0.7-0.1,1
			c0.2,0.4,0.8,0.4,1.3,0.4c-0.1,0.1-0.2,0.2-0.3,0.3L341.4,705.3z"/>
		<path class="st29" d="M336.8,702.3c0-0.2-0.1-0.4-0.2-0.6c-0.1-0.1-0.4-0.2-0.6-0.2c-0.6-0.1-1.1-0.3-1.6-0.5
			c0.5,0.8,0.9,1.6,1.4,2.5c0,0.1,0.1,0.1,0.1,0.2c0,0.3-0.3,0.4-0.4,0.6c-0.2,0.3,0.1,0.7,0.4,1C338,707,336.9,703.4,336.8,702.3z"
			/>
		<path class="st29" d="M361.9,724.2c-0.1-0.2-0.2-0.5-0.4-0.7c-0.5,0.3-0.8,0.8-0.7,1.4c0.1,0.5,0.9,0.8,1.3,0.4
			c0.2-0.3,0.5-0.8,0.7-0.5L361.9,724.2z"/>
		<path class="st29" d="M340.3,714.5c0.1,0.2,0.2,0.4,0.2,0.6c-0.6-0.1-1-0.6-1.3-1.2c-0.2-0.3-0.3-0.7-0.1-0.9
			c0.2-0.2,0.4-0.2,0.6-0.3c0.4-0.2,0.7-0.8,1.1-0.7c0.3,0.1,0.4,0.4,0.3,0.6c0,0.3-0.2,0.5-0.3,0.7c-0.3,0.5-0.7,0.9-1,1.4
			L340.3,714.5z"/>
		<path class="st29" d="M332.9,719.7c0.1-0.5-0.7-0.7-1-0.3c-0.3,0.3-0.3,0.9-0.3,1.4c0.7,0.1,1.3-0.3,1.6-0.9L332.9,719.7z"/>
		<path class="st29" d="M332.2,709.5c-0.1,0.2-0.3,0.3-0.6,0.2c-0.2-0.1-0.4-0.3-0.4-0.5c0-0.1-0.1-0.3-0.1-0.4
			c0-0.3,0.4-0.5,0.7-0.4c0.3,0.1,0.5,0.4,0.4,0.7c-0.1,0.3-0.4,0.5-0.7,0.5L332.2,709.5z"/>
		<path class="st29" d="M335.2,708.9c0.5,0,0.8-0.7,0.5-1c-0.2,0-0.5,0.1-0.7,0.2c-0.2,0.2-0.3,0.4-0.2,0.7c0.1,0.2,0.5,0.3,0.6,0.1
			L335.2,708.9z"/>
		<path class="st29" d="M345.9,707.7c0.4-0.5,0.5-1.1,0.3-1.6c-0.4,0.2-0.9,0.3-1.3,0.5c-0.2,0.1-0.4,0.2-0.6,0.3
			c-0.3,0.3-0.1,0.9,0.3,1.1C345,708.2,345.5,708.1,345.9,707.7L345.9,707.7z"/>
		<path class="st29" d="M328.9,715.3c-0.1,0.3-0.4,0.6-0.7,0.6c-0.3,0-0.7-0.2-0.8-0.5c-0.1-0.2-0.1-0.5,0.1-0.6c0.1,0,0.2,0,0.3,0
			c0.4,0.1,0.8,0.2,1.2,0.3C328.9,715.2,328.9,715.3,328.9,715.3L328.9,715.3z"/>
		<path class="st29" d="M322.4,716.1c-0.4-0.2-0.8,0-1.1,0.3c-0.3,0.3-0.7,0.6-1.1,0.4c-0.1,0-0.2-0.1-0.2-0.2
			c-0.1-0.3,0.3-0.4,0.5-0.6c0.2-0.2,0.2-0.4,0.4-0.6c0.3-0.5,0.9-0.7,1.5-0.6c0.2,0.2,0.3,0.5,0.2,0.8s-0.4,0.5-0.7,0.5
			L322.4,716.1z"/>
		<path class="st29" d="M322,712c0-0.2-0.1-0.3-0.1-0.5c-0.3-0.1-0.6,0.1-0.7,0.3c-0.1,0.2,0,0.6,0.3,0.6
			C321.7,712.5,322,712.3,322,712L322,712z"/>
		<path class="st29" d="M338.5,707.9c-0.1,0.3,0.3,0.5,0.6,0.5c0.3,0,0.6-0.2,0.9-0.3c0.3-0.1,0.7,0,0.9,0.2
			c0.2,0.1,0.3,0.3,0.3,0.5c0,0.1-0.1,0.2-0.2,0.3c-0.4,0.5-0.9,0.9-1.4,1.1c-0.6,0.2-1.3,0.1-1.7-0.4c-0.3-0.3-0.3-0.8-0.2-1.2
			C337.8,708.2,338.2,707.9,338.5,707.9L338.5,707.9z"/>
		<path class="st29" d="M343,700.8c0.2-0.3,0.1-0.8-0.3-1c-0.3-0.2-0.8-0.2-1.1,0c-0.1,0.1-0.3,0.3-0.2,0.4c0,0.1,0.2,0.2,0.3,0.2
			c0.4,0.2,0.9,0.3,1.3,0.5L343,700.8z"/>
		<path class="st29" d="M339.3,722c-0.5,0.6-1.6,0.5-2-0.3c0.5-0.4,1-0.8,1.6-0.9c0.6-0.1,1.3,0.4,1.3,1c-0.2,0.3-0.5,0.5-0.7,0.8
			L339.3,722z"/>
		<path class="st29" d="M332.5,705.3c0-0.2-0.1-0.3-0.1-0.5c-0.3,0-0.5,0.1-0.7,0.3c-0.2,0.2-0.1,0.6,0.2,0.6c0.1,0,0.2-0.1,0.3-0.1
			c0.3-0.2,0.5-0.3,0.8-0.5L332.5,705.3z"/>
		<path class="st29" d="M340,733.3c-0.1-0.2-0.2-0.5-0.4-0.7c-0.2,0-0.4,0.1-0.6,0.3c0,0.4,0.5,0.7,0.9,0.7L340,733.3z"/>
		<path class="st29" d="M341.2,726.5c-0.1-0.2-0.2-0.5-0.4-0.7c-0.2,0-0.4,0.1-0.6,0.3c0,0.4,0.5,0.7,0.9,0.7L341.2,726.5z"/>
		<path class="st29" d="M319.1,687.7c0.2-0.3-0.1-0.6-0.4-0.7c-0.3-0.1-0.6,0.1-0.9,0c-0.3,0-0.6-0.2-0.8-0.4
			c-0.1-0.2-0.2-0.4-0.1-0.5c0.1-0.1,0.2-0.2,0.3-0.3c0.5-0.3,1.1-0.6,1.7-0.6c0.6,0,1.3,0.3,1.5,0.9c0.2,0.4,0.1,0.9-0.2,1.2
			c-0.3,0.3-0.7,0.5-1.1,0.4L319.1,687.7z"/>
		<path class="st29" d="M349.4,715.7c0.8,1.2,1.8,2.2,3,2.9c0.2,0.1,0.4,0.2,0.6,0.3c0.4,0.1,0.9-0.2,1.1-0.6c0.7-0.8,0.7-2.1,0.1-3
			c-0.6-0.9-1.6-1.5-2.7-1.5c-0.6,0-1.2,0.1-1.7,0.5c-0.4,0.4-0.6,1.1-0.2,1.6c0.2,0,0.3-0.2,0.2-0.4L349.4,715.7z"/>
		<path class="st29" d="M359.4,713.2c0.2-0.1,0.4-0.3,0.4-0.5c0.1-0.2,0-0.4-0.1-0.6c-0.2-0.5-0.3-1.1-0.4-1.6
			c-0.5,0.8-1,1.6-1.5,2.4c0,0.1-0.1,0.1-0.1,0.2c-0.2,0.2-0.5,0-0.8,0c-0.4,0-0.6,0.5-0.6,0.8C355.9,716.5,358.5,713.9,359.4,713.2
			z"/>
		<path class="st29" d="M349.7,715.4c0-0.2-0.1-0.3-0.1-0.5c-0.3-0.1-0.6,0-0.7,0.3c-0.1,0.2,0,0.6,0.2,0.7
			C349.4,716,349.7,715.7,349.7,715.4L349.7,715.4z"/>
		<path class="st29" d="M355.7,710.7c0.4,0,0.7-0.3,0.7-0.7c0-0.4-0.2-0.8-0.6-0.9c-0.2-0.1-0.4-0.1-0.5,0c-0.1,0.1-0.1,0.2,0,0.3
			c0.1,0.5,0.2,0.9,0.2,1.4L355.7,710.7z"/>
		<path class="st29" d="M351,712.9c0.7-0.1,1.4-0.7,1.8-1.3c-0.3-0.2-0.6-0.4-0.9-0.4c-0.3,0-0.7,0.1-0.9,0.4
			c-0.2,0.4,0,0.9,0.3,1.3c-0.1,0-0.3-0.1-0.4-0.1L351,712.9z"/>
		<path class="st29" d="M347.6,712.6c-0.1,0.2-0.3,0.4-0.4,0.5c-0.2-0.6,0.1-1.2,0.4-1.7c0.2-0.3,0.4-0.6,0.8-0.5
			c0.2,0,0.4,0.3,0.6,0.4c0.4,0.2,1.1,0.2,1.2,0.6c0.1,0.3-0.1,0.5-0.4,0.6c-0.2,0.1-0.5,0.1-0.8,0.1c-0.6-0.1-1.1-0.1-1.7-0.2
			L347.6,712.6z"/>
		<path class="st29" d="M356.2,714.1c0.6,0.1,1.2-0.1,1.6-0.5c-0.4-0.3-0.7-0.6-1.1-0.9c-0.2-0.1-0.3-0.3-0.6-0.3
			c-0.4-0.1-0.8,0.4-0.8,0.8C355.3,713.5,355.7,713.9,356.2,714.1L356.2,714.1z"/>
		<path class="st29" d="M352.4,707.7c-0.3,0.1-0.3,0.5-0.1,0.8s0.5,0.4,0.7,0.6c0.2,0.2,0.3,0.6,0.3,0.9c0,0.2-0.1,0.4-0.3,0.5
			c-0.1,0-0.2,0-0.4,0c-0.6-0.1-1.2-0.3-1.7-0.7c-0.5-0.4-0.7-1.1-0.5-1.7c0.2-0.4,0.5-0.7,1-0.8c0.4-0.1,0.9,0.1,1.1,0.5
			L352.4,707.7z"/>
		<path class="st29" d="M350.5,727.8c0.4-0.2,0.8-0.3,1-0.6c0.3-0.3,0.4-0.8,0.2-1.1c-0.1-0.2-0.3-0.3-0.4-0.4
			c-0.6-0.3-1.3,0-1.5,0.6C349.6,726.8,349.9,727.5,350.5,727.8L350.5,727.8z"/>
		<path class="st29" d="M359.3,725.4c0.7-0.1,1.4-0.7,1.8-1.3c-0.3-0.2-0.6-0.4-0.9-0.4c-0.3,0-0.7,0.1-0.9,0.4
			c-0.2,0.4,0,0.9,0.3,1.3c-0.1,0-0.3-0.1-0.4-0.1L359.3,725.4z"/>
		<path class="st29" d="M346.3,711.9c-0.3-0.2-0.8,0-1.1,0.2c-0.3,0.2-0.7,0.5-1.1,0.4c-0.1,0-0.2-0.1-0.2-0.2
			c-0.1-0.3,0.3-0.4,0.5-0.6c0.2-0.1,0.3-0.4,0.4-0.6c0.3-0.4,1-0.6,1.5-0.5c0.2,0.2,0.3,0.5,0.2,0.8c-0.1,0.3-0.4,0.5-0.7,0.5
			L346.3,711.9z"/>
		<path class="st29" d="M354.9,717.7c0.1-0.1,0.2-0.2,0.3-0.4c-0.2-0.2-0.3-0.4-0.6-0.5c-0.3,0-0.5,0.2-0.4,0.5
			c0,0.1,0.1,0.1,0.2,0.2c0.3,0.1,0.5,0.3,0.8,0.4L354.9,717.7z"/>
	</g>
	<path class="st8" d="M679.3,602.5c0,0,6.6-35.9,19.6-46.9c0,0-13.4,15.9-14.6,52L679.3,602.5z"/>
	<path class="st8" d="M290.2,684.3c0,0,4.1,5.1,10.8-0.1c6.7-5.2,14.9-31.5,14.9-31.5s-3.1,29.1-17.6,44.3L290.2,684.3z"/>
	<g>
		<g>
			
				<linearGradient id="SVGID_25_" gradientUnits="userSpaceOnUse" x1="-190.8703" y1="331.578" x2="-190.8703" y2="229.4287" gradientTransform="matrix(-0.9997 -2.400000e-02 -2.400000e-02 0.9997 472.298 -23.5333)">
				<stop  offset="0" style="stop-color:#2E33A0"/>
				<stop  offset="1" style="stop-color:#0665A5"/>
			</linearGradient>
			<path class="st44" d="M638.4,310.6c0,0,0.8-6.3,4.8-10.9c8.1-9.5,23.4-23.4,29.7-40.5c9.4-25.3,7.5-45,4.5-48
				c-3-3-25.4,14-35.7,34.9c-10.3,21-3.1,45.4-0.7,52.1c0,0-4.9,5.4-8.2,6.5l1.9,7.3L638.4,310.6z"/>
			
				<linearGradient id="SVGID_26_" gradientUnits="userSpaceOnUse" x1="-194.5821" y1="312.0357" x2="-194.5821" y2="229.7506" gradientTransform="matrix(-0.9997 -2.400000e-02 -2.400000e-02 0.9997 472.298 -23.5333)">
				<stop  offset="0" style="stop-color:#313131"/>
				<stop  offset="1" style="stop-color:#365E8B"/>
			</linearGradient>
			<path class="st45" d="M677.4,211.2c0,0-26.9,32.7-31.4,49.8s-3.6,31.7-3.6,31.7S684,269.3,677.4,211.2z"/>
		</g>
		<path class="st46" d="M664.3,207c0.2-3.8,1.4-7.6,3.3-10.9c0.3-0.5,0.6-1.1,1.2-1.4c1-0.7,2.3-0.6,3.4-0.1
			c2.7,1.1,4.4,4.1,4.3,7.1c-0.1,2.9-2,5.6-4.5,7.2c-1.4,0.8-3,1.3-4.6,0.9c-1.6-0.4-2.9-1.9-2.7-3.5c0.4-0.3,1.1,0.1,1.1,0.6
			L664.3,207z"/>
		<path class="st46" d="M667.4,185.5c-0.3-0.4-0.5-0.9-0.5-1.4c0.1-0.5,0.4-0.9,0.7-1.3c0.9-1,1.7-2.1,2.4-3.3
			c0.3,2.2,0.7,4.5,1,6.7c0,0.2,0.1,0.4,0.2,0.5c0.3,0.5,1.1,0.4,1.7,0.6c0.8,0.4,0.9,1.5,0.7,2.4
			C672.1,196.1,668.9,187.9,667.4,185.5z"/>
	</g>
</g>
</svg>
