<?xml version="1.0"?>
<svg xmlns="http://www.w3.org/2000/svg" viewBox="0 0 64 64" width="512" height="512"><g id="prize_-medal-winner-award-star" data-name="prize -medal-winner-award-star"><path d="M61.135,36.518a8.948,8.948,0,0,0-6.8,1.118,9.082,9.082,0,0,0-.905.652,22.835,22.835,0,0,0,.735-4.115,8.98,8.98,0,0,0,8.219-9.166.96.96,0,0,0-1.023-.976,8.938,8.938,0,0,0-6.3,2.783,9.047,9.047,0,0,0-1.156,1.5q-.141-.811-.339-1.619a9,9,0,0,0-2.706-12.244,1,1,0,0,0-1.385.286,8.982,8.982,0,0,0,2.086,12.106c0,.019,0,.038,0,.057a21.351,21.351,0,0,1,.478,2.468c-.1-.153-.2-.307-.314-.455a8.939,8.939,0,0,0-5.963-3.447,1,1,0,0,0-1.123.86,8.981,8.981,0,0,0,7.2,10A20.724,20.724,0,0,1,49.875,41.9a9,9,0,0,0-5.963-7.4,1,1,0,0,0-1.273.615,8.98,8.98,0,0,0,4.379,10.949,21.28,21.28,0,0,1-2.051,2.032,21.034,21.034,0,0,1-3.386,2.379A9.015,9.015,0,0,0,39.814,39.93a1.08,1.08,0,0,0-.712-.282,1,1,0,0,0-.7.3,9.01,9.01,0,0,0-.364,12.111,20.941,20.941,0,0,1-3.648.9,1,1,0,0,0,.148,1.989.957.957,0,0,0,.15-.012,22.731,22.731,0,0,0,3.238-.734,8.965,8.965,0,0,0,11.324,5.046,1,1,0,0,0,.605-1.278,9.006,9.006,0,0,0-7.121-5.865,22.993,22.993,0,0,0,2.318-1.521,8.917,8.917,0,0,0,5.589,1.969c.2,0,.406-.007.61-.021a8.941,8.941,0,0,0,6.175-3.052,1,1,0,0,0-.094-1.411,8.981,8.981,0,0,0-7.707-2.037c.423-.559.809-1.139,1.176-1.73a.99.99,0,0,0,.27.124,9.088,9.088,0,0,0,2.066.239,9.009,9.009,0,0,0,8.746-6.955,1,1,0,0,0-.746-1.2ZM48.01,31.769a6.955,6.955,0,0,1-1.444-4.092,7.007,7.007,0,0,1,5.02,6.55A6.955,6.955,0,0,1,48.01,31.769Zm-3.173,9.35a6.949,6.949,0,0,1-.587-4.3,7.019,7.019,0,0,1,3.592,7.427A6.949,6.949,0,0,1,44.837,41.119Zm-5.693,1.062a7.016,7.016,0,0,1,.137,8.247A7.016,7.016,0,0,1,39.144,42.181ZM47.527,57.66a7.008,7.008,0,0,1-7.458-3.531,7.01,7.01,0,0,1,7.458,3.531ZM56.51,28.2a6.942,6.942,0,0,1,3.819-2.057,7.017,7.017,0,0,1-5.7,5.968A6.952,6.952,0,0,1,56.51,28.2ZM50.143,21.1a6.941,6.941,0,0,1,.479-4.311,7.018,7.018,0,0,1,1.671,8.079A6.949,6.949,0,0,1,50.143,21.1Zm5,27.829a7.008,7.008,0,0,1-8.231.547A7.017,7.017,0,0,1,55.143,48.932Zm1.668-7.314A6.953,6.953,0,0,1,52.6,42.653,7.019,7.019,0,0,1,59.606,38.3,6.956,6.956,0,0,1,56.811,41.618Z"/><path d="M29.612,52.968a20.874,20.874,0,0,1-3.648-.9A9.01,9.01,0,0,0,25.6,39.953a1,1,0,0,0-.7-.3,1.061,1.061,0,0,0-.712.282,9.015,9.015,0,0,0-1.767,10.543,21.034,21.034,0,0,1-3.386-2.379,21.28,21.28,0,0,1-2.051-2.032,8.98,8.98,0,0,0,4.379-10.949,1,1,0,0,0-1.273-.615,9,9,0,0,0-5.963,7.4,20.724,20.724,0,0,1-1.964-5.564,8.981,8.981,0,0,0,7.2-10,1,1,0,0,0-1.123-.86,8.939,8.939,0,0,0-5.963,3.447c-.113.148-.211.3-.314.455a21.351,21.351,0,0,1,.478-2.468c.005-.019,0-.038,0-.057a8.982,8.982,0,0,0,2.086-12.106,1,1,0,0,0-1.385-.286A9,9,0,0,0,10.432,26.7q-.2.809-.339,1.619a9.047,9.047,0,0,0-1.156-1.5,8.938,8.938,0,0,0-6.3-2.783H2.612a1,1,0,0,0-1,.977,8.98,8.98,0,0,0,8.219,9.166,22.835,22.835,0,0,0,.735,4.115,9.082,9.082,0,0,0-.9-.652,8.951,8.951,0,0,0-6.8-1.118,1,1,0,0,0-.746,1.2,9.009,9.009,0,0,0,8.746,6.955,9.088,9.088,0,0,0,2.066-.239.99.99,0,0,0,.27-.124c.367.591.753,1.171,1.176,1.73A8.978,8.978,0,0,0,6.67,48.078a1,1,0,0,0-.094,1.411,8.941,8.941,0,0,0,6.175,3.052q.306.021.61.021a8.917,8.917,0,0,0,5.589-1.969,23.033,23.033,0,0,0,2.314,1.519,9.006,9.006,0,0,0-7.117,5.867,1,1,0,0,0,.605,1.278,8.965,8.965,0,0,0,11.324-5.046,22.731,22.731,0,0,0,3.238.734.957.957,0,0,0,.15.012,1,1,0,0,0,.148-1.989ZM24.856,42.181a7.016,7.016,0,0,1-.137,8.247A7.016,7.016,0,0,1,24.856,42.181Zm-5.106-5.36a7.007,7.007,0,0,1-3.592,7.427A7.019,7.019,0,0,1,19.75,36.821Zm-5.893-6.686a6.952,6.952,0,0,1,3.577-2.458,7.01,7.01,0,0,1-5.02,6.55A6.954,6.954,0,0,1,13.857,30.135ZM7.189,41.618A6.956,6.956,0,0,1,4.394,38.3,7.039,7.039,0,0,1,11.4,42.653,6.953,6.953,0,0,1,7.189,41.618ZM20.776,57.109a6.95,6.95,0,0,1-4.3.551,7.01,7.01,0,0,1,7.458-3.531A6.949,6.949,0,0,1,20.776,57.109Zm-7.4-40.317a7.01,7.01,0,0,1-1.671,8.079A7.018,7.018,0,0,1,13.378,16.792ZM3.671,26.138a7.009,7.009,0,0,1,5.7,5.968A7.017,7.017,0,0,1,3.671,26.138Zm9.213,24.407a6.943,6.943,0,0,1-4.027-1.613,7.014,7.014,0,0,1,8.231.547A6.92,6.92,0,0,1,12.884,50.545Z"/><path d="M39.608,33.479a2.012,2.012,0,0,0,1.9-2.625l-2.457-7.562,6.432-4.674A2,2,0,0,0,44.311,15H36.359L33.9,7.438a2,2,0,0,0-3.8,0L27.641,15H19.689a2,2,0,0,0-1.175,3.618l6.432,4.674-2.457,7.562a2,2,0,0,0,3.078,2.236L32,28.417l6.433,4.673A1.989,1.989,0,0,0,39.608,33.479ZM32,26.415a2,2,0,0,0-1.176.383l-6.432,4.674,2.456-7.561a1.993,1.993,0,0,0-.726-2.237L19.689,17h7.952a2,2,0,0,0,1.9-1.382L32,8.043l0,.013,2.457,7.562A2,2,0,0,0,36.359,17h7.952l-6.433,4.673a2,2,0,0,0-.727,2.237l2.457,7.562L33.176,26.8A2,2,0,0,0,32,26.415Z"/></g></svg>
